<svg id="Group_1777" data-name="Group 1777" xmlns="http://www.w3.org/2000/svg" width="355.107" height="32.688" viewBox="0 0 355.107 32.688">
  <path id="Path_1322" data-name="Path 1322" d="M12.866,25.549a24.217,24.217,0,0,1-7.1-1.043A14.811,14.811,0,0,1,.35,21.74l2.041-4.58a16.075,16.075,0,0,0,4.784,2.517,17.4,17.4,0,0,0,5.691.975,9.834,9.834,0,0,0,5.283-1.134,3.434,3.434,0,0,0,1.746-2.993,2.9,2.9,0,0,0-.975-2.245A6.844,6.844,0,0,0,16.448,12.9q-1.5-.5-4.081-1.134a47.574,47.574,0,0,1-5.872-1.723,9.664,9.664,0,0,1-3.854-2.7A7.268,7.268,0,0,1,1.03,2.377,8.47,8.47,0,0,1,2.459-2.407,9.665,9.665,0,0,1,6.767-5.83,17.453,17.453,0,0,1,13.818-7.1a22.775,22.775,0,0,1,5.714.726,15.793,15.793,0,0,1,4.852,2.086L22.524.291a18.342,18.342,0,0,0-4.353-1.859,16.284,16.284,0,0,0-4.4-.635A9.189,9.189,0,0,0,8.58-1.024a3.637,3.637,0,0,0-1.7,3.129,2.829,2.829,0,0,0,.975,2.222,7.044,7.044,0,0,0,2.471,1.36q1.5.5,4.081,1.134a42.945,42.945,0,0,1,5.8,1.7,9.94,9.94,0,0,1,3.877,2.7,7.111,7.111,0,0,1,1.61,4.9,8.363,8.363,0,0,1-1.428,4.761,9.716,9.716,0,0,1-4.331,3.4A17.618,17.618,0,0,1,12.866,25.549Zm25.8-27.208H28.147V-6.647H55.083v4.988H44.563V25.1h-5.9ZM79.661,17.75H63.79L60.661,25.1H54.584L68.868-6.647h5.8L89,25.1H82.835Zm-1.95-4.625L71.725-.752l-5.94,13.876ZM100.067-1.7V7.955h15.327v4.988H100.067V25.1h-5.9V-6.647h23.172V-1.7Zm30.019,0V7.955h15.327v4.988H130.086V25.1h-5.9V-6.647h23.172V-1.7Z" transform="translate(207.744 7.1)" fill="#fff"/>
  <path id="Path_1323" data-name="Path 1323" d="M17.42,25.549a17.876,17.876,0,0,1-8.684-2.109,15.544,15.544,0,0,1-6.076-5.827A16.165,16.165,0,0,1,.46,9.225,16.037,16.037,0,0,1,2.682.836a15.707,15.707,0,0,1,6.1-5.827A17.876,17.876,0,0,1,17.465-7.1a18.113,18.113,0,0,1,7.119,1.36,14.521,14.521,0,0,1,5.442,3.945L26.217,1.788a11.109,11.109,0,0,0-8.48-3.718A11.89,11.89,0,0,0,11.887-.5,10.29,10.29,0,0,0,7.851,3.466,11.4,11.4,0,0,0,6.4,9.225a11.4,11.4,0,0,0,1.451,5.759,10.29,10.29,0,0,0,4.036,3.968,11.89,11.89,0,0,0,5.85,1.428,11.048,11.048,0,0,0,8.48-3.764l3.809,3.628a14.482,14.482,0,0,1-5.464,3.945A18.28,18.28,0,0,1,17.42,25.549Zm33.874,0a18.1,18.1,0,0,1-8.752-2.109,15.615,15.615,0,0,1-6.122-5.85A16.072,16.072,0,0,1,34.2,9.225,16.072,16.072,0,0,1,36.42.858a15.615,15.615,0,0,1,6.122-5.85A18.1,18.1,0,0,1,51.293-7.1a18.1,18.1,0,0,1,8.752,2.109A15.666,15.666,0,0,1,66.167.836a16.037,16.037,0,0,1,2.222,8.389,16.037,16.037,0,0,1-2.222,8.389,15.666,15.666,0,0,1-6.122,5.827A18.1,18.1,0,0,1,51.293,25.549Zm0-5.169a11.45,11.45,0,0,0,5.714-1.428A10.331,10.331,0,0,0,61,14.961a11.434,11.434,0,0,0,1.451-5.736A11.434,11.434,0,0,0,61,3.488,10.331,10.331,0,0,0,57.007-.5,12.141,12.141,0,0,0,45.58-.5a10.331,10.331,0,0,0-3.99,3.99,11.434,11.434,0,0,0-1.451,5.736,11.434,11.434,0,0,0,1.451,5.736,10.331,10.331,0,0,0,3.99,3.99A11.45,11.45,0,0,0,51.293,20.38ZM103.986-6.647V25.1H99.134L81.63,3.6V25.1H75.78V-6.647h4.852l17.5,21.494V-6.647Zm19.5,32.2a24.217,24.217,0,0,1-7.1-1.043,14.811,14.811,0,0,1-5.419-2.766l2.041-4.58a16.075,16.075,0,0,0,4.784,2.517,17.4,17.4,0,0,0,5.691.975,9.834,9.834,0,0,0,5.283-1.134,3.434,3.434,0,0,0,1.746-2.993,2.9,2.9,0,0,0-.975-2.245,6.844,6.844,0,0,0-2.471-1.383q-1.5-.5-4.081-1.134a47.573,47.573,0,0,1-5.872-1.723,9.664,9.664,0,0,1-3.854-2.7,7.268,7.268,0,0,1-1.61-4.965,8.47,8.47,0,0,1,1.428-4.784,9.665,9.665,0,0,1,4.308-3.424,17.453,17.453,0,0,1,7.051-1.27,22.775,22.775,0,0,1,5.714.726A15.793,15.793,0,0,1,135-4.289L133.143.291a18.342,18.342,0,0,0-4.353-1.859,16.284,16.284,0,0,0-4.4-.635A9.188,9.188,0,0,0,119.2-1.024a3.637,3.637,0,0,0-1.7,3.129,2.829,2.829,0,0,0,.975,2.222,7.044,7.044,0,0,0,2.471,1.36q1.5.5,4.081,1.134a42.946,42.946,0,0,1,5.8,1.7,9.94,9.94,0,0,1,3.877,2.7,7.111,7.111,0,0,1,1.61,4.9,8.363,8.363,0,0,1-1.428,4.761,9.716,9.716,0,0,1-4.331,3.4A17.618,17.618,0,0,1,123.485,25.549Zm33.466,0q-6.575,0-10.248-3.7t-3.673-10.588V-6.647h5.9V11.039q0,9.341,8.072,9.341,8.026,0,8.026-9.341V-6.647h5.8V11.265q0,6.893-3.65,10.588T156.95,25.549Zm23.263-32.2h5.9V20.108h16.6V25.1H180.213Z" transform="translate(-0.46 7.139)" fill="#fff"/>
</svg>
