<svg id="graph" xmlns="http://www.w3.org/2000/svg" width="57.372" height="55.902" viewBox="0 0 57.372 55.902">
  <path id="Path_2321" data-name="Path 2321" d="M121.059,88.664a2.8,2.8,0,1,0-2.238-1.119l-4.6,6.432a2.794,2.794,0,0,0-2.779.612l-3.068-1.741a2.8,2.8,0,1,0-5.477,0l-3.068,1.741a2.8,2.8,0,1,0,.832,1.461l3.068-1.741a2.794,2.794,0,0,0,3.814,0l3.068,1.741a2.8,2.8,0,1,0,4.977-1.094l4.6-6.432A2.793,2.793,0,0,0,121.059,88.664Zm0-3.922a1.121,1.121,0,1,1-1.121,1.121A1.122,1.122,0,0,1,121.059,84.742ZM97.919,97.759a1.121,1.121,0,1,1,1.121-1.121A1.122,1.122,0,0,1,97.919,97.759Zm7.713-4.38a1.121,1.121,0,1,1,1.121-1.121A1.122,1.122,0,0,1,105.632,93.38Zm7.713,4.38a1.121,1.121,0,1,1,1.121-1.121A1.122,1.122,0,0,1,113.346,97.759Z" transform="translate(-84.46 -74.489)" fill="#f86c3b"/>
  <path id="Path_2322" data-name="Path 2322" d="M46.928,77.861H2.377a.7.7,0,0,1-.7-.7V42.493a.7.7,0,0,1,.7-.7H6.339a.84.84,0,0,0,0-1.681H2.377A2.38,2.38,0,0,0,0,42.493V77.165a2.38,2.38,0,0,0,2.377,2.377H8.172v1.85A1.913,1.913,0,0,0,10.083,83.3H18.5l-3.96,7.732a.84.84,0,1,0,1.5.766l4.353-8.5h9.292l4.353,8.5a.84.84,0,1,0,1.5-.766L31.564,83.3h8.412a1.913,1.913,0,0,0,1.911-1.911v-1.85h5.041a.84.84,0,0,0,0-1.681Zm-6.722,3.53a.23.23,0,0,1-.23.23H10.083a.23.23,0,0,1-.23-.23v-1.85H40.206Z" transform="translate(0 -36.356)" fill="#f86c3b"/>
  <path id="Path_2323" data-name="Path 2323" d="M79.911,12h37.981a.7.7,0,0,1,.7.7v7.991a.84.84,0,0,0,1.681,0V12.7a2.38,2.38,0,0,0-2.377-2.377H99.9V8.666A2.111,2.111,0,0,0,97.8,6.558H92.684a2.111,2.111,0,0,0-2.109,2.108v1.652H79.911a.84.84,0,1,0,0,1.681ZM92.257,8.666a.428.428,0,0,1,.428-.428H97.8a.428.428,0,0,1,.428.428v1.652H92.257V8.666Z" transform="translate(-70.211 -6.558)" fill="#f86c3b"/>
  <path id="Path_2324" data-name="Path 2324" d="M98.242,267.576a.84.84,0,0,0-.84.84v7.426a.84.84,0,0,0,.84.84h3.409a.84.84,0,0,0,.84-.84v-7.426a.84.84,0,0,0-.84-.84ZM100.811,275H99.083v-5.745h1.729Z" transform="translate(-86.488 -238.328)" fill="#f86c3b"/>
  <path id="Path_2325" data-name="Path 2325" d="M167.077,229.248a.84.84,0,0,0-.84.84v11.721a.84.84,0,0,0,.84.84h3.409a.84.84,0,0,0,.84-.84V230.088a.84.84,0,0,0-.84-.84Zm2.569,11.721h-1.729v-10.04h1.729Z" transform="translate(-147.609 -204.295)" fill="#f86c3b"/>
  <path id="Path_2326" data-name="Path 2326" d="M235.913,267.576a.84.84,0,0,0-.84.84v7.426a.84.84,0,0,0,.84.84h3.409a.84.84,0,0,0,.84-.84v-7.426a.84.84,0,0,0-.84-.84ZM238.482,275h-1.729v-5.745h1.729Z" transform="translate(-208.732 -238.328)" fill="#f86c3b"/>
  <path id="Path_2327" data-name="Path 2327" d="M304.749,311.832a.84.84,0,0,0-.84.84v2.467a.84.84,0,0,0,.84.84h3.409a.84.84,0,1,0,0-1.681H305.59v-1.627A.84.84,0,0,0,304.749,311.832Z" transform="translate(-269.855 -277.625)" fill="#f86c3b"/>
  <path id="Path_2328" data-name="Path 2328" d="M319.36,171.316l-4.821-8.351a10.99,10.99,0,1,0-10.867,3.1,11.045,11.045,0,0,0,2.861.379,10.848,10.848,0,0,0,2.474-.286l4.82,8.351a3.195,3.195,0,1,0,5.533-3.195Zm-15.253-6.873a9.3,9.3,0,1,1,7.06-.929A9.243,9.243,0,0,1,304.107,164.443Zm13.244,9.782a1.516,1.516,0,0,1-2.068-.554l-4.638-8.035a11.032,11.032,0,0,0,2.62-1.515l4.639,8.035a1.512,1.512,0,0,1-.554,2.068Z" transform="translate(-262.417 -129.02)" fill="#f86c3b"/>
  <path id="Path_2329" data-name="Path 2329" d="M337.9,181.592a7.953,7.953,0,0,0-.4-5.761.84.84,0,1,0-1.52.716,6.295,6.295,0,1,1-1.9-2.345.84.84,0,1,0,1.014-1.34,7.981,7.981,0,1,0,2.8,8.73Z" transform="translate(-286.185 -152.788)" fill="#f86c3b"/>
</svg>
