<svg id="money" xmlns="http://www.w3.org/2000/svg" width="53.786" height="53.786" viewBox="0 0 53.786 53.786">
  <g id="Group_2500" data-name="Group 2500" transform="translate(46.614 3.606)">
    <g id="Group_2499" data-name="Group 2499">
      <path id="Path_2296" data-name="Path 2296" d="M422.992,36.1,420.3,32.516a.929.929,0,0,0-1.434,0L416.179,36.1a.9.9,0,0,0-.179.538V78.772a3.586,3.586,0,1,0,7.171,0V36.64A.9.9,0,0,0,422.992,36.1Zm-1.614,42.67a1.793,1.793,0,1,1-3.586,0V76.98h3.586Zm0-3.586h-3.586V73.394h3.586Zm0-3.586h-3.586V39.329h3.586Zm0-34.064h-3.586v-.6l1.793-2.39,1.793,2.39Z" transform="translate(-416 -32.178)" fill="#f86c3b"/>
    </g>
  </g>
  <g id="Group_2502" data-name="Group 2502">
    <g id="Group_2501" data-name="Group 2501">
      <path id="Path_2297" data-name="Path 2297" d="M43.929,0H4.482a.9.9,0,0,0-.9.9V16.225A4.49,4.49,0,0,0,0,20.618V49.3a4.488,4.488,0,0,0,4.482,4.482H36.754a.9.9,0,0,0,.634-.263l7.171-7.171a.9.9,0,0,0,.179-.263c.013-.028.02-.055.03-.083a.9.9,0,0,0,.047-.233c0-.019.011-.036.011-.055V.9A.9.9,0,0,0,43.929,0ZM26.893,49.3A2.689,2.689,0,0,1,24.2,51.993H4.482A2.689,2.689,0,0,1,1.793,49.3V20.618a2.689,2.689,0,0,1,2.689-2.689H24.2a2.689,2.689,0,0,1,2.689,2.689ZM15.239,10.757v5.379H8.964V10.757ZM8.964,8.964V5.379h6.275V8.964Zm14.343,1.793v5.379H17.032V10.757ZM17.032,8.964V5.379h6.275V8.964ZM25.1,16.225V10.757h6.275v12.55H28.686V20.618A4.49,4.49,0,0,0,25.1,16.225Zm0-7.261V5.379h6.275V8.964ZM37.65,50.726V46.615h4.111Zm5.379-5.9H36.754a.9.9,0,0,0-.9.9v6.275H27.766a4.436,4.436,0,0,0,.92-2.689V25.1H40.339a.9.9,0,0,0,.9-.9V4.482a.9.9,0,0,0-.9-.9H8.068a.9.9,0,0,0-.9.9V16.136H5.379V1.793h37.65ZM39.443,10.757v12.55H33.168V10.757ZM33.168,8.964V5.379h6.275V8.964Z" fill="#f86c3b"/>
    </g>
  </g>
  <g id="Group_2504" data-name="Group 2504" transform="translate(3.586 20.618)">
    <g id="Group_2503" data-name="Group 2503">
      <path id="Path_2298" data-name="Path 2298" d="M52.618,184H32.9a.9.9,0,0,0-.9.9v5.379a.9.9,0,0,0,.9.9H52.618a.9.9,0,0,0,.9-.9V184.9A.9.9,0,0,0,52.618,184Zm-.9,5.379H33.793v-3.586H51.722Z" transform="translate(-32 -184)" fill="#f86c3b"/>
    </g>
  </g>
  <g id="Group_2506" data-name="Group 2506" transform="translate(18.825 36.754)">
    <g id="Group_2505" data-name="Group 2505">
      <path id="Path_2299" data-name="Path 2299" d="M174.275,328H168.9a.9.9,0,0,0-.9.9v10.757a.9.9,0,0,0,.9.9h5.379a.9.9,0,0,0,.9-.9V328.9A.9.9,0,0,0,174.275,328Zm-.9,10.757h-3.586v-8.964h3.586Z" transform="translate(-168 -328)" fill="#f86c3b"/>
    </g>
  </g>
  <g id="Group_2508" data-name="Group 2508" transform="translate(18.825 29.582)">
    <g id="Group_2507" data-name="Group 2507">
      <path id="Path_2300" data-name="Path 2300" d="M174.275,264H168.9a.9.9,0,0,0-.9.9v3.586a.9.9,0,0,0,.9.9h5.379a.9.9,0,0,0,.9-.9V264.9A.9.9,0,0,0,174.275,264Zm-.9,3.586h-3.586v-1.793h3.586Z" transform="translate(-168 -264)" fill="#f86c3b"/>
    </g>
  </g>
  <g id="Group_2510" data-name="Group 2510" transform="translate(10.757 36.754)">
    <g id="Group_2509" data-name="Group 2509">
      <path id="Path_2301" data-name="Path 2301" d="M102.275,328H96.9a.9.9,0,0,0-.9.9v3.586a.9.9,0,0,0,.9.9h5.379a.9.9,0,0,0,.9-.9V328.9A.9.9,0,0,0,102.275,328Zm-.9,3.586H97.793v-1.793h3.586Z" transform="translate(-96 -328)" fill="#f86c3b"/>
    </g>
  </g>
  <g id="Group_2512" data-name="Group 2512" transform="translate(10.757 29.582)">
    <g id="Group_2511" data-name="Group 2511">
      <path id="Path_2302" data-name="Path 2302" d="M102.275,264H96.9a.9.9,0,0,0-.9.9v3.586a.9.9,0,0,0,.9.9h5.379a.9.9,0,0,0,.9-.9V264.9A.9.9,0,0,0,102.275,264Zm-.9,3.586H97.793v-1.793h3.586Z" transform="translate(-96 -264)" fill="#f86c3b"/>
    </g>
  </g>
  <g id="Group_2514" data-name="Group 2514" transform="translate(2.689 36.754)">
    <g id="Group_2513" data-name="Group 2513">
      <path id="Path_2303" data-name="Path 2303" d="M30.275,328H24.9a.9.9,0,0,0-.9.9v3.586a.9.9,0,0,0,.9.9h5.379a.9.9,0,0,0,.9-.9V328.9A.9.9,0,0,0,30.275,328Zm-.9,3.586H25.793v-1.793h3.586Z" transform="translate(-24 -328)" fill="#f86c3b"/>
    </g>
  </g>
  <g id="Group_2516" data-name="Group 2516" transform="translate(2.689 29.582)">
    <g id="Group_2515" data-name="Group 2515">
      <path id="Path_2304" data-name="Path 2304" d="M30.275,264H24.9a.9.9,0,0,0-.9.9v3.586a.9.9,0,0,0,.9.9h5.379a.9.9,0,0,0,.9-.9V264.9A.9.9,0,0,0,30.275,264Zm-.9,3.586H25.793v-1.793h3.586Z" transform="translate(-24 -264)" fill="#f86c3b"/>
    </g>
  </g>
  <g id="Group_2518" data-name="Group 2518" transform="translate(10.757 43.925)">
    <g id="Group_2517" data-name="Group 2517">
      <path id="Path_2305" data-name="Path 2305" d="M102.275,392H96.9a.9.9,0,0,0-.9.9v3.586a.9.9,0,0,0,.9.9h5.379a.9.9,0,0,0,.9-.9V392.9A.9.9,0,0,0,102.275,392Zm-.9,3.586H97.793v-1.793h3.586Z" transform="translate(-96 -392)" fill="#f86c3b"/>
    </g>
  </g>
  <g id="Group_2520" data-name="Group 2520" transform="translate(2.689 43.925)">
    <g id="Group_2519" data-name="Group 2519">
      <path id="Path_2306" data-name="Path 2306" d="M30.275,392H24.9a.9.9,0,0,0-.9.9v3.586a.9.9,0,0,0,.9.9h5.379a.9.9,0,0,0,.9-.9V392.9A.9.9,0,0,0,30.275,392Zm-.9,3.586H25.793v-1.793h3.586Z" transform="translate(-24 -392)" fill="#f86c3b"/>
    </g>
  </g>
</svg>
