<svg id="idea" xmlns="http://www.w3.org/2000/svg" width="57.372" height="56.253" viewBox="0 0 57.372 56.253">
  <g id="Group_2522" data-name="Group 2522" transform="translate(0 5.998)">
    <g id="Group_2521" data-name="Group 2521">
      <path id="Path_2330" data-name="Path 2330" d="M56.533,101.036H55.509V70.812a4.2,4.2,0,0,0-4.193-4.193H40.838a12.941,12.941,0,0,0-24.007,0H6.056a4.2,4.2,0,0,0-4.193,4.193v30.224H.839a.839.839,0,0,0-.839.839,6.9,6.9,0,0,0,6.895,6.895H50.477a6.9,6.9,0,0,0,6.895-6.895A.839.839,0,0,0,56.533,101.036ZM3.54,70.812A2.519,2.519,0,0,1,6.056,68.3H16.276c-.016.065-.031.13-.046.2-.01.04-.02.081-.029.121-.016.069-.03.137-.045.207q-.017.079-.032.157c-.013.064-.025.128-.037.193s-.022.123-.032.185-.02.115-.029.172q-.026.171-.048.343c-.005.042-.01.085-.015.127-.01.082-.019.164-.027.246,0,.049-.009.1-.013.147q-.01.116-.018.233c0,.048-.006.1-.009.144,0,.084-.009.169-.012.253,0,.041,0,.082,0,.123s0,.089,0,.133H7.211a.839.839,0,0,0-.839.839V93.133a.839.839,0,0,0,1.677,0V72.953h7.9c.041.377.1.751.174,1.122v.005a12.974,12.974,0,0,0,.5,1.806l.009.024q.06.168.125.334l.012.03q.182.465.4.916c.02.042.04.083.06.125.034.069.07.138.106.207s.065.124.1.186.064.117.1.176q.064.114.131.227c.027.046.054.092.081.138.074.122.149.243.226.363l.016.025.052.079.05.076a.839.839,0,0,0,1.5-.231l0-.008c.007-.023.013-.046.017-.07,0-.006,0-.012,0-.018s.007-.041.009-.061,0-.017,0-.026,0-.036,0-.055,0-.026,0-.039,0-.028,0-.042,0-.034-.007-.051,0-.02,0-.03-.009-.04-.015-.061,0-.013,0-.019c-.008-.026-.017-.051-.027-.077h0a.846.846,0,0,0-.081-.15c-.026-.038-.051-.076-.076-.115l-.01-.015-.021-.032q-.106-.164-.206-.331c-.03-.05-.058-.1-.087-.15s-.071-.121-.1-.182-.072-.134-.108-.2c-.024-.044-.047-.089-.07-.133-.04-.078-.079-.157-.117-.237l-.048-.1q-.062-.133-.121-.267l-.03-.069q-.064-.147-.123-.3l-.015-.039q-.064-.162-.123-.327l0-.005a11.361,11.361,0,0,1-.651-3.282h0c-.009-.185-.015-.369-.015-.555,0-.145,0-.29.009-.434,0-.028,0-.057,0-.085q.009-.206.026-.41c0-.032.006-.064.009-.1.012-.131.025-.262.041-.392,0-.025.007-.05.01-.075.016-.119.034-.237.053-.355.007-.041.013-.082.02-.123q.032-.181.069-.36c.01-.049.021-.1.032-.148.023-.1.048-.208.074-.312.016-.062.032-.124.049-.185.021-.077.042-.153.065-.229s.05-.168.077-.251.046-.143.071-.214a11.268,11.268,0,0,1,21.349,0c.024.07.047.141.069.211s.053.169.078.254.044.152.064.228.034.124.049.187q.039.155.074.311c.011.049.022.1.032.148q.037.179.069.359c.007.041.014.082.02.123.019.118.037.236.053.355,0,.025.007.05.01.075.016.13.03.261.041.392,0,.032.006.064.009.1q.017.2.026.41c0,.028,0,.057,0,.085.005.144.009.289.009.434,0,.186-.006.371-.015.555h0a11.353,11.353,0,0,1-.65,3.278l0,.014c-.039.107-.079.214-.121.32l-.018.046q-.058.146-.121.291l-.033.075q-.058.132-.119.263l-.05.1q-.056.117-.115.233c-.024.046-.048.091-.072.137-.035.066-.07.133-.106.2s-.07.123-.106.185-.057.1-.086.149c-.067.111-.136.222-.207.332l-.017.026h0l-.084.128-.006.009L38.091,78l-.243.374-.138.215-.191.3-.139.219-.179.283-.137.219-.169.272-.132.215-.164.269-.124.205-.161.268-.116.194-.161.272-.106.179-.168.288-.087.15-.209.365-.036.063q-.121.212-.236.419l-.056.1-.168.3-.077.14-.138.252-.079.147-.126.234-.077.144-.118.224-.074.14-.113.218-.068.131-.111.216-.06.119-.063.124v-9.09a.833.833,0,0,0-.082-.36l0-.011-2.234-4.672h0l-1.955-4.088a.839.839,0,0,0-1.513,0l-1.955,4.088h0L23.889,75.8l0,.011a.833.833,0,0,0-.082.36v9.093l-.041-.081-.065-.129-.074-.146-.069-.135-.078-.151-.07-.135-.085-.161-.071-.134-.095-.178-.068-.127-.12-.223-.049-.09-.175-.32-.052-.095-.131-.237-.072-.129-.118-.21-.082-.145-.117-.206-.085-.148-.124-.215-.085-.147-.133-.227-.083-.142-.151-.255-.072-.121-.231-.385a.839.839,0,1,0-1.436.867q.137.228.269.45l.011.018q.123.208.242.411l.046.079.2.34.058.1.176.308.062.109.161.287.064.114.152.274.06.109.146.268.057.1.141.262.052.1.138.262.044.084.14.268.034.066.146.285.019.036q.327.642.582,1.179l.017.036.1.219.027.058.085.183.032.069.073.16.032.071.065.145.031.069.059.133.029.065.053.122.027.063.048.111.024.057.044.1.022.052.038.091.02.048.033.08.018.045.025.062.048.121.005.013.026.067,0,.01.041.107v6.339a2.866,2.866,0,0,0,2.862,2.862H31a2.866,2.866,0,0,0,2.862-2.862V89.336c.013-.036.035-.091.062-.162.1-.264.31-.768.638-1.486l.06-.131q.134-.291.293-.624l.119-.247c.085-.175.174-.355.269-.545.085-.169.175-.347.268-.528l.126-.244c.639-1.231,1.462-2.714,2.5-4.408l.014-.023q.15-.244.305-.494l.048-.076q.142-.227.288-.458l.1-.152c.084-.133.169-.265.256-.4s.188-.289.283-.435l.088-.135c.034-.05.066-.1.1-.151L39.7,78.6c.078-.12.153-.241.226-.362.027-.045.053-.091.08-.136.044-.076.088-.151.131-.228q.049-.087.1-.175t.1-.185c.036-.069.071-.137.106-.207.02-.041.039-.082.059-.123q.22-.454.4-.923l.009-.022q.066-.17.127-.341l.005-.015a12.99,12.99,0,0,0,.675-2.937h7.607v4.6a.839.839,0,0,0,1.677,0v-5.44a.839.839,0,0,0-.839-.839h-8.37c0-.044,0-.089,0-.133s0-.082,0-.123c0-.084-.007-.169-.012-.253q0-.072-.009-.144c-.005-.078-.011-.155-.018-.233,0-.049-.008-.1-.013-.147-.008-.082-.017-.164-.027-.246,0-.042-.009-.085-.015-.127q-.022-.172-.048-.343c-.009-.058-.019-.115-.028-.172s-.021-.123-.032-.185-.024-.129-.037-.193-.021-.1-.032-.157c-.015-.069-.029-.138-.045-.207-.009-.04-.019-.081-.029-.121-.016-.065-.03-.13-.046-.2h9.924a2.519,2.519,0,0,1,2.516,2.516v30.224H51V80.909a.839.839,0,1,0-1.677,0v20.127H8.05V96.487a.839.839,0,0,0-1.677,0v4.548H3.54Zm21.94,21.132v-2h6.71v2Zm6.71,1.677v2.055A1.186,1.186,0,0,1,31,96.861h-4.34a1.186,1.186,0,0,1-1.185-1.185V93.621h6.71Zm-6.71-5.353V77.014h6.71V88.268h-6.71Zm.5-12.941,1.432-2.995h2.853l1.432,2.995Zm8.769,27.386a1.925,1.925,0,0,1-1.73,1.084H24.357a1.925,1.925,0,0,1-1.73-1.084Zm15.732,4.379H6.895a5.226,5.226,0,0,1-5.15-4.379H20.856a3.606,3.606,0,0,0,3.5,2.761h8.658a3.605,3.605,0,0,0,3.5-2.761H55.627A5.226,5.226,0,0,1,50.477,107.092Z" transform="translate(0 -58.513)" fill="#f86c3b"/>
    </g>
  </g>
  <g id="Group_2524" data-name="Group 2524" transform="translate(27.996 0)">
    <g id="Group_2523" data-name="Group 2523">
      <path id="Path_2331" data-name="Path 2331" d="M250.679,4.989a.839.839,0,0,0-.839.839V8.963a.839.839,0,1,0,1.677,0V5.828A.839.839,0,0,0,250.679,4.989Z" transform="translate(-249.84 -4.989)" fill="#f86c3b"/>
    </g>
  </g>
  <g id="Group_2526" data-name="Group 2526" transform="translate(40.724 6.859)">
    <g id="Group_2525" data-name="Group 2525">
      <path id="Path_2332" data-name="Path 2332" d="M367.717,66.621a.838.838,0,0,0-1.144-.311l-2.721,1.557a.839.839,0,1,0,.833,1.456l2.722-1.557A.839.839,0,0,0,367.717,66.621Z" transform="translate(-363.428 -66.199)" fill="#f86c3b"/>
    </g>
  </g>
  <g id="Group_2528" data-name="Group 2528" transform="translate(35.234 2.012)">
    <g id="Group_2527" data-name="Group 2527">
      <path id="Path_2333" data-name="Path 2333" d="M317.7,23.115a.839.839,0,0,0-1.176.156l-1.906,2.489a.839.839,0,0,0,1.332,1.02l1.906-2.49A.839.839,0,0,0,317.7,23.115Z" transform="translate(-314.441 -22.942)" fill="#f86c3b"/>
    </g>
  </g>
  <g id="Group_2530" data-name="Group 2530" transform="translate(12.249 6.859)">
    <g id="Group_2529" data-name="Group 2529">
      <path id="Path_2334" data-name="Path 2334" d="M113.291,67.866l-2.721-1.557a.839.839,0,0,0-.833,1.456l2.721,1.557a.839.839,0,1,0,.833-1.456Z" transform="translate(-109.314 -66.198)" fill="#f86c3b"/>
    </g>
  </g>
  <g id="Group_2532" data-name="Group 2532" transform="translate(18.553 2.012)">
    <g id="Group_2531" data-name="Group 2531">
      <path id="Path_2335" data-name="Path 2335" d="M168.987,25.76l-1.906-2.489a.839.839,0,1,0-1.332,1.02l1.906,2.49a.839.839,0,0,0,1.332-1.02Z" transform="translate(-165.576 -22.942)" fill="#f86c3b"/>
    </g>
  </g>
</svg>
