<svg id="bank" xmlns="http://www.w3.org/2000/svg" width="53.786" height="53.786" viewBox="0 0 53.786 53.786">
  <path id="Path_2307" data-name="Path 2307" d="M53.185,25.15,37.65,19.713V8.068a.9.9,0,0,0-.221-.59L31.154.306A.9.9,0,0,0,30.479,0H.9A.9.9,0,0,0,0,.9V48.407a.9.9,0,0,0,.9.9H17.929V51.1a2.689,2.689,0,0,0,2.689,2.689H49.3A2.689,2.689,0,0,0,51.993,51.1V48.407a.9.9,0,0,0-.9-.9h-.9V44.822a.9.9,0,0,0-.9-.9V36.754a.9.9,0,0,0,.9-.9V33.168h.9a.9.9,0,0,0,.9-.9V30.479h.9a.9.9,0,0,0,.9-.9V26A.9.9,0,0,0,53.185,25.15ZM31.375,3.283l3.406,3.889H31.375ZM1.793,47.511V1.793H29.582V8.068a.9.9,0,0,0,.9.9h5.379V19.085l-.6-.21a.9.9,0,0,0-.592,0L16.736,25.15a.9.9,0,0,0-.6.846v3.586a.9.9,0,0,0,.9.9h.9v1.793a.9.9,0,0,0,.9.9h.9v2.689a.9.9,0,0,0,.9.9v7.171a.9.9,0,0,0-.9.9v2.689ZM30.479,33.168v2.689a.9.9,0,0,0,.9.9v7.171a.9.9,0,0,0-.9.9v2.689H28.686V44.822a.9.9,0,0,0-.9-.9V36.754a.9.9,0,0,0,.9-.9V33.168Zm10.757,0v2.689a.9.9,0,0,0,.9.9v7.171a.9.9,0,0,0-.9.9v2.689H39.443V44.822a.9.9,0,0,0-.9-.9V36.754a.9.9,0,0,0,.9-.9V33.168Zm-8.068,3.586h3.586v7.171H33.168Zm-.9,8.964H37.65v1.793H32.272ZM37.65,34.961H32.272V33.168H37.65ZM22.411,36.754H26v7.171H22.411Zm-.9,8.964h5.379v1.793H21.514Zm5.379-10.757H21.514V33.168h5.379ZM50.2,51.1a.9.9,0,0,1-.9.9H20.618a.9.9,0,0,1-.9-.9V49.3H50.2Zm-7.171-3.586V45.718h5.379v1.793Zm4.482-3.586H43.925V36.754h3.586Zm.9-8.964H43.029V33.168h5.379ZM50.2,31.375H19.722v-.9H50.2Zm1.793-2.689H17.929V26.633l17.032-5.961,17.032,5.961Zm0,0" fill="#f86c3b"/>
  <path id="Path_2308" data-name="Path 2308" d="M288,202.689A2.689,2.689,0,1,0,290.689,200,2.689,2.689,0,0,0,288,202.689Zm3.586,0a.9.9,0,1,1-.9-.9A.9.9,0,0,1,291.586,202.689Zm0,0" transform="translate(-255.728 -177.589)" fill="#f86c3b"/>
  <path id="Path_2309" data-name="Path 2309" d="M48.068,56.136A8.068,8.068,0,1,0,40,48.068,8.068,8.068,0,0,0,48.068,56.136Zm-4.334-3.542a2.667,2.667,0,0,1,2.541-1.837h3.586A2.667,2.667,0,0,1,52.4,52.594,6.245,6.245,0,0,1,43.734,52.594Zm2.541-5.422a1.793,1.793,0,1,1,1.793,1.793A1.793,1.793,0,0,1,46.275,47.171Zm1.793-5.379a6.269,6.269,0,0,1,5.538,9.218,4.432,4.432,0,0,0-2.549-1.867,3.586,3.586,0,1,0-5.979,0,4.433,4.433,0,0,0-2.549,1.868,6.269,6.269,0,0,1,5.538-9.219Zm0,0" transform="translate(-35.518 -35.518)" fill="#f86c3b"/>
  <path id="Path_2310" data-name="Path 2310" d="M240,96h1.793v1.793H240Zm0,0" transform="translate(-213.107 -85.243)" fill="#f86c3b"/>
  <path id="Path_2311" data-name="Path 2311" d="M272,96h3.586v1.793H272Zm0,0" transform="translate(-241.521 -85.243)" fill="#f86c3b"/>
  <path id="Path_2312" data-name="Path 2312" d="M240,128h7.171v1.793H240Zm0,0" transform="translate(-213.107 -113.657)" fill="#f86c3b"/>
  <path id="Path_2313" data-name="Path 2313" d="M32,200h2.689v1.793H32Zm0,0" transform="translate(-28.414 -177.589)" fill="#f86c3b"/>
  <path id="Path_2314" data-name="Path 2314" d="M72,200h6.275v1.793H72Zm0,0" transform="translate(-63.932 -177.589)" fill="#f86c3b"/>
  <path id="Path_2315" data-name="Path 2315" d="M32,232H42.757v1.793H32Zm0,0" transform="translate(-28.414 -206.003)" fill="#f86c3b"/>
  <path id="Path_2316" data-name="Path 2316" d="M32,264H42.757v1.793H32Zm0,0" transform="translate(-28.414 -234.418)" fill="#f86c3b"/>
  <path id="Path_2317" data-name="Path 2317" d="M32,296h1.793v1.793H32Zm0,0" transform="translate(-28.414 -262.832)" fill="#f86c3b"/>
  <path id="Path_2318" data-name="Path 2318" d="M64,296h7.171v1.793H64Zm0,0" transform="translate(-56.829 -262.832)" fill="#f86c3b"/>
  <path id="Path_2319" data-name="Path 2319" d="M32,328h3.586v1.793H32Zm0,0" transform="translate(-28.414 -291.246)" fill="#f86c3b"/>
  <path id="Path_2320" data-name="Path 2320" d="M80,328h5.379v1.793H80Zm0,0" transform="translate(-71.036 -291.246)" fill="#f86c3b"/>
</svg>
