<svg xmlns="http://www.w3.org/2000/svg" width="136.5" height="1172.626" viewBox="0 0 136.5 1172.626">
  <path id="Path_1140" data-name="Path 1140" d="M72.072,187.64a65.762,65.762,0,0,1-20.93-3.276,62.373,62.373,0,0,1-17.836-9.282,61.478,61.478,0,0,1-13.741-14.287,65.534,65.534,0,0,1-8.827-18.564,78.81,78.81,0,0,1,.091-44.044,70.941,70.941,0,0,1,9.009-19.11A64.89,64.89,0,0,1,33.67,64.153a60.692,60.692,0,0,1,17.745-9.646A62.764,62.764,0,0,1,72.072,51.14,64.32,64.32,0,0,1,91,53.87,57.263,57.263,0,0,1,107.2,61.7,56.114,56.114,0,0,1,119.847,73.89a51.094,51.094,0,0,1,8.1,16.016l-26.208,6.552A35.412,35.412,0,0,0,89.544,81.443a30.777,30.777,0,0,0-17.836-5.369A31.865,31.865,0,0,0,57.421,79.35a34.166,34.166,0,0,0-11.466,9.191A44.531,44.531,0,0,0,38.4,102.464a57.613,57.613,0,0,0-.091,34.762,40.424,40.424,0,0,0,7.553,13.559,33.5,33.5,0,0,0,26.208,11.921,32.617,32.617,0,0,0,18.291-5.187q7.917-5.187,12.649-15.2l26.208,6.552a53.281,53.281,0,0,1-12.1,20.566A56.62,56.62,0,0,1,97.37,182.908,65.7,65.7,0,0,1,72.072,187.64Zm136.136,0a70.355,70.355,0,0,1-21.658-3.276,63.886,63.886,0,0,1-18.473-9.373,62.216,62.216,0,0,1-14.2-14.56,68.823,68.823,0,0,1-9.191-18.837,72.712,72.712,0,0,1-3.276-22.022,73.6,73.6,0,0,1,3.276-22.113,67.082,67.082,0,0,1,9.282-18.928,63.823,63.823,0,0,1,14.287-14.56,65.66,65.66,0,0,1,18.473-9.464,69.2,69.2,0,0,1,21.84-3.367,70.355,70.355,0,0,1,21.658,3.276A63.886,63.886,0,0,1,248.7,63.789a62.215,62.215,0,0,1,14.2,14.56,68.823,68.823,0,0,1,9.191,18.837,72.713,72.713,0,0,1,3.276,22.022,73.6,73.6,0,0,1-3.276,22.113,67.081,67.081,0,0,1-9.282,18.928,63.823,63.823,0,0,1-14.287,14.56,65.66,65.66,0,0,1-18.473,9.464A69.2,69.2,0,0,1,208.208,187.64Zm.182-24.934a37.98,37.98,0,0,0,15.561-3.185,35.791,35.791,0,0,0,12.376-9.009,42.444,42.444,0,0,0,8.1-13.741,53.327,53.327,0,0,0,0-34.762,42.444,42.444,0,0,0-8.1-13.741,35.791,35.791,0,0,0-12.376-9.009,39.606,39.606,0,0,0-31.122,0,35.791,35.791,0,0,0-12.376,9.009,42.445,42.445,0,0,0-8.1,13.741,53.327,53.327,0,0,0,0,34.762,42.444,42.444,0,0,0,8.1,13.741,35.791,35.791,0,0,0,12.376,9.009A37.98,37.98,0,0,0,208.39,162.706ZM294.84,184V54.78h23.478L378.2,140.32V54.78H404.4V184H380.926L321.048,98.46V184Zm173.082,2.73a54.617,54.617,0,0,1-21.385-4.1,46.074,46.074,0,0,1-16.562-11.648,40.779,40.779,0,0,1-9.373-18.109l25.3-5.46a21.907,21.907,0,0,0,8.281,11.648,26.04,26.04,0,0,0,24.388,2.093,16.638,16.638,0,0,0,6.916-5.733,14.61,14.61,0,0,0,2.457-8.372,11.993,11.993,0,0,0-4.55-9.737q-4.55-3.731-14.742-6.1l-5.824-1.274q-20.02-4.368-29.484-14.105a32.8,32.8,0,0,1-9.464-23.751,36.849,36.849,0,0,1,3.458-16.016,38.978,38.978,0,0,1,9.555-12.649,44.607,44.607,0,0,1,14.287-8.372,50.89,50.89,0,0,1,17.654-3,50,50,0,0,1,20.02,4A42.293,42.293,0,0,1,504.5,67.52a39.423,39.423,0,0,1,8.554,17.654l-24.934,5.46A20.116,20.116,0,0,0,468.1,75.528a19.853,19.853,0,0,0-8.827,1.911,15.5,15.5,0,0,0-6.188,5.278,13.186,13.186,0,0,0-2.275,7.553,11.075,11.075,0,0,0,4.914,9.737q4.914,3.367,14.56,5.551l5.824,1.274q19.838,4.368,29.393,13.832t9.555,24.206a39.706,39.706,0,0,1-3.549,16.926,40.179,40.179,0,0,1-9.919,13.286,44.437,44.437,0,0,1-14.924,8.645A56.246,56.246,0,0,1,467.922,186.73Zm118.118.91a63.574,63.574,0,0,1-22.932-3.913,48.782,48.782,0,0,1-17.472-11.284,50.159,50.159,0,0,1-11.193-17.654,64.315,64.315,0,0,1-3.913-23.023V54.78h27.118v75.712a39.5,39.5,0,0,0,3.458,17.108,25.513,25.513,0,0,0,9.919,11.193,28.765,28.765,0,0,0,15.2,3.913,28.29,28.29,0,0,0,15.106-3.913,26.274,26.274,0,0,0,9.919-11.193,38.634,38.634,0,0,0,3.549-17.108V54.78h27.118v76.986A64.315,64.315,0,0,1,638,154.789a48.731,48.731,0,0,1-28.938,28.938A64.314,64.314,0,0,1,586.04,187.64ZM663.754,184V54.78h27.118v105.2h52.78V184Zm138.866,2.73a54.617,54.617,0,0,1-21.385-4.1,46.074,46.074,0,0,1-16.562-11.648,40.78,40.78,0,0,1-9.373-18.109l25.3-5.46a21.907,21.907,0,0,0,8.281,11.648,26.04,26.04,0,0,0,24.388,2.093,16.638,16.638,0,0,0,6.916-5.733,14.61,14.61,0,0,0,2.457-8.372,11.993,11.993,0,0,0-4.55-9.737q-4.55-3.731-14.742-6.1l-5.824-1.274q-20.02-4.368-29.484-14.105a32.8,32.8,0,0,1-9.464-23.751,36.848,36.848,0,0,1,3.458-16.016,38.979,38.979,0,0,1,9.555-12.649,44.608,44.608,0,0,1,14.287-8.372,50.89,50.89,0,0,1,17.654-3,50,50,0,0,1,20.02,4A42.292,42.292,0,0,1,839.2,67.52a39.423,39.423,0,0,1,8.554,17.654l-24.934,5.46A20.116,20.116,0,0,0,802.8,75.528a19.853,19.853,0,0,0-8.827,1.911,15.5,15.5,0,0,0-6.188,5.278,13.186,13.186,0,0,0-2.275,7.553,11.075,11.075,0,0,0,4.914,9.737q4.914,3.367,14.56,5.551l5.824,1.274q19.838,4.368,29.393,13.832t9.555,24.206a39.705,39.705,0,0,1-3.549,16.926,40.179,40.179,0,0,1-9.919,13.286,44.437,44.437,0,0,1-14.924,8.645A56.247,56.247,0,0,1,802.62,186.73ZM896.9,184V78.8H860.5V54.78h99.918V78.8h-36.4V184Zm57.876,0L1006.1,54.78h28.756L1086.358,184h-27.846l-10.556-28.392H992.082L981.526,184Zm45.864-51.324H1039.4L1019.928,81.17ZM1101.1,184V54.78h79.17V78.44h-52.78v31.85h46.956v23.478H1127.49V184Z" transform="translate(187.64 -7.644) rotate(90)" fill="#034e6f" opacity="0.09"/>
</svg>
