<svg xmlns="http://www.w3.org/2000/svg" width="19.392" height="25.923" viewBox="0 0 19.392 25.923"><path d="M77.327,9.158a2.911,2.911,0,0,0,3.544,2.1,2.421,2.421,0,0,0,.9-.442c.067-.012.133-.025.2-.042a2.548,2.548,0,0,0,1.834-3.1.525.525,0,1,0-1.017.26,1.487,1.487,0,0,1-.082.976,2.43,2.43,0,0,0-.076-.618,2.056,2.056,0,0,0-2.5-1.48,1.747,1.747,0,0,0-1.259,2.126A.522.522,0,0,0,78.889,9a2.523,2.523,0,0,0,.788,1.233A1.864,1.864,0,0,1,78.344,8.9a2.463,2.463,0,0,1,1.566-2.93,6.349,6.349,0,0,1,1.309-.239.525.525,0,1,0-.08-1.047,7.43,7.43,0,0,0-1.207.193.537.537,0,0,0-.076.013c-.085.022-.168.047-.25.075a7.276,7.276,0,0,0-3.474,2.253,7.353,7.353,0,0,0-1.116,1.747A6.462,6.462,0,0,0,73.829,7a6.537,6.537,0,0,0-.836-.8A3.553,3.553,0,0,0,73.118.568.525.525,0,0,0,72.6.488a3.576,3.576,0,0,0-1.021.606A4.261,4.261,0,0,0,68.725,0h-.014a.525.525,0,0,0-.453.263,4.3,4.3,0,0,0-.571,2.3,4.657,4.657,0,0,0-3.046,1.371.525.525,0,0,0-.135.506,4.68,4.68,0,0,0,1.955,2.7,4.3,4.3,0,0,0-.656,2.28.525.525,0,0,0,.261.454,4.262,4.262,0,0,0,3.032.486A3.574,3.574,0,0,0,69.68,11.4a.525.525,0,0,0,.489.189,3.553,3.553,0,0,0,3-3.75,5.377,5.377,0,0,1,1.217,3.651q-.018.269-.016.541a2.888,2.888,0,0,0-1.834,1.179,2.883,2.883,0,1,0-2.616,4.528,2.882,2.882,0,0,0,2.36,4.085,2.884,2.884,0,1,0,5.23,0,2.882,2.882,0,0,0,2.36-4.085,2.884,2.884,0,1,0-2.616-4.528,2.888,2.888,0,0,0-1.834-1.179q0-.17.006-.338s0-.006,0-.009c0-.037,0-.074.006-.111A6.23,6.23,0,0,1,76.93,7.9q.182-.212.379-.4A3.486,3.486,0,0,0,77.327,9.158Zm2.634-1.006a.693.693,0,0,1,.427-.32,1,1,0,0,1,1.221.723A1.384,1.384,0,0,1,81.315,9.8a1.5,1.5,0,0,1-1.427-1.124c0-.01-.006-.019-.009-.028A.692.692,0,0,1,79.961,8.152ZM72.03,5.565a6.453,6.453,0,0,0-2.644-.752.525.525,0,1,0-.068,1.048,5.406,5.406,0,0,1,2.261.655l0,.005a2.506,2.506,0,0,1-1.268,3.963,2.529,2.529,0,0,1-.334-.863.525.525,0,0,0-.692-.4,3.212,3.212,0,0,1-2.418-.108,3.242,3.242,0,0,1,.762-1.8A.525.525,0,0,0,67.46,6.5a3.625,3.625,0,0,1-1.846-2.039,3.607,3.607,0,0,1,2.618-.846A.525.525,0,0,0,68.789,3a3.241,3.241,0,0,1,.236-1.936,3.213,3.213,0,0,1,2.149,1.115.525.525,0,0,0,.4.184h0a.525.525,0,0,0,.4-.183,2.53,2.53,0,0,1,.721-.58,2.5,2.5,0,0,1-.663,3.966ZM70.173,16.7a1.834,1.834,0,1,1,1.834-1.834A1.836,1.836,0,0,1,70.173,16.7Zm2.359,4.085a1.834,1.834,0,1,1,1.834-1.834A1.836,1.836,0,0,1,72.532,20.786Zm2.359,4.087a1.834,1.834,0,1,1,1.834-1.834A1.836,1.836,0,0,1,74.891,24.873Zm4.718-11.84a1.834,1.834,0,1,1-1.834,1.834A1.836,1.836,0,0,1,79.609,13.033ZM77.25,17.118a1.834,1.834,0,1,1-1.834,1.834A1.836,1.836,0,0,1,77.25,17.118Zm-.525-2.251a1.834,1.834,0,1,1-1.834-1.834A1.836,1.836,0,0,1,76.725,14.867Z" transform="translate(-64.489)" fill="#003242"/></svg>