<svg xmlns="http://www.w3.org/2000/svg" viewBox="0 0 29.57 27.599"><path d="M16.986,152.062h3.943v-.986H16.986v-2.618l4.612-1.774-.354-.92-4.928,1.9a.493.493,0,0,0-.316.46v4.928h.986Z" transform="translate(-16 -138.756)" fill="#003242"/><path d="M44.584,265.478H38.67a.493.493,0,0,0-.493.493v3.943a.493.493,0,0,0,.493.493h5.914v5.2L38.847,273.4a.493.493,0,0,0-.35,0l-5.248,1.968v-2.492a.493.493,0,0,0-.232-.418l-3.943-2.464a.493.493,0,0,0-.261-.075H26.842a.493.493,0,0,0-.493.493v4.217l-2.957-1.109v-3.108a.493.493,0,0,0-.493-.493H16.986v-2.957h7.885a.493.493,0,0,0,.493-.493V264h-.986v1.971H16.986v-.986H16v11.828a.493.493,0,0,0,.7.447l6.22-2.871,7.693,2.885a.493.493,0,0,0,.346,0l7.71-2.891,6.232,2.4a.493.493,0,0,0,.67-.46V264.493h-.986Zm-27.6,5.421h5.421v2.642l-5.421,2.5Zm13.8,5.388-3.45-1.294V270.9h1.337l3.591,2.245v2.589Zm8.378-6.866v-2.957h5.421v2.957Z" transform="translate(-16 -249.708)" fill="#003242"/><path d="M232.933,138.5l-6.407-2.464a.493.493,0,0,0-.324-.01l-7.738,2.418-1.331-.416-.294.941,1.479.462a.493.493,0,0,0,.294,0l3.3-1.032v9.99l-3.669-2.446a.493.493,0,0,0-.273-.083h-.986v-1.971H216v2.464a.493.493,0,0,0,.493.493h1.329l4.311,2.874a.493.493,0,0,0,.766-.41V138.087l2.957-.924v4.751a.493.493,0,0,0,.493.493h5.914v.986h.986v-4.435a.493.493,0,0,0-.316-.46Zm-6.091,2.924v-4.211l5.421,2.085v2.126Z" transform="translate(-203.679 -129.593)" fill="#003242"/><path d="M106.526,41.592c-1.26.327-2.034.97-2.034,1.743,0,.35.17,1.01,1.309,1.5a7.569,7.569,0,0,0,5.267,0c1.139-.488,1.309-1.148,1.309-1.5,0-.78-.761-1.418-2.033-1.744.146-.169.3-.348.446-.536a7.844,7.844,0,0,0,2.079-4.62,4.435,4.435,0,1,0-8.871,0,7.844,7.844,0,0,0,2.079,4.62C106.23,41.244,106.38,41.423,106.526,41.592Zm4.866,1.743c0,.347-1.123.986-2.957.986s-2.957-.638-2.957-.986c0-.26.647-.709,1.825-.9.459.47.784.756.807.776a.493.493,0,0,0,.649,0c.023-.021.349-.306.807-.777C110.855,42.642,111.392,43.117,111.392,43.335Zm-2.957-10.349a3.454,3.454,0,0,1,3.45,3.45,7.033,7.033,0,0,1-1.854,3.992,18.338,18.338,0,0,1-1.6,1.742,18.309,18.309,0,0,1-1.586-1.73,7.048,7.048,0,0,1-1.863-4A3.454,3.454,0,0,1,108.435,32.986Z" transform="translate(-98.579 -32)" fill="#003242"/><path d="M145.971,75.943A1.971,1.971,0,1,0,144,73.971,1.971,1.971,0,0,0,145.971,75.943Zm0-2.957a.986.986,0,1,1-.986.986A.986.986,0,0,1,145.971,72.986Z" transform="translate(-136.115 -69.536)" fill="#003242"/></svg>