<svg id="whatsapp" xmlns="http://www.w3.org/2000/svg" width="47.377" height="47.377"><path id="Path_2280" data-name="Path 2280" d="M23.688 0a23.688 23.688 0 1023.689 23.688A23.691 23.691 0 0023.688 0zm.5 37.481h-.006a14.172 14.172 0 01-6.776-1.725l-7.513 1.97 2.007-7.344a14.179 14.179 0 1112.286 7.1zm0 0"/><path id="Path_2281" data-name="Path 2281" d="M145.86 124.469a11.786 11.786 0 00-9.987 18.049l.28.446-1.191 4.347 4.46-1.17.43.255a11.765 11.765 0 006 1.642 11.785 11.785 0 00.005-23.569zm6.931 16.844A3.65 3.65 0 01150.4 143a4.862 4.862 0 01-2.231-.14 20.461 20.461 0 01-2.02-.746 15.791 15.791 0 01-6.052-5.347 6.888 6.888 0 01-1.447-3.664 3.971 3.971 0 011.24-2.954 1.3 1.3 0 01.945-.443c.236 0 .472 0 .679.012s.51-.083.8.608c.3.709 1 2.452 1.092 2.629a.653.653 0 01.03.621 10.1 10.1 0 01-.886 1.211c-.157.195-.362.368-.155.723a10.678 10.678 0 001.971 2.453 9.684 9.684 0 002.849 1.758c.354.177.561.147.767-.089s.886-1.034 1.122-1.389.472-.3.8-.177 2.066.975 2.421 1.152.59.266.679.414a2.954 2.954 0 01-.213 1.681zm0 0" transform="translate(-121.664 -112.951)"/></svg>