<svg xmlns="http://www.w3.org/2000/svg" width="390.236" height="167.531"><path d="M111.782 133.261c11.52 0 16.98-5.76 16.98-12.48 0-15.42-24.9-9.6-24.9-18.54 0-3.18 2.64-5.7 9.12-5.7a23.34 23.34 0 0111.58 3.3l2.46-6.06c-3.66-2.4-8.94-3.72-13.98-3.72-11.52 0-16.92 5.76-16.92 12.54 0 15.6 24.96 9.66 24.96 18.72 0 3.12-2.76 5.46-9.3 5.46a23.272 23.272 0 01-13.86-4.62l-2.7 6.06c3.48 3 10.02 5.04 16.56 5.04zm34.14-.6h7.8v-35.4h13.92v-6.6h-35.64v6.6h13.92zm58.44 0h8.16l-18.96-42h-7.68l-18.9 42h8.04l4.14-9.72h21zm-22.56-15.84l7.86-18.36 7.92 18.36zm68.22-19.62v-6.54h-30.66v42h7.8v-16.08h20.28v-6.6h-20.28v-12.78zm39.72 0v-6.54h-30.66v42h7.8v-16.08h20.28v-6.6h-20.28v-12.78zm-171.42-25.512c6.9 0 12.78-2.46 16.68-7.02l-5.04-4.8a14.6 14.6 0 01-11.22 4.98c-8.7 0-15-6.12-15-14.76s6.3-14.76 15-14.76a14.75 14.75 0 0111.22 4.92l5.04-4.74c-3.9-4.56-9.78-7.02-16.62-7.02-12.9 0-22.5 9.06-22.5 21.6s9.6 21.6 22.44 21.6zm44.82 0c13.02 0 22.62-9.12 22.62-21.6s-9.6-21.6-22.62-21.6-22.62 9.18-22.62 21.6 9.6 21.6 22.62 21.6zm0-6.84a14.313 14.313 0 01-14.76-14.76 14.313 14.313 0 0114.76-14.76 14.313 14.313 0 0114.76 14.76 14.313 14.313 0 01-14.76 14.76zm61.98-35.76v28.44l-23.16-28.44h-6.42v42h7.74v-28.44l23.16 28.44h6.42v-42zm33.54 42.6c11.52 0 16.98-5.76 16.98-12.48 0-15.42-24.9-9.6-24.9-18.54 0-3.18 2.64-5.7 9.12-5.7a23.34 23.34 0 0111.58 3.3l2.46-6.06c-3.66-2.4-8.94-3.72-13.98-3.72-11.52 0-16.92 5.76-16.92 12.54 0 15.6 24.96 9.66 24.96 18.72 0 3.12-2.76 5.46-9.3 5.46a23.272 23.272 0 01-13.86-4.62l-2.7 6.06c3.48 3 10.02 5.04 16.56 5.04zm44.28 0c11.46 0 18.36-6.66 18.36-18.9v-23.7h-7.68v23.4c0 8.64-3.84 12.36-10.62 12.36s-10.68-3.72-10.68-12.36v-23.4h-7.8v23.7c0 12.24 6.9 18.9 18.42 18.9zm30.78-.6h29.76v-6.6h-21.96v-35.4h-7.8z"/><path d="M45.914 124.958L.5 84.116V22.329l45.414 40.842z" fill="#ff0038" stroke="#fff"/><path d="M68.815 1.123L23.401 41.965v61.787L68.815 62.91z" fill="#f1af40" stroke="#fff"/><path d="M45.914 166.409L.5 125.567V63.78l45.414 40.842z" fill="#003242" stroke="#fff"/><path d="M68.815 42.575L23.401 83.417v61.787l45.414-40.841z" fill="#004f6f" stroke="#fff"/><path fill="#ff0038" d="M322.862 134.874h67.374v3.974h-67.374z"/></svg>