<svg xmlns="http://www.w3.org/2000/svg" width="324.915" height="85.87" viewBox="0 0 324.915 85.87">
  <g id="Group_2553" data-name="Group 2553" transform="translate(-77.159 -27.522)">
    <g id="Group_2455" data-name="Group 2455" transform="translate(129.836 55.628)">
      <path id="Path_1322" data-name="Path 1322" d="M9.945,17.93a18.565,18.565,0,0,1-5.441-.8A11.355,11.355,0,0,1,.35,15.01L1.914,11.5a12.323,12.323,0,0,0,3.668,1.929,13.336,13.336,0,0,0,4.363.747,7.539,7.539,0,0,0,4.05-.869,2.633,2.633,0,0,0,1.338-2.294,2.222,2.222,0,0,0-.747-1.721,5.247,5.247,0,0,0-1.895-1.06q-1.147-.382-3.129-.869a36.472,36.472,0,0,1-4.5-1.321A7.409,7.409,0,0,1,2.106,3.972,5.572,5.572,0,0,1,.871.166,6.493,6.493,0,0,1,1.967-3.5a7.41,7.41,0,0,1,3.3-2.625A13.38,13.38,0,0,1,10.675-7.1a17.46,17.46,0,0,1,4.38.556,12.108,12.108,0,0,1,3.72,1.6L17.35-1.433a14.061,14.061,0,0,0-3.337-1.425,12.484,12.484,0,0,0-3.372-.487,7.044,7.044,0,0,0-3.98.9,2.788,2.788,0,0,0-1.3,2.4,2.169,2.169,0,0,0,.747,1.7A5.4,5.4,0,0,0,8,2.7q1.147.382,3.129.869a32.923,32.923,0,0,1,4.45,1.3,7.62,7.62,0,0,1,2.972,2.068A5.451,5.451,0,0,1,19.783,10.7a6.411,6.411,0,0,1-1.1,3.65,7.449,7.449,0,0,1-3.32,2.607A13.507,13.507,0,0,1,9.945,17.93ZM29.726-2.928H21.66V-6.752H42.31v3.824H34.245V17.582H29.726ZM61.152,11.951H48.985l-2.4,5.632H41.928L52.879-6.752h4.45L68.314,17.582H63.586ZM59.658,8.4,55.069-2.233,50.515,8.4ZM76.8-2.963v7.4h11.75V8.266H76.8v9.317H72.277V-6.752H90.041v3.789Zm23.014,0v7.4h11.75V8.266H99.81v9.317H95.291V-6.752h17.764v3.789Z" transform="translate(159.182 7.1)" fill="#fff"/>
      <path id="Path_1323" data-name="Path 1323" d="M13.462,17.93A13.7,13.7,0,0,1,6.8,16.314a11.917,11.917,0,0,1-4.658-4.467A12.392,12.392,0,0,1,.46,5.415a12.3,12.3,0,0,1,1.7-6.431A12.041,12.041,0,0,1,6.839-5.483,13.7,13.7,0,0,1,13.5-7.1a13.886,13.886,0,0,1,5.458,1.043,11.132,11.132,0,0,1,4.172,3.024L20.206-.286a8.516,8.516,0,0,0-6.5-2.851,9.115,9.115,0,0,0-4.485,1.1A7.889,7.889,0,0,0,6.127,1,8.739,8.739,0,0,0,5.014,5.415,8.739,8.739,0,0,0,6.127,9.83a7.889,7.889,0,0,0,3.094,3.042,9.115,9.115,0,0,0,4.485,1.1,8.47,8.47,0,0,0,6.5-2.885l2.92,2.781a11.1,11.1,0,0,1-4.189,3.024A14.014,14.014,0,0,1,13.462,17.93Zm25.969,0a13.877,13.877,0,0,1-6.709-1.617,11.971,11.971,0,0,1-4.693-4.485,12.321,12.321,0,0,1-1.7-6.414A12.321,12.321,0,0,1,28.028-1a11.971,11.971,0,0,1,4.693-4.485A13.877,13.877,0,0,1,39.431-7.1,13.877,13.877,0,0,1,46.14-5.483a12.01,12.01,0,0,1,4.693,4.467,12.3,12.3,0,0,1,1.7,6.431,12.3,12.3,0,0,1-1.7,6.431,12.01,12.01,0,0,1-4.693,4.467A13.877,13.877,0,0,1,39.431,17.93Zm0-3.963a8.778,8.778,0,0,0,4.38-1.1A7.92,7.92,0,0,0,46.87,9.813a8.766,8.766,0,0,0,1.112-4.4,8.766,8.766,0,0,0-1.112-4.4,7.92,7.92,0,0,0-3.059-3.059,9.308,9.308,0,0,0-8.761,0,7.92,7.92,0,0,0-3.059,3.059,8.766,8.766,0,0,0-1.112,4.4,8.766,8.766,0,0,0,1.112,4.4,7.92,7.92,0,0,0,3.059,3.059A8.778,8.778,0,0,0,39.431,13.967Zm40.4-20.719V17.582h-3.72L62.688,1.1V17.582H58.2V-6.752h3.72L75.342,9.726V-6.752ZM94.775,17.93a18.565,18.565,0,0,1-5.441-.8A11.355,11.355,0,0,1,85.18,15.01L86.744,11.5a12.323,12.323,0,0,0,3.668,1.929,13.336,13.336,0,0,0,4.363.747,7.539,7.539,0,0,0,4.05-.869,2.633,2.633,0,0,0,1.338-2.294,2.222,2.222,0,0,0-.747-1.721,5.247,5.247,0,0,0-1.895-1.06q-1.147-.382-3.129-.869a36.472,36.472,0,0,1-4.5-1.321,7.409,7.409,0,0,1-2.955-2.068A5.572,5.572,0,0,1,85.7.166,6.493,6.493,0,0,1,86.8-3.5a7.41,7.41,0,0,1,3.3-2.625A13.38,13.38,0,0,1,95.5-7.1a17.46,17.46,0,0,1,4.38.556,12.108,12.108,0,0,1,3.72,1.6L102.18-1.433a14.062,14.062,0,0,0-3.337-1.425,12.484,12.484,0,0,0-3.372-.487,7.044,7.044,0,0,0-3.98.9,2.788,2.788,0,0,0-1.3,2.4,2.169,2.169,0,0,0,.747,1.7A5.4,5.4,0,0,0,92.828,2.7q1.147.382,3.129.869a32.924,32.924,0,0,1,4.45,1.3,7.621,7.621,0,0,1,2.972,2.068,5.451,5.451,0,0,1,1.234,3.755,6.411,6.411,0,0,1-1.1,3.65,7.449,7.449,0,0,1-3.32,2.607A13.507,13.507,0,0,1,94.775,17.93Zm25.656,0q-5.041,0-7.857-2.833t-2.816-8.117V-6.752h4.519V6.806q0,7.161,6.188,7.161,6.153,0,6.153-7.161V-6.752h4.45V6.979q0,5.284-2.8,8.117T120.431,17.93ZM138.265-6.752h4.519V13.758h12.724v3.824H138.265Z" transform="translate(-0.46 7.13)" fill="#fff"/>
    </g>
    <g id="Group_2456" data-name="Group 2456" transform="translate(-63 -593)">
      <path id="Path_20" data-name="Path 20" d="M163.636,695.7,140.659,675.04V643.779l22.977,20.664Z" transform="translate(0 -11.406)" fill="#ff0038" stroke="#fff" stroke-width="1"/>
      <path id="Path_21" data-name="Path 21" d="M187.541,621.644l-22.977,20.664v31.261L187.541,652.9Z" transform="translate(-12.319)" fill="#f1af40" stroke="#fff" stroke-width="1"/>
      <path id="Path_22" data-name="Path 22" d="M163.636,738.972l-22.977-20.664V687.047l22.977,20.664Z" transform="translate(0 -33.702)" fill="#003242" stroke="#fff" stroke-width="1"/>
      <path id="Path_23" data-name="Path 23" d="M187.541,664.912l-22.977,20.664v31.261l22.977-20.664Z" transform="translate(-12.319 -22.296)" fill="#004f6f" stroke="#fff" stroke-width="1"/>
    </g>
  </g>
</svg>
