<svg id="Group_1777" data-name="Group 1777" xmlns="http://www.w3.org/2000/svg" width="150.275" height="13.833" viewBox="0 0 150.275 13.833">
  <path id="Path_1322" data-name="Path 1322" d="M5.646,6.717a10.248,10.248,0,0,1-3-.441A6.268,6.268,0,0,1,.35,5.1l.864-1.938A6.8,6.8,0,0,0,3.238,4.232a7.361,7.361,0,0,0,2.408.413,4.162,4.162,0,0,0,2.236-.48A1.453,1.453,0,0,0,8.621,2.9a1.226,1.226,0,0,0-.413-.95,2.9,2.9,0,0,0-1.046-.585q-.633-.211-1.727-.48A20.132,20.132,0,0,1,2.95.154,4.09,4.09,0,0,1,1.319-.988a3.076,3.076,0,0,1-.681-2.1,3.584,3.584,0,0,1,.6-2.025A4.09,4.09,0,0,1,3.065-6.563,7.386,7.386,0,0,1,6.049-7.1a9.638,9.638,0,0,1,2.418.307,6.683,6.683,0,0,1,2.053.883L9.734-3.972a7.762,7.762,0,0,0-1.842-.787A6.891,6.891,0,0,0,6.03-5.028a3.888,3.888,0,0,0-2.2.5A1.539,1.539,0,0,0,3.113-3.2a1.2,1.2,0,0,0,.413.94,2.981,2.981,0,0,0,1.046.576q.633.211,1.727.48a18.174,18.174,0,0,1,2.456.72A4.207,4.207,0,0,1,10.4.653a3.009,3.009,0,0,1,.681,2.072,3.539,3.539,0,0,1-.6,2.015A4.112,4.112,0,0,1,8.64,6.179,7.456,7.456,0,0,1,5.646,6.717ZM16.565-4.8H12.113V-6.908h11.4V-4.8H19.06V6.525H16.565ZM33.913,3.416H27.2L25.872,6.525H23.3L29.346-6.908H31.8L37.866,6.525h-2.61Zm-.825-1.957L30.555-4.413,28.041,1.459Zm9.461-6.275V-.729h6.486V1.382H42.548V6.525H40.054V-6.908h9.806v2.092Zm12.7,0V-.729h6.486V1.382H55.252V6.525H52.757V-6.908h9.806v2.092Z" transform="translate(87.712 7.1)"/>
  <path id="Path_1323" data-name="Path 1323" d="M7.637,6.717a7.565,7.565,0,0,1-3.675-.892A6.578,6.578,0,0,1,1.391,3.358,6.841,6.841,0,0,1,.46-.192a6.787,6.787,0,0,1,.94-3.55A6.647,6.647,0,0,1,3.981-6.208,7.565,7.565,0,0,1,7.656-7.1a7.665,7.665,0,0,1,3.013.576,6.145,6.145,0,0,1,2.3,1.67L11.36-3.339A4.7,4.7,0,0,0,7.771-4.912a5.031,5.031,0,0,0-2.475.6A4.355,4.355,0,0,0,3.588-2.629,4.824,4.824,0,0,0,2.974-.192a4.824,4.824,0,0,0,.614,2.437A4.355,4.355,0,0,0,5.3,3.924a5.031,5.031,0,0,0,2.475.6A4.675,4.675,0,0,0,11.36,2.936l1.612,1.535a6.129,6.129,0,0,1-2.312,1.67A7.736,7.736,0,0,1,7.637,6.717Zm14.335,0a7.66,7.66,0,0,1-3.7-.892,6.608,6.608,0,0,1-2.591-2.475,6.8,6.8,0,0,1-.94-3.541,6.8,6.8,0,0,1,.94-3.541,6.608,6.608,0,0,1,2.591-2.475,7.66,7.66,0,0,1,3.7-.892,7.66,7.66,0,0,1,3.7.892,6.629,6.629,0,0,1,2.591,2.466,6.787,6.787,0,0,1,.94,3.55,6.787,6.787,0,0,1-.94,3.55,6.629,6.629,0,0,1-2.591,2.466A7.66,7.66,0,0,1,21.972,6.717Zm0-2.188a4.846,4.846,0,0,0,2.418-.6,4.372,4.372,0,0,0,1.689-1.689,4.839,4.839,0,0,0,.614-2.428,4.839,4.839,0,0,0-.614-2.427A4.372,4.372,0,0,0,24.39-4.308a4.846,4.846,0,0,0-2.418-.6,4.846,4.846,0,0,0-2.418.6,4.372,4.372,0,0,0-1.689,1.689,4.839,4.839,0,0,0-.614,2.427,4.839,4.839,0,0,0,.614,2.428,4.372,4.372,0,0,0,1.689,1.689A4.846,4.846,0,0,0,21.972,4.529ZM44.27-6.908V6.525H42.217l-7.407-9.1v9.1H32.334V-6.908h2.053l7.407,9.1v-9.1ZM52.522,6.717a10.248,10.248,0,0,1-3-.441A6.268,6.268,0,0,1,47.225,5.1l.864-1.938a6.8,6.8,0,0,0,2.025,1.065,7.361,7.361,0,0,0,2.408.413,4.162,4.162,0,0,0,2.236-.48A1.453,1.453,0,0,0,55.5,2.9a1.226,1.226,0,0,0-.413-.95,2.9,2.9,0,0,0-1.046-.585q-.633-.211-1.727-.48A20.132,20.132,0,0,1,49.826.154,4.09,4.09,0,0,1,48.194-.988a3.076,3.076,0,0,1-.681-2.1,3.584,3.584,0,0,1,.6-2.025,4.09,4.09,0,0,1,1.823-1.449A7.386,7.386,0,0,1,52.925-7.1a9.638,9.638,0,0,1,2.418.307A6.683,6.683,0,0,1,57.4-5.91l-.787,1.938a7.762,7.762,0,0,0-1.842-.787,6.891,6.891,0,0,0-1.861-.269,3.888,3.888,0,0,0-2.2.5,1.539,1.539,0,0,0-.72,1.324,1.2,1.2,0,0,0,.413.94,2.981,2.981,0,0,0,1.046.576q.633.211,1.727.48a18.174,18.174,0,0,1,2.456.72A4.206,4.206,0,0,1,57.271.653a3.009,3.009,0,0,1,.681,2.072,3.539,3.539,0,0,1-.6,2.015,4.112,4.112,0,0,1-1.833,1.439A7.456,7.456,0,0,1,52.522,6.717Zm14.162,0a5.842,5.842,0,0,1-4.337-1.564A6.086,6.086,0,0,1,60.792.672v-7.58h2.495V.576q0,3.953,3.416,3.953,3.4,0,3.4-3.953V-6.908h2.456V.672a6.109,6.109,0,0,1-1.545,4.481A5.808,5.808,0,0,1,66.684,6.717ZM76.528-6.908h2.495V4.414h7.023V6.525H76.528Z" transform="translate(-0.46 7.116)"/>
</svg>
