<svg xmlns="http://www.w3.org/2000/svg" viewBox="0 0 30.739 22.542"><g transform="translate(0 0)"><g transform="translate(0 0)"><path d="M78.362,322.947H76.312a.484.484,0,0,0-.512.512v3.074a.484.484,0,0,0,.512.512h2.049a.484.484,0,0,0,.512-.512v-3.074A.484.484,0,0,0,78.362,322.947Zm-.512,3.074H76.825v-2.049h1.025v2.049Z" transform="translate(-71.189 -311.676)" fill="#003242"/><path d="M78.362,408.28H76.312a.484.484,0,0,0-.512.512v3.074a.484.484,0,0,0,.512.512h2.049a.484.484,0,0,0,.512-.512v-3.074A.484.484,0,0,0,78.362,408.28Zm-.512,3.074H76.825V409.3h1.025v2.049Z" transform="translate(-71.189 -391.886)" fill="#003242"/><path d="M385.563,322.947h-2.049a.484.484,0,0,0-.512.512v3.074a.484.484,0,0,0,.512.512h2.049a.484.484,0,0,0,.512-.512v-3.074A.484.484,0,0,0,385.563,322.947Zm-.512,3.074h-1.025v-2.049h1.025Z" transform="translate(-359.946 -311.676)" fill="#003242"/><path d="M385.563,408.28h-2.049a.484.484,0,0,0-.512.512v3.074a.484.484,0,0,0,.512.512h2.049a.484.484,0,0,0,.512-.512v-3.074A.484.484,0,0,0,385.563,408.28Zm-.512,3.074h-1.025V409.3h1.025Z" transform="translate(-359.946 -391.886)" fill="#003242"/><path d="M187.246,174.47H189.3a.484.484,0,0,0,.512-.512v-4.1a.484.484,0,0,0-.512-.512h-2.049a.484.484,0,0,0-.512.512v4.1A.484.484,0,0,0,187.246,174.47Zm.512-4.1h1.025v3.074h-1.025Z" transform="translate(-175.463 -167.298)" fill="#003242"/><path d="M272.579,174.47h2.049a.484.484,0,0,0,.512-.512v-4.1a.484.484,0,0,0-.512-.512h-2.049a.484.484,0,0,0-.512.512v4.1A.484.484,0,0,0,272.579,174.47Zm.512-4.1h1.025v3.074h-1.025Z" transform="translate(-255.673 -167.298)" fill="#003242"/><path d="M272.579,276.87h2.049a.484.484,0,0,0,.512-.512v-4.1a.484.484,0,0,0-.512-.512h-2.049a.484.484,0,0,0-.512.512v4.1A.484.484,0,0,0,272.579,276.87Zm.512-4.1h1.025v3.074h-1.025Z" transform="translate(-255.673 -263.55)" fill="#003242"/><path d="M189.3,276.87a.484.484,0,0,0,.512-.512v-4.1a.484.484,0,0,0-.512-.512h-2.049a.484.484,0,0,0-.512.512v4.1a.484.484,0,0,0,.512.512Zm-1.537-4.1h1.025v3.074h-1.025Z" transform="translate(-175.463 -263.55)" fill="#003242"/><path d="M29.228,156.732H27.691V144.948a.484.484,0,0,0-.512-.512h-6.66v-8.71a.484.484,0,0,0-.512-.512H8.735a.484.484,0,0,0-.512.512v8.71H1.563a.484.484,0,0,0-.512.512v11.783H-.487a.484.484,0,0,0-.512.512.484.484,0,0,0,.512.512H29.228a.512.512,0,0,0,0-1.025ZM2.075,145.46H8.223v11.271H2.075Zm7.173-.512v-8.71H19.494v20.493H16.42v-4.611a.484.484,0,0,0-.512-.512H12.834a.484.484,0,0,0-.512.512v4.611H9.247V144.948Zm4.1,11.783v-4.1H15.4v4.1Zm7.173-11.271h6.148v11.271H20.519Z" transform="translate(0.999 -135.214)" fill="#003242"/></g></g></svg>