<svg xmlns="http://www.w3.org/2000/svg" width="21.122" height="21.122" viewBox="0 0 21.122 21.122"><path d="M18.678,10.268a.984.984,0,0,0-1.386,0l-4.844,4.859a.979.979,0,0,0-.03,1.351l4.773,4.788a.978.978,0,1,0,1.386-1.381l-4.052-4.113,4.158-4.118A.979.979,0,0,0,18.678,10.268Z" transform="translate(-5.817 -5.211)"/><path d="M13.936,3.375A10.561,10.561,0,1,0,24.5,13.936,10.559,10.559,0,0,0,13.936,3.375Zm6.316,16.877A8.933,8.933,0,1,1,7.62,7.62,8.933,8.933,0,1,1,20.252,20.252Z" transform="translate(-3.375 -3.375)"/></svg>