<svg xmlns="http://www.w3.org/2000/svg" viewBox="0 0 22.539 22.543"><path d="M21.218,15.5a1.322,1.322,0,0,0,1.321-1.321v-3.17a1.322,1.322,0,0,0-1.321-1.321H16.411a3.879,3.879,0,0,0,.333-.861,2.979,2.979,0,0,0,.269.216,4.606,4.606,0,0,0,4.025.341.44.44,0,0,0,.3-.3A4.607,4.607,0,0,0,21,5.054a2.971,2.971,0,0,0-.216-.268,4.209,4.209,0,0,0,1.585-.808.44.44,0,0,0,.111-.559,3.564,3.564,0,0,0-2.467-1.949,3.121,3.121,0,0,0-.53-.051,5.274,5.274,0,0,0,.12-.662A.44.44,0,0,0,19.29.279c-1.589-.456-2.8-.346-3.609.329a2.8,2.8,0,0,0-.911,1.715,2.641,2.641,0,0,0-2.881.118l-.041.029a2.573,2.573,0,0,0-.239-1.23A2.147,2.147,0,0,0,8.756.2,1.808,1.808,0,0,0,7.728,2.059,2.42,2.42,0,0,0,4.995,5.872,2.423,2.423,0,0,0,3.957,9.688H1.321A1.322,1.322,0,0,0,0,11.009v3.17A1.322,1.322,0,0,0,1.321,15.5H2.377v1.233H1.321A1.322,1.322,0,0,0,0,18.052v3.17a1.322,1.322,0,0,0,1.321,1.321h19.9a1.322,1.322,0,0,0,1.321-1.321v-3.17a1.322,1.322,0,0,0-1.321-1.321H20.162V15.5ZM9.649,5.576A1.54,1.54,0,0,1,10.739,8.2h0a1.541,1.541,0,1,1-1.089-2.63ZM8.625,9.408a1.529,1.529,0,0,1,.885.28H7.74A1.529,1.529,0,0,1,8.625,9.408Zm2.736-.581a1.541,1.541,0,0,1,2.613.86H10.927A1.522,1.522,0,0,1,11.361,8.828Zm1.745-1.242q.147-.028.27-.06c0,.05,0,.1.006.155A2.379,2.379,0,0,0,13.107,7.586ZM16.25,1.28a2.751,2.751,0,0,1,2.422-.253,1.646,1.646,0,0,1-.211.611.44.44,0,0,0,.449.732,2.32,2.32,0,0,1,2.6,1.143,2.557,2.557,0,0,1-1.98.449.44.44,0,0,0-.243.846c.215.065,2.038.71,1.273,3.791-3.081.765-3.727-1.058-3.791-1.273a.44.44,0,0,0-.846.243,2.556,2.556,0,0,1-.449,1.98,2.32,2.32,0,0,1-1.144-2.6A.44.44,0,0,0,13.6,6.5a1.645,1.645,0,0,1-.611.211,2.752,2.752,0,0,1,.253-2.422,2.281,2.281,0,0,1,1.734-.653l.339.339-.124,1.967a.44.44,0,0,0,.412.467h.028A.44.44,0,0,0,16.068,6l.075-1.193L18.432,7.1a.44.44,0,1,0,.623-.623L16.765,4.184l1.193-.075A.44.44,0,0,0,17.9,3.23l-1.967.124L15.6,3.015A2.28,2.28,0,0,1,16.25,1.28ZM12.4,3.159a1.764,1.764,0,0,1,1.5-.262,2.637,2.637,0,0,0-1.326.824c-.675.806-.785,2.02-.329,3.609a.44.44,0,0,0,.091.168,2.406,2.406,0,0,0-.3.034,2.419,2.419,0,0,0-1.878-2.785ZM9.128,1a1.268,1.268,0,0,1,1.683.612,1.688,1.688,0,0,1-.161,1.706L9.268,4.3a2.434,2.434,0,0,0-.148-.819,1.524,1.524,0,0,0,.8-.136.44.44,0,0,0-.372-.8.653.653,0,0,1-.867-.315A.926.926,0,0,1,9.128,1ZM5.758,3.225a1.541,1.541,0,1,1,0,2.179A1.536,1.536,0,0,1,5.758,3.225ZM4.735,9.237a1.541,1.541,0,1,1,1.092.451H5.821A1.531,1.531,0,0,1,4.735,9.237ZM.88,14.178v-3.17a.441.441,0,0,1,.44-.44H15.5a.433.433,0,0,0,.093.011.439.439,0,0,0,.1-.011h5.531a.441.441,0,0,1,.44.44v3.17a.441.441,0,0,1-.44.44H13.1a.44.44,0,0,0,0,.88h4.065v1.233H5.371V15.5H9.259a.44.44,0,0,0,0-.88H1.321A.441.441,0,0,1,.88,14.178ZM3.258,15.5H4.49v1.233H3.258Zm18.4,2.553v3.169a.441.441,0,0,1-.44.44H1.321a.441.441,0,0,1-.44-.44V18.052a.441.441,0,0,1,.44-.44h19.9A.441.441,0,0,1,21.658,18.052Zm-2.377-1.321H18.049V15.5h1.232Zm0,0" transform="translate(0 0)" fill="#003242"/><path d="M414.366,276.927a.44.44,0,1,0-.311-.129A.444.444,0,0,0,414.366,276.927Zm0,0" transform="translate(-395.701 -263.893)" fill="#003242"/><path d="M74.1,276.927a.44.44,0,1,0-.311-.128A.443.443,0,0,0,74.1,276.927Zm0,0" transform="translate(-70.413 -263.893)" fill="#003242"/><path d="M414.366,438.02a.44.44,0,1,0,.311.128A.444.444,0,0,0,414.366,438.02Zm0,0" transform="translate(-395.701 -418.734)" fill="#003242"/><path d="M74.1,438.02a.44.44,0,1,0,.311.128A.442.442,0,0,0,74.1,438.02Zm0,0" transform="translate(-70.413 -418.734)" fill="#003242"/><path d="M246.4,332.908a.44.44,0,1,0-.311-.129A.443.443,0,0,0,246.4,332.908Zm0,0" transform="translate(-235.128 -317.409)" fill="#003242"/></svg>