<svg xmlns="http://www.w3.org/2000/svg" width="803.418" height="622.449" viewBox="0 0 803.418 622.449"><g transform="translate(-985 -233.479)"><path d="M902.418,453.22C633.07,341.594,365.225,338.728,99,453.22V38.441H902.418Z" transform="translate(886 195.038)" fill="#fafafa"/><path d="M902.418,743.3H99V535.486q387.276-172.3,803.418,0Z" transform="translate(886 112.631)" fill="#fafafa"/><g transform="translate(6 8)"><rect width="158" height="7" transform="translate(1028 290)" fill="#e3e3e3"/><rect width="158" height="8" transform="translate(1028 308)" fill="#e3e3e3"/><rect width="158" height="7" transform="translate(1028 327)" fill="#e3e3e3"/><rect width="16" height="16" transform="translate(1054 357)" fill="#d0cde1"/><rect width="16" height="16" transform="translate(1099 357)" fill="#f1af40"/><rect width="16" height="16" transform="translate(1144 357)" fill="#94001e"/><rect width="134.705" height="23.154" transform="translate(1039.893 417.543)" fill="#e3e3e3"/><rect width="134.705" height="23.154" transform="translate(1039.893 453.072)" fill="#f1af40"/><rect width="134.705" height="23.154" transform="translate(1039.893 488.602)" fill="#af0023"/><rect width="55.726" height="23.154" transform="translate(1039.893 417.543)" opacity="0.15"/><rect width="18.041" height="23.154" transform="translate(1039.892 453.072)" opacity="0.15"/><rect width="89.803" height="23.154" transform="translate(1039.893 488.602)" opacity="0.15"/><g transform="translate(14 -3)"><path d="M591,61.441v264.6a132.3,132.3,0,0,0,0-264.6Z" transform="translate(788.493 226.001)" fill="#e3e3e3"/><path d="M553.141,68.694a121.539,121.539,0,0,0-108.666,67.062L553.141,200.05Z" transform="translate(817.532 224.563)" fill="#e3e3e3"/><path d="M430.023,154.454A132.336,132.336,0,0,0,548.3,346.077V224.466Z" transform="translate(823.175 207.567)" fill="#f1af40"/><rect width="81" height="8" transform="translate(1601 356)" fill="#e3e3e3"/><rect width="16" height="16" transform="translate(1574 352)" fill="#f1af40"/><rect width="81" height="8" transform="translate(1601 380)" fill="#e3e3e3"/><rect width="16" height="16" transform="translate(1574 376)" fill="#f1af40"/><rect width="81" height="7" transform="translate(1601 405)" fill="#e3e3e3"/><rect width="16" height="16" transform="translate(1574 400)" fill="#f1af40"/><path d="M438.427,229.559l-1.134-1.134L521.718,144H668.782v1.6h-146.4Z" transform="translate(898.335 240.461)" fill="#2f2e41"/></g><g transform="translate(2469 2018)"><rect width="460.145" height="1.808" transform="translate(-1429.281 -1411.704)" fill="#f1af40"/><rect width="460.145" height="1.808" transform="translate(-1429.281 -1393.624)" fill="#f1af40"/><rect width="460.145" height="1.808" transform="translate(-1429.281 -1375.543)" fill="#f1af40"/><rect width="460.145" height="1.808" transform="translate(-1429.281 -1357.463)" fill="#f1af40"/><rect width="460.145" height="1.808" transform="translate(-1429.281 -1339.383)" fill="#f1af40"/><rect width="460.145" height="1.808" transform="translate(-1429.281 -1321.302)" fill="#f1af40"/><rect width="460.145" height="1.808" transform="translate(-1429.281 -1303.222)" fill="#f1af40"/><rect width="460.145" height="1.808" transform="translate(-1429.281 -1285.142)" fill="#f1af40"/><rect width="460.145" height="1.808" transform="translate(-1429.281 -1267.061)" fill="#f1af40"/><rect width="460.145" height="1.808" transform="translate(-1429.281 -1248.981)" fill="#f1af40"/><rect width="460.145" height="1.808" transform="translate(-1429.281 -1230.901)" fill="#f1af40"/><rect width="30.737" height="7.232" transform="translate(-1421.145 -1256.213)" fill="#f1af40"/><rect width="30.737" height="7.232" transform="translate(-1371.424 -1273.389)" fill="#f1af40"/><rect width="30.737" height="7.232" transform="translate(-1321.703 -1309.55)" fill="#f1af40"/><rect width="30.737" height="7.232" transform="translate(-1271.982 -1292.374)" fill="#f1af40"/><rect width="30.737" height="7.232" transform="translate(-1222.261 -1327.63)" fill="#f1af40"/><rect width="30.737" height="7.232" transform="translate(-1172.54 -1292.374)" fill="#f1af40"/><rect width="30.737" height="7.232" transform="translate(-1122.819 -1345.711)" fill="#f1af40"/><rect width="30.737" height="7.232" transform="translate(-1073.098 -1380.967)" fill="#f1af40"/><rect width="30.737" height="7.232" transform="translate(-1023.377 -1362.887)" fill="#f1af40"/><path d="M747.623,176.537V249.31H728.638V156.649H697.9V249.31H678.917V191.9H648.181v57.4H579.475V209.986H548.739V249.31H498.566v17.629H480.033V228.066H449.3v38.873H399.576v18.08H349.855v19.889h428.5V176.537Z" transform="translate(-1771 -1534)" fill="#f1af40" opacity="0.1"/></g><g transform="translate(3179.581 2160.296)"><path d="M778.271,416.946H707.248L669.913,477.37a71.03,71.03,0,0,0,108.358-60.424Z" transform="translate(-2262.072 -1873.741)" fill="#f2f2f2"/><path d="M699.189,467.1a71.188,71.188,0,0,1-37.512-10.649l-.286-.177.177-.286L699,395.4h71.547v.337A71.44,71.44,0,0,1,699.189,467.1Zm-36.871-11.046a70.694,70.694,0,0,0,107.556-59.977h-70.5Z" transform="translate(-2256.421 -1859.454)" fill="#3f3d56"/><path d="M519,317.206a70.973,70.973,0,0,0,33.688,60.424l37.335-60.424-61.674-35.242A70.7,70.7,0,0,0,519,317.206Z" transform="translate(-2162 -1784.233)" fill="#f2f2f2"/><path d="M569.087,370.043l-.287-.177a71.393,71.393,0,0,1-24.454-96.12l.167-.292,62.269,35.582Zm-24.323-95.67a70.72,70.72,0,0,0,24.1,94.742l36.974-59.84Z" transform="translate(-2172.572 -1778.59)" fill="#3f3d56"/><path d="M804.532,148.526l-15.311,69.363h71.023A71.045,71.045,0,0,0,804.532,148.526Z" transform="translate(-2341.186 -1695.75)" fill="#f1af40"/><path d="M844.123,229.048H772.344l15.474-70.1.329.072a71.382,71.382,0,0,1,55.976,69.692Zm-70.94-.674h70.265a71.09,71.09,0,0,0-55.118-68.624Z" transform="translate(-2329.995 -1702.661)" fill="#3f3d56"/><path d="M622.716,128.412a71,71,0,0,0-61.674,35.78l61.674,35.242,15.311-69.363A71.268,71.268,0,0,0,622.716,128.412Z" transform="translate(-2189.879 -1682.412)" fill="#f2f2f2"/><path d="M630.974,216.254l-62.365-35.637.168-.293a71.443,71.443,0,0,1,77.35-34.282l.329.072ZM569.53,180.367l60.983,34.848,15.139-68.586a70.77,70.77,0,0,0-76.123,33.738Z" transform="translate(-2194.896 -1692.994)" fill="#3f3d56"/><path d="M766.787,90.5l-.49-.462,36.965-39.228h30.089v.674h-29.8Z" transform="translate(-2293.98 -1587.693)" fill="#3f3d56"/><rect width="35.511" height="1.204" transform="translate(-1481.093 -1531.73)" fill="#f1af40"/><rect width="35.511" height="1.204" transform="translate(-1481.093 -1526.614)" fill="#f1af40"/><rect width="35.511" height="1.204" transform="translate(-1481.093 -1521.498)" fill="#f1af40"/><rect width="35.511" height="1.204" transform="translate(-1493.221 -1382.824)" fill="#f1af40"/><rect width="35.511" height="1.204" transform="translate(-1493.221 -1377.708)" fill="#f1af40"/><rect width="35.511" height="1.204" transform="translate(-1493.221 -1372.592)" fill="#f1af40"/><path d="M804.453,410.227H768.9l-.1-.146-27.625-40.09.555-.382,27.525,39.945h35.2Z" transform="translate(-2277.323 -1799.09)" fill="#3f3d56"/></g></g></g></svg>