<svg xmlns="http://www.w3.org/2000/svg" xmlns:xlink="http://www.w3.org/1999/xlink" width="190.856" height="217.049" viewBox="0 0 190.856 217.049"><defs><linearGradient id="a" x1="0.854" y1="0.854" x2="0.146" y2="0.146" gradientUnits="objectBoundingBox"><stop offset="0" stop-color="#e8eced"/><stop offset="0.454" stop-color="#eff2f2"/><stop offset="1" stop-color="#fff"/></linearGradient></defs><g transform="translate(-1075.334 -1005.882)"><g transform="translate(1065.032 1021.779)"><g transform="translate(10.302 10.3)"><path d="M526.922,428.349a95.428,95.428,0,1,1,95.431,95.425A95.428,95.428,0,0,1,526.922,428.349Z" transform="translate(-526.922 -332.922)" fill="url(#a)"/></g></g><path d="M8.135-42.085v-5.728q8.093-.789,11.289-2.635T24.2-59.185H30.09V0H22.122V-42.085Z" transform="translate(1214.134 1065.066)" fill="#004f6f" style="mix-blend-mode:multiply;isolation:isolate"/><g transform="translate(1118.341 1077.008)"><g transform="translate(6.955 6.922)"><path d="M68.491,32.106A36.309,36.309,0,1,0,104.8,68.415,36.309,36.309,0,0,0,68.491,32.106Zm0,3.458A32.816,32.816,0,0,1,95.319,49.517L91,53.84a6.823,6.823,0,0,0-3.486-.986,6.916,6.916,0,0,0-6.916,6.916,6.824,6.824,0,0,0,.98,3.491L70.253,74.583a6.705,6.705,0,0,0-6.982,0l-7.864-7.864a6.824,6.824,0,0,0,.98-3.491A6.9,6.9,0,0,0,42.8,61.5H36.387A32.9,32.9,0,0,1,68.491,35.564ZM90.968,59.77a3.458,3.458,0,1,1-3.458-3.458A3.458,3.458,0,0,1,90.968,59.77ZM70.22,80.518a3.458,3.458,0,1,1-3.458-3.458A3.458,3.458,0,0,1,70.22,80.518ZM52.93,63.228a3.458,3.458,0,1,1-3.458-3.458A3.458,3.458,0,0,1,52.93,63.228ZM84.453,97.14A32.845,32.845,0,0,1,35.825,64.957H42.8a6.916,6.916,0,0,0,6.671,5.187,6.824,6.824,0,0,0,3.491-.98l7.864,7.864a6.824,6.824,0,0,0-.98,3.491,6.916,6.916,0,1,0,13.832,0,6.824,6.824,0,0,0-.98-3.491L84.02,65.706a6.824,6.824,0,0,0,3.491.98,6.916,6.916,0,0,0,6.916-6.916,6.824,6.824,0,0,0-.98-3.491l3.769-3.768A32.822,32.822,0,0,1,84.453,97.14Z" transform="translate(-32.182 -32.106)"/></g><g transform="translate(0 0)"><path d="M86.49,17.376a6.916,6.916,0,0,0,6.671-5.187h10.62V8.731H93.161A6.9,6.9,0,0,0,79.574,10.46a6.824,6.824,0,0,0,.98,3.491l-3.038,3.038a43.225,43.225,0,1,0-10.792,62.6l5.218,5.218,2.445,2.445,13.919,13.919a9.064,9.064,0,1,0,12.819-12.819L87.206,74.433l-2.445-2.445L79.543,66.77a43.082,43.082,0,0,0,0-46.918L83,16.394A6.826,6.826,0,0,0,86.49,17.376ZM86.49,7a3.458,3.458,0,1,1-3.458,3.458A3.458,3.458,0,0,1,86.49,7ZM98.68,90.8a5.607,5.607,0,1,1-7.839,8.019l-.09-.09L76.832,84.807l7.929-7.929ZM82.316,74.433l-7.929,7.929L69.6,77.577c.244-.187.472-.392.712-.584s.519-.422.776-.638c.379-.318.752-.64,1.119-.97.188-.173.368-.346.553-.519q1.063-1,2.059-2.059c.173-.185.346-.365.519-.553.33-.367.652-.74.97-1.119q.325-.384.638-.776c.19-.239.4-.467.583-.711ZM75.611,66.4c-.545.761-1.107,1.506-1.7,2.224-.173.209-.358.411-.536.617q-.794.923-1.639,1.791-.368.38-.749.749-.865.845-1.791,1.639c-.206.173-.408.361-.617.536-.718.593-1.463,1.155-2.224,1.7A39.829,39.829,0,1,1,75.611,66.4Z" transform="translate(0 -0.08)"/></g></g></g></svg>