<svg xmlns="http://www.w3.org/2000/svg" xmlns:xlink="http://www.w3.org/1999/xlink" width="146.1" height="166.128" viewBox="0 0 146.1 166.128"><defs><linearGradient id="a" x1="0.854" y1="0.854" x2="0.146" y2="0.146" gradientUnits="objectBoundingBox"><stop offset="0" stop-color="#e8eced"/><stop offset="0.454" stop-color="#eff2f2"/><stop offset="1" stop-color="#fff"/></linearGradient></defs><g transform="translate(-440.659 -1453.572)"><g transform="translate(440.659 1432.882)"><g transform="translate(0)"><g transform="translate(0 40.722)"><g transform="translate(0 0)"><path d="M318.522,405.971a73.05,73.05,0,1,1,73.051,73.047A73.051,73.051,0,0,1,318.522,405.971Z" transform="translate(-318.522 -332.922)" fill="url(#a)"/></g></g><path d="M2.063,0A26.914,26.914,0,0,1,4.528-10.377q2.143-4.415,8.363-8.024l6.188-3.577A29.131,29.131,0,0,0,24.911-26.1a8.474,8.474,0,0,0,2.643-6.123,8.547,8.547,0,0,0-2.417-6.4,8.811,8.811,0,0,0-6.445-2.369q-5.962,0-8.25,4.512a16.152,16.152,0,0,0-1.354,6.7H3.19a20.714,20.714,0,0,1,2.224-9.829q3.771-6.7,13.31-6.7,7.928,0,11.585,4.286a14.339,14.339,0,0,1,3.658,9.539,12.967,12.967,0,0,1-3.9,9.475,38.176,38.176,0,0,1-8.089,5.543l-4.415,2.449A28.6,28.6,0,0,0,12.6-11.7,12.091,12.091,0,0,0,8.54-5.479h25.2V0Z" transform="translate(110.845 67)" fill="#004f6f"/></g><g transform="translate(41.597 79.702)"><g transform="translate(6.636 6.636)"><path d="M100.531,51.088V46.764c.917.3,1.493.905,1.493,1.466a1.244,1.244,0,1,0,2.489,0c0-1.984-1.671-3.6-3.982-4.033V44a1.244,1.244,0,1,0-2.489,0v.2c-2.31.432-3.982,2.049-3.982,4.033,0,2.772,2.214,3.937,3.982,4.608v4.324c-.917-.3-1.493-.905-1.493-1.466a1.244,1.244,0,1,0-2.489,0c0,1.984,1.671,3.6,3.982,4.033v.2a1.244,1.244,0,0,0,2.489,0v-.2c2.31-.432,3.982-2.049,3.982-4.033C104.513,52.924,102.3,51.759,100.531,51.088Zm-2.488-.964c-1.24-.608-1.493-1.139-1.493-1.893,0-.561.576-1.166,1.493-1.466Zm2.488,7.038V53.8c1.24.608,1.493,1.139,1.493,1.893C102.024,56.257,101.448,56.862,100.531,57.162Z" transform="translate(-94.061 -42.756)"/></g><g transform="translate(19.908 9.29)"><g transform="translate(0)"><path d="M191.436,59.858H180.818a1.244,1.244,0,1,0,0,2.489h10.617a1.244,1.244,0,1,0,0-2.489Z" transform="translate(-179.574 -59.858)"/></g></g><g transform="translate(19.908 19.908)"><g transform="translate(0)"><path d="M182.145,128.268h-1.327a1.244,1.244,0,1,0,0,2.489h1.327a1.244,1.244,0,0,0,0-2.489Z" transform="translate(-179.574 -128.268)"/></g></g><g transform="translate(6.636 29.198)"><g transform="translate(0)"><path d="M132.468,188.124H95.306a1.244,1.244,0,1,0,0,2.489h37.161a1.244,1.244,0,1,0,0-2.489Z" transform="translate(-94.062 -188.124)"/></g></g><g transform="translate(14.599 37.161)"><g transform="translate(0)"><path d="M150.594,239.431h-3.982a1.244,1.244,0,0,0,0,2.489h3.982a1.244,1.244,0,0,0,0-2.489Z" transform="translate(-145.368 -239.431)"/></g></g><g transform="translate(6.636 37.161)"><g transform="translate(0)"><path d="M97.961,239.431H95.306a1.244,1.244,0,1,0,0,2.489h2.654a1.244,1.244,0,1,0,0-2.489Z" transform="translate(-94.062 -239.431)"/></g></g><g transform="translate(14.599 42.47)"><g transform="translate(0)"><path d="M150.594,273.636h-3.982a1.244,1.244,0,1,0,0,2.489h3.982a1.244,1.244,0,1,0,0-2.489Z" transform="translate(-145.368 -273.636)"/></g></g><g transform="translate(6.636 42.47)"><g transform="translate(0)"><path d="M97.961,273.636H95.306a1.244,1.244,0,1,0,0,2.489h2.654a1.244,1.244,0,1,0,0-2.489Z" transform="translate(-94.062 -273.636)"/></g></g><g transform="translate(14.599 47.779)"><g transform="translate(0)"><path d="M150.594,307.841h-3.982a1.244,1.244,0,0,0,0,2.489h3.982a1.244,1.244,0,0,0,0-2.489Z" transform="translate(-145.368 -307.841)"/></g></g><g transform="translate(6.636 47.779)"><g transform="translate(0)"><path d="M97.961,307.841H95.306a1.244,1.244,0,1,0,0,2.489h2.654a1.244,1.244,0,1,0,0-2.489Z" transform="translate(-94.062 -307.841)"/></g></g><g transform="translate(14.599 53.087)"><g transform="translate(0)"><path d="M150.594,342.045h-3.982a1.244,1.244,0,0,0,0,2.489h3.982a1.244,1.244,0,0,0,0-2.489Z" transform="translate(-145.368 -342.045)"/></g></g><g transform="translate(6.636 53.087)"><g transform="translate(0)"><path d="M97.961,342.045H95.306a1.244,1.244,0,1,0,0,2.489h2.654a1.244,1.244,0,1,0,0-2.489Z" transform="translate(-94.062 -342.045)"/></g></g><g transform="translate(14.599 58.396)"><g transform="translate(0)"><path d="M150.594,376.25h-3.982a1.244,1.244,0,1,0,0,2.489h3.982a1.244,1.244,0,1,0,0-2.489Z" transform="translate(-145.368 -376.25)"/></g></g><g transform="translate(6.636 58.396)"><g transform="translate(0)"><path d="M97.961,376.25H95.306a1.244,1.244,0,1,0,0,2.489h2.654a1.244,1.244,0,1,0,0-2.489Z" transform="translate(-94.062 -376.25)"/></g></g><g transform="translate(33.18 19.908)"><path d="M267.657,128.268H266.33a1.244,1.244,0,0,0,0,2.489h1.327a1.244,1.244,0,1,0,0-2.489Z" transform="translate(-265.086 -128.268)"/></g><g transform="translate(39.816 19.908)"><path d="M310.412,128.268h-1.327a1.244,1.244,0,0,0,0,2.489h1.327a1.244,1.244,0,1,0,0-2.489Z" transform="translate(-307.841 -128.268)"/></g><g transform="translate(26.544 19.908)"><g transform="translate(0)"><path d="M224.9,128.268h-1.327a1.244,1.244,0,1,0,0,2.489H224.9a1.244,1.244,0,0,0,0-2.489Z" transform="translate(-222.33 -128.268)"/></g></g><g transform="translate(19.908 14.599)"><g transform="translate(0)"><path d="M194.089,94.063H180.817a1.244,1.244,0,0,0,0,2.489h13.272a1.244,1.244,0,0,0,0-2.489Z" transform="translate(-179.573 -94.063)"/></g></g><g transform="translate(0)"><g transform="translate(0)"><path d="M109.62,34.507h-5.392V14.516a1.244,1.244,0,0,0-.364-.88L90.591.364A1.244,1.244,0,0,0,89.712,0H55.2a3.9,3.9,0,0,0-3.9,3.9V67.6a3.9,3.9,0,0,0,3.9,3.9H75.2V74.24a5.232,5.232,0,0,0,5.226,5.226h29.2a5.232,5.232,0,0,0,5.226-5.226V39.733A5.232,5.232,0,0,0,109.62,34.507ZM90.956,4.248l9.024,9.024H93.693a2.74,2.74,0,0,1-2.737-2.737ZM75.2,39.733V69.014H55.2a1.412,1.412,0,0,1-1.41-1.41V3.9a1.412,1.412,0,0,1,1.41-1.41H88.467v8.046a5.232,5.232,0,0,0,5.226,5.226h8.046V34.507H80.421A5.232,5.232,0,0,0,75.2,39.733ZM112.357,74.24a2.74,2.74,0,0,1-2.737,2.737h-29.2a2.74,2.74,0,0,1-2.737-2.737V39.733A2.74,2.74,0,0,1,80.421,37h29.2a2.74,2.74,0,0,1,2.737,2.737Z" transform="translate(-51.306)"/></g></g><g transform="translate(29.198 39.815)"><path d="M265.893,256.533H242a2.574,2.574,0,0,0-2.571,2.571v5.309A2.574,2.574,0,0,0,242,266.985h23.889a2.574,2.574,0,0,0,2.571-2.571V259.1A2.574,2.574,0,0,0,265.893,256.533Zm.083,7.88a.083.083,0,0,1-.083.083H242a.083.083,0,0,1-.083-.083V259.1a.083.083,0,0,1,.083-.083h23.889a.083.083,0,0,1,.083.083v5.309Z" transform="translate(-239.432 -256.533)"/></g><g transform="translate(29.198 54.415)"><path d="M244.658,350.6H242a2.574,2.574,0,0,0-2.571,2.571v2.654A2.574,2.574,0,0,0,242,358.393h2.654a2.574,2.574,0,0,0,2.571-2.571v-2.654A2.574,2.574,0,0,0,244.658,350.6Zm.083,5.226a.083.083,0,0,1-.083.083H242a.083.083,0,0,1-.083-.083v-2.654a.083.083,0,0,1,.083-.083h2.654a.083.083,0,0,1,.083.083v2.654Z" transform="translate(-239.432 -350.596)"/></g><g transform="translate(50.433 54.415)"><g transform="translate(0)"><path d="M381.477,350.6h-2.654a2.574,2.574,0,0,0-2.571,2.571v2.654a2.574,2.574,0,0,0,2.571,2.571h2.654a2.574,2.574,0,0,0,2.571-2.571v-2.654A2.574,2.574,0,0,0,381.477,350.6Zm.083,5.226a.083.083,0,0,1-.083.083h-2.654a.083.083,0,0,1-.083-.083v-2.654a.083.083,0,0,1,.083-.083h2.654a.083.083,0,0,1,.083.083Z" transform="translate(-376.251 -350.596)"/></g></g><g transform="translate(39.816 54.415)"><path d="M313.068,350.6h-2.654a2.574,2.574,0,0,0-2.571,2.571v2.654a2.574,2.574,0,0,0,2.571,2.571h2.654a2.574,2.574,0,0,0,2.571-2.571v-2.654A2.574,2.574,0,0,0,313.068,350.6Zm.083,5.226a.083.083,0,0,1-.083.083h-2.654a.083.083,0,0,1-.083-.083v-2.654a.083.083,0,0,1,.083-.083h2.654a.083.083,0,0,1,.083.083Z" transform="translate(-307.842 -350.596)"/></g><g transform="translate(29.198 65.032)"><path d="M244.658,419.006H242a2.574,2.574,0,0,0-2.571,2.571v2.654A2.574,2.574,0,0,0,242,426.8h2.654a2.574,2.574,0,0,0,2.571-2.571v-2.654A2.574,2.574,0,0,0,244.658,419.006Zm.083,5.226a.083.083,0,0,1-.083.083H242a.083.083,0,0,1-.083-.083v-2.654a.083.083,0,0,1,.083-.083h2.654a.083.083,0,0,1,.083.083v2.654Z" transform="translate(-239.432 -419.006)"/></g><g transform="translate(50.433 65.032)"><g transform="translate(0)"><path d="M381.477,419.006h-2.654a2.574,2.574,0,0,0-2.571,2.571v2.654a2.574,2.574,0,0,0,2.571,2.571h2.654a2.574,2.574,0,0,0,2.571-2.571v-2.654A2.574,2.574,0,0,0,381.477,419.006Zm.083,5.226a.083.083,0,0,1-.083.083h-2.654a.083.083,0,0,1-.083-.083v-2.654a.083.083,0,0,1,.083-.083h2.654a.083.083,0,0,1,.083.083Z" transform="translate(-376.251 -419.006)"/></g></g><g transform="translate(39.816 65.032)"><path d="M313.068,419.006h-2.654a2.574,2.574,0,0,0-2.571,2.571v2.654a2.574,2.574,0,0,0,2.571,2.571h2.654a2.574,2.574,0,0,0,2.571-2.571v-2.654A2.574,2.574,0,0,0,313.068,419.006Zm.083,5.226a.083.083,0,0,1-.083.083h-2.654a.083.083,0,0,1-.083-.083v-2.654a.083.083,0,0,1,.083-.083h2.654a.083.083,0,0,1,.083.083Z" transform="translate(-307.842 -419.006)"/></g></g></g></g></svg>