<svg xmlns="http://www.w3.org/2000/svg" width="400.945" height="268.986" viewBox="0 0 400.945 268.986"><g transform="translate(-1170.761 -1118.515)"><path d="M963.661,623.712V517.642a8.988,8.988,0,0,0-8.989-8.989A118.8,118.8,0,0,1,836.007,389.99,8.989,8.989,0,0,0,827.018,381L580,381v17.979l247.018,0a8.989,8.989,0,0,1-8.989-8.989c0,75.343,61.3,136.641,136.643,136.641a8.989,8.989,0,0,1-8.989-8.989v106.07Z" transform="translate(590.761 737.516)" fill="#c6002b"/><path d="M826.331,527.661a26.273,26.273,0,1,1-26.274-26.274A26.274,26.274,0,0,1,826.331,527.661Z" transform="translate(745.375 833.569)" fill="#444"/><path d="M778.852,515.623l17.162,17.162,17.162-17.162-4.131-4.131-13.029,13.031L782.983,511.49Z" transform="translate(749.418 841.63)" fill="#f1af40"/></g></svg>