<svg xmlns="http://www.w3.org/2000/svg" xmlns:xlink="http://www.w3.org/1999/xlink" width="146.24" height="165.911" viewBox="0 0 146.24 165.911"><defs><linearGradient id="a" x1="0.854" y1="0.854" x2="0.146" y2="0.146" gradientUnits="objectBoundingBox"><stop offset="0" stop-color="#e8eced"/><stop offset="0.454" stop-color="#eff2f2"/><stop offset="1" stop-color="#fff"/></linearGradient></defs><g transform="translate(-1075.334 -999.969)"><g transform="translate(1075.334 1019.643)"><g transform="translate(0 0)"><path d="M526.922,406.041a73.12,73.12,0,1,1,73.122,73.118A73.12,73.12,0,0,1,526.922,406.041Z" transform="translate(-526.922 -332.922)" fill="url(#a)"/></g></g><path d="M17.4,1.276q-8.31,0-12.055-4.564A16.936,16.936,0,0,1,1.6-14.395h6.15q.393,4.547,1.7,6.608,2.29,3.7,8.277,3.7A10.852,10.852,0,0,0,25.19-6.576,8.164,8.164,0,0,0,28-12.988q0-4.842-2.961-6.772t-8.228-1.93q-.589,0-1.194.016t-1.227.049v-5.2q.916.1,1.538.131t1.341.033A12.294,12.294,0,0,0,22.7-27.709q3.729-1.832,3.729-6.543a6.389,6.389,0,0,0-2.486-5.4,9.277,9.277,0,0,0-5.791-1.9q-5.889,0-8.146,3.926A13.608,13.608,0,0,0,8.6-31.472H2.781a17.67,17.67,0,0,1,2.094-8.9q3.6-6.543,12.661-6.543,7.165,0,11.09,3.19t3.926,9.242a10.314,10.314,0,0,1-2.323,7A9.756,9.756,0,0,1,26.5-24.863a10.165,10.165,0,0,1,5.774,3.909,11.83,11.83,0,0,1,2.077,7.083A14.436,14.436,0,0,1,29.934-2.944Q25.518,1.276,17.4,1.276Z" transform="translate(1186.285 1046.882)" fill="#004f6f"/><g transform="translate(1108.792 1053.297)"><g transform="translate(9.274 5.296)"><path d="M116.883,40.839l-2.65-7.949a1.325,1.325,0,0,0-1.855-.767L104.429,36.1a1.325,1.325,0,0,0,1.184,2.372l4.33-2.165C98.549,57.141,77.77,70.4,56,70.4v2.65c23.024,0,44.964-14.155,56.717-36.315l1.647,4.936a1.326,1.326,0,1,0,2.517-.837Z" transform="translate(-56.002 -31.98)"/></g><g transform="translate(0)"><g transform="translate(0)"><path d="M78.17,0H1.327A1.325,1.325,0,0,0,0,1.325V60.944a1.325,1.325,0,0,0,1.325,1.325H24.706l-4.77,15.509a1.325,1.325,0,0,0,2.533.779l2.564-8.339H54.464l2.566,8.339a1.325,1.325,0,1,0,2.533-.779L54.791,62.269H78.17a1.325,1.325,0,0,0,1.325-1.325V1.325A1.325,1.325,0,0,0,78.17,0ZM25.848,67.569l1.631-5.3H52.018l1.631,5.3Zm51-7.949H2.652V2.65H76.845Z" transform="translate(-0.002)"/></g></g><g transform="translate(9.274 49.02)"><path d="M62.626,296h-5.3A1.325,1.325,0,0,0,56,297.325v5.3a1.325,1.325,0,0,0,1.325,1.325h5.3a1.325,1.325,0,0,0,1.325-1.325v-5.3A1.325,1.325,0,0,0,62.626,296ZM61.3,301.3h-2.65v-2.65H61.3Z" transform="translate(-56.002 -296)"/></g><g transform="translate(22.523 46.371)"><path d="M142.626,280h-5.3A1.325,1.325,0,0,0,136,281.325v7.949a1.325,1.325,0,0,0,1.325,1.325h5.3a1.325,1.325,0,0,0,1.325-1.325v-7.949A1.325,1.325,0,0,0,142.626,280Zm-1.325,7.949h-2.65v-5.3h2.65Z" transform="translate(-136.002 -280)"/></g><g transform="translate(35.772 41.071)"><path d="M222.626,248h-5.3A1.325,1.325,0,0,0,216,249.325v13.249a1.325,1.325,0,0,0,1.325,1.325h5.3a1.325,1.325,0,0,0,1.325-1.325V249.325A1.325,1.325,0,0,0,222.626,248ZM221.3,261.249h-2.65v-10.6h2.65Z" transform="translate(-216.002 -248)"/></g><g transform="translate(49.02 33.122)"><path d="M302.626,200h-5.3A1.325,1.325,0,0,0,296,201.325v21.2a1.325,1.325,0,0,0,1.325,1.325h5.3a1.325,1.325,0,0,0,1.325-1.325v-21.2A1.325,1.325,0,0,0,302.626,200ZM301.3,221.2h-2.65V202.65h2.65Z" transform="translate(-296.002 -200)"/></g><g transform="translate(62.269 18.548)"><path d="M382.626,112h-5.3A1.325,1.325,0,0,0,376,113.325V149.1a1.325,1.325,0,0,0,1.325,1.325h5.3a1.325,1.325,0,0,0,1.325-1.325V113.325A1.325,1.325,0,0,0,382.626,112ZM381.3,147.772h-2.65V114.65h2.65Z" transform="translate(-376.002 -112)"/></g></g></g></svg>