<svg xmlns="http://www.w3.org/2000/svg" xmlns:xlink="http://www.w3.org/1999/xlink" width="146.377" height="167.049" viewBox="0 0 146.377 167.049"><defs><linearGradient id="a" x1="0.854" y1="0.854" x2="0.146" y2="0.146" gradientUnits="objectBoundingBox"><stop offset="0" stop-color="#e8eced"/><stop offset="0.454" stop-color="#eff2f2"/><stop offset="1" stop-color="#fff"/></linearGradient></defs><g transform="translate(-1450.003 -999.007)"><g transform="translate(1450.003 1019.681)"><g transform="translate(0 0)"><path d="M735.319,406.11A73.188,73.188,0,1,1,808.51,479.3,73.189,73.189,0,0,1,735.319,406.11Z" transform="translate(-735.319 -332.922)" fill="url(#a)"/></g></g><path d="M21.156-15.844V-36.125L6.813-15.844ZM21.25,0V-10.937H1.625v-5.5l20.5-28.437h4.75v29.031h6.594v4.906H26.875V0Z" transform="translate(1561.059 1043.882)" fill="#004f6f"/><g transform="translate(1495.251 1053.367)"><path d="M234.134,98.624a3.518,3.518,0,0,0-6.445-.844L227.1,98.8a1.172,1.172,0,0,0-1.594.422l-2.977,5.074-1.02-.586a1.171,1.171,0,1,0-1.172,2.027l1.02.586L211.4,123.584l-2.461,6.574-1.172,2.191a3.516,3.516,0,0,0,.188,3.8l-2.637,3.234-.738-1.851a2.344,2.344,0,0,0-4.184-.328l-.422.715-.4-4.687a2.344,2.344,0,0,0-4.559-.55l-2.883,8.648a1.172,1.172,0,0,0,.738,1.477,1.015,1.015,0,0,0,.363.093,1.172,1.172,0,0,0,1.113-.8l2.871-8.648.41,4.757a2.344,2.344,0,0,0,4.347,1.008l.434-.715.727,1.84a2.343,2.343,0,0,0,4.008.6l2.73-3.457a3.61,3.61,0,0,0,.926.117,3.516,3.516,0,0,0,3.058-1.735l1.172-1.957,4.465-5.425,10.066-17.472,1.02.586a1.175,1.175,0,0,1,.434,1.606l-4.687,8.121a1.163,1.163,0,1,0,1.98,1.219L233,114.42a3.514,3.514,0,0,0-1.289-4.8l-1.02-.586,2.93-5.074a1.172,1.172,0,0,0-.422-1.594l.586-1.02A3.514,3.514,0,0,0,234.134,98.624Zm-4.418.328a1.172,1.172,0,0,1,.715-.55,1.23,1.23,0,0,1,.89.117,1.173,1.173,0,0,1,.551.715,1.231,1.231,0,0,1-.117.89l-.586,1.02-2.039-1.172ZM213.744,131.67l-.586-.34-1.734-1.008,1.664-4.453L216.779,128Zm-3.515,3.386a1.171,1.171,0,0,1-.351-1.535l.586-1.019,2.039,1.172-.586,1.008a1.171,1.171,0,0,1-1.687.375Zm7.886-8.976-4.054-2.344,9.375-16.242,4.055,2.344Zm10.546-18.269-4.054-2.344,2.344-4.054,4.055,2.344Zm0,0" transform="translate(-163.942 -81.96)"/><path d="M75.944,356.878,71.8,361.015l-2.484-2.484a1.173,1.173,0,1,0-1.652,1.664l2.484,2.484a2.362,2.362,0,0,0,3.316,0L77.6,358.53a1.172,1.172,0,0,0-1.652-1.652Zm0,0" transform="translate(-57.453 -304.368)"/><path d="M32,322a9.961,9.961,0,0,0,19.921,0,1.172,1.172,0,1,0-2.344,0,7.618,7.618,0,1,1-3.047-6.093,1.172,1.172,0,0,0,1.406-1.875A9.961,9.961,0,0,0,32,322Zm0,0" transform="translate(-27.313 -266.339)"/><path d="M103.64,50.383a1.172,1.172,0,0,0,0-2.344H73.172A1.172,1.172,0,0,0,72,49.211V53.9a1.172,1.172,0,0,0,1.172,1.172H103.64a1.172,1.172,0,0,0,0-2.344h-29.3V50.383Zm0,0" transform="translate(-61.453 -41.008)"/><path d="M97.172,112.039a1.172,1.172,0,0,0,0,2.344h23.437a1.172,1.172,0,0,0,0-2.344Zm0,0" transform="translate(-81.938 -95.633)"/><path d="M154.952,168.039h-25.78a1.172,1.172,0,1,0,0,2.344h25.78a1.172,1.172,0,1,0,0-2.344Zm0,0" transform="translate(-109.251 -143.431)"/><path d="M81.78,217.211a1.172,1.172,0,0,0-1.172-1.172H57.172a1.172,1.172,0,1,0,0,2.344H80.608A1.172,1.172,0,0,0,81.78,217.211Zm0,0" transform="translate(-47.797 -184.4)"/><path d="M257.375,216.039h-8.2a1.172,1.172,0,0,0,0,2.344h8.2a1.172,1.172,0,1,0,0-2.344Zm0,0" transform="translate(-211.673 -184.4)"/><path d="M68.89,258.383a1.172,1.172,0,1,0,0-2.344H57.172a1.172,1.172,0,1,0,0,2.344Zm0,0" transform="translate(-47.797 -218.54)"/><path d="M169.172,258.383h8.2a1.172,1.172,0,1,0,0-2.344h-8.2a1.172,1.172,0,1,0,0,2.344Zm0,0" transform="translate(-143.392 -218.54)"/><path d="M52.733,53.943a1.172,1.172,0,0,0-1.172,1.172V66.834a1.172,1.172,0,0,1-1.172,1.172H3.516a1.172,1.172,0,0,1-1.172-1.172V3.555A1.172,1.172,0,0,1,3.516,2.383H50.389a1.172,1.172,0,0,1,1.172,1.172V25.562a1.172,1.172,0,1,0,2.344,0V3.555A3.516,3.516,0,0,0,50.389.039H3.516A3.516,3.516,0,0,0,0,3.555V66.834a3.515,3.515,0,0,0,3.516,3.515H50.389A3.515,3.515,0,0,0,53.9,66.834V55.115A1.172,1.172,0,0,0,52.733,53.943Zm0,0" transform="translate(0 -0.039)"/></g></g></svg>