<svg xmlns="http://www.w3.org/2000/svg" width="956.989" height="102.74" viewBox="0 0 956.989 102.74">
  <path id="Path_1317" data-name="Path 1317" d="M54.247,2.73A49.5,49.5,0,0,1,38.494.264,46.947,46.947,0,0,1,25.069-6.722,46.273,46.273,0,0,1,14.727-17.476,49.326,49.326,0,0,1,8.083-31.448,57.009,57.009,0,0,1,5.754-47.955,56.858,56.858,0,0,1,8.151-64.6a53.4,53.4,0,0,1,6.781-14.384A48.841,48.841,0,0,1,25.343-90.215,45.682,45.682,0,0,1,38.7-97.476a47.241,47.241,0,0,1,15.548-2.534,48.412,48.412,0,0,1,14.247,2.055,43.1,43.1,0,0,1,12.192,5.89,42.236,42.236,0,0,1,9.521,9.178,38.457,38.457,0,0,1,6.1,12.055L76.576-65.9A26.653,26.653,0,0,0,67.4-77.2a23.165,23.165,0,0,0-13.425-4.041A23.984,23.984,0,0,0,43.22-78.777a25.716,25.716,0,0,0-8.63,6.918A33.518,33.518,0,0,0,28.9-61.38,40.518,40.518,0,0,0,26.85-48.229a40.531,40.531,0,0,0,1.986,13.014A30.426,30.426,0,0,0,34.521-25.01a25.587,25.587,0,0,0,8.7,6.644,25.8,25.8,0,0,0,11.027,2.329,24.55,24.55,0,0,0,13.767-3.9A27.064,27.064,0,0,0,77.535-31.38l19.726,4.932a40.1,40.1,0,0,1-9.11,15.48A42.616,42.616,0,0,1,73.288-.832,49.45,49.45,0,0,1,54.247,2.73Zm102.466,0a52.955,52.955,0,0,1-16.3-2.466,48.085,48.085,0,0,1-13.9-7.055,46.829,46.829,0,0,1-10.685-10.959A51.8,51.8,0,0,1,108.9-31.928,54.729,54.729,0,0,1,106.439-48.5,55.394,55.394,0,0,1,108.9-65.147a50.491,50.491,0,0,1,6.986-14.247,48.038,48.038,0,0,1,10.753-10.959,49.421,49.421,0,0,1,13.9-7.123,52.086,52.086,0,0,1,16.438-2.534,52.954,52.954,0,0,1,16.3,2.466,48.085,48.085,0,0,1,13.9,7.055A46.829,46.829,0,0,1,197.878-79.53,51.8,51.8,0,0,1,204.8-65.352a54.729,54.729,0,0,1,2.466,16.575A55.394,55.394,0,0,1,204.8-32.133a50.491,50.491,0,0,1-6.986,14.247A48.038,48.038,0,0,1,187.056-6.928,49.421,49.421,0,0,1,173.152.2,52.086,52.086,0,0,1,156.713,2.73Zm.137-18.767a28.587,28.587,0,0,0,11.712-2.4,26.939,26.939,0,0,0,9.315-6.781,31.946,31.946,0,0,0,6.1-10.342,37.634,37.634,0,0,0,2.192-13.082,37.634,37.634,0,0,0-2.192-13.082,31.946,31.946,0,0,0-6.1-10.342,26.939,26.939,0,0,0-9.315-6.781,28.587,28.587,0,0,0-11.712-2.4,28.587,28.587,0,0,0-11.712,2.4,26.939,26.939,0,0,0-9.315,6.781,31.947,31.947,0,0,0-6.1,10.342,37.634,37.634,0,0,0-2.192,13.082,37.634,37.634,0,0,0,2.192,13.082,31.947,31.947,0,0,0,6.1,10.342,26.939,26.939,0,0,0,9.315,6.781A28.587,28.587,0,0,0,156.85-16.037ZM221.919-.01V-97.27H239.59l45.069,64.384V-97.27h19.726V-.01H286.714L241.645-64.393V-.01ZM352.193,2.045a41.108,41.108,0,0,1-16.1-3.082A34.678,34.678,0,0,1,323.632-9.8a30.693,30.693,0,0,1-7.055-13.63l19.041-4.11a16.489,16.489,0,0,0,6.233,8.767,17.9,17.9,0,0,0,10.616,3.151,18.024,18.024,0,0,0,7.74-1.575,12.523,12.523,0,0,0,5.205-4.315,11,11,0,0,0,1.849-6.3,9.027,9.027,0,0,0-3.425-7.329q-3.425-2.808-11.1-4.589l-4.384-.959q-15.069-3.288-22.192-10.616a24.686,24.686,0,0,1-7.123-17.877,27.735,27.735,0,0,1,2.6-12.055,29.337,29.337,0,0,1,7.192-9.521,33.575,33.575,0,0,1,10.753-6.3,38.3,38.3,0,0,1,13.288-2.26,37.633,37.633,0,0,1,15.069,3.014,31.833,31.833,0,0,1,11.781,8.63,29.673,29.673,0,0,1,6.438,13.288L367.4-70.284a15.575,15.575,0,0,0-5.685-8.425,15.51,15.51,0,0,0-9.384-2.945,14.943,14.943,0,0,0-6.644,1.438,11.668,11.668,0,0,0-4.658,3.973,9.925,9.925,0,0,0-1.712,5.685,8.336,8.336,0,0,0,3.7,7.329q3.7,2.534,10.959,4.178l4.384.959q14.932,3.288,22.123,10.411t7.192,18.219A29.886,29.886,0,0,1,385-16.722a30.242,30.242,0,0,1-7.466,10A33.446,33.446,0,0,1,366.3-.215,42.335,42.335,0,0,1,352.193,2.045Zm88.9.685a47.851,47.851,0,0,1-17.26-2.945,36.717,36.717,0,0,1-13.151-8.493A37.753,37.753,0,0,1,402.262-22a48.408,48.408,0,0,1-2.945-17.329V-97.27h20.411v56.986a29.729,29.729,0,0,0,2.6,12.877,19.2,19.2,0,0,0,7.466,8.425,21.651,21.651,0,0,0,11.438,2.945,21.293,21.293,0,0,0,11.37-2.945,19.776,19.776,0,0,0,7.466-8.425,29.078,29.078,0,0,0,2.671-12.877V-97.27h20.411v57.945A48.408,48.408,0,0,1,480.208-22a37.275,37.275,0,0,1-8.493,13.288A37.276,37.276,0,0,1,458.427-.215,48.407,48.407,0,0,1,441.1,2.73ZM499.591-.01V-97.27H520v79.178h39.726V-.01ZM604.112,2.045a41.109,41.109,0,0,1-16.1-3.082A34.68,34.68,0,0,1,575.55-9.8a30.694,30.694,0,0,1-7.055-13.63l19.041-4.11a16.489,16.489,0,0,0,6.233,8.767,17.9,17.9,0,0,0,10.616,3.151,18.024,18.024,0,0,0,7.74-1.575,12.523,12.523,0,0,0,5.205-4.315,11,11,0,0,0,1.849-6.3,9.027,9.027,0,0,0-3.425-7.329q-3.425-2.808-11.1-4.589l-4.384-.959q-15.068-3.288-22.192-10.616a24.685,24.685,0,0,1-7.123-17.877,27.735,27.735,0,0,1,2.6-12.055,29.338,29.338,0,0,1,7.192-9.521,33.574,33.574,0,0,1,10.753-6.3,38.3,38.3,0,0,1,13.288-2.26,37.632,37.632,0,0,1,15.069,3.014,31.832,31.832,0,0,1,11.781,8.63,29.672,29.672,0,0,1,6.438,13.288l-18.767,4.11a15.575,15.575,0,0,0-5.685-8.425,15.51,15.51,0,0,0-9.384-2.945,14.942,14.942,0,0,0-6.644,1.438,11.668,11.668,0,0,0-4.658,3.973,9.925,9.925,0,0,0-1.712,5.685,8.336,8.336,0,0,0,3.7,7.329q3.7,2.534,10.959,4.178l4.384.959Q625.208-54.8,632.4-47.681t7.192,18.219a29.885,29.885,0,0,1-2.671,12.74,30.24,30.24,0,0,1-7.466,10A33.446,33.446,0,0,1,618.222-.215,42.335,42.335,0,0,1,604.112,2.045ZM675.071-.01V-79.188h-27.4V-97.27h75.206v18.082h-27.4V-.01Zm43.562,0,38.63-97.261h21.644L817.674-.01H796.715L788.77-21.38H746.715L738.77-.01Zm34.521-38.63h29.178L767.674-77.407ZM828.77-.01V-97.27h59.589v17.808H848.633v23.973h35.343v17.671H848.633V-.01Zm74.384,0V-97.27h59.589v17.808H923.017v23.973H958.36v17.671H923.017V-.01Z" transform="translate(-5.754 100.01)" fill="#034e6f" opacity="0.09"/>
</svg>
