<svg id="graphic" xmlns="http://www.w3.org/2000/svg" width="19.606" height="20.706" viewBox="0 0 19.606 20.706">
  <g id="Group_2623" data-name="Group 2623" transform="translate(0 5.931)">
    <g id="Group_2622" data-name="Group 2622">
      <path id="Path_2353" data-name="Path 2353" d="M32.8,160.62h-.887V147.741a1.088,1.088,0,0,0-1.087-1.087H28.846a1.088,1.088,0,0,0-1.087,1.087V160.62H25.506v-7.044a1.088,1.088,0,0,0-1.087-1.087H22.437a1.088,1.088,0,0,0-1.087,1.087v7.044H19.1v-3.648a1.088,1.088,0,0,0-1.087-1.087H16.027a1.088,1.088,0,0,0-1.087,1.087v3.648h-.935a.4.4,0,1,0,0,.809H32.8a.4.4,0,1,0,0-.809Zm-14.514,0H15.749v-3.648a.279.279,0,0,1,.278-.278H18.01a.279.279,0,0,1,.278.278v3.648Zm6.409,0H22.158v-7.044a.279.279,0,0,1,.278-.278h1.983a.279.279,0,0,1,.278.278Zm6.409,0H28.567V147.741a.279.279,0,0,1,.278-.278h1.983a.279.279,0,0,1,.278.278Z" transform="translate(-13.601 -146.654)" fill="#6e6e6e"/>
    </g>
  </g>
  <g id="Group_2625" data-name="Group 2625" transform="translate(3.468)">
    <g id="Group_2624" data-name="Group 2624">
      <path id="Path_2354" data-name="Path 2354" d="M114.192.425A.4.4,0,0,0,113.768,0H111.3a.4.4,0,1,0,0,.809h1.511l-4,4L107.307,3.3a.4.4,0,0,0-.572,0l-7.27,7.27a.4.4,0,1,0,.572.572l6.984-6.984,1.508,1.508a.4.4,0,0,0,.572,0l4.284-4.284V2.748a.4.4,0,1,0,.809,0V.445C114.193.438,114.192.432,114.192.425Z" transform="translate(-99.346)" fill="#6e6e6e"/>
    </g>
  </g>
  <g id="Group_2627" data-name="Group 2627" transform="translate(2.105 11.862)">
    <g id="Group_2626" data-name="Group 2626">
      <circle id="Ellipse_17" data-name="Ellipse 17" cx="0.404" cy="0.404" r="0.404" fill="#6e6e6e"/>
    </g>
  </g>
</svg>
