<svg id="money_1_" data-name="money (1)" xmlns="http://www.w3.org/2000/svg" width="21.096" height="21.357" viewBox="0 0 21.096 21.357">
  <g id="Group_2614" data-name="Group 2614" transform="translate(2.931 16.451)">
    <g id="Group_2613" data-name="Group 2613" transform="translate(0)">
      <circle id="Ellipse_16" data-name="Ellipse 16" cx="0.417" cy="0.417" r="0.417" fill="#6e6e6e"/>
    </g>
  </g>
  <g id="Group_2616" data-name="Group 2616" transform="translate(0 11.144)">
    <g id="Group_2615" data-name="Group 2615">
      <path id="Path_2348" data-name="Path 2348" d="M24.079,270a1.621,1.621,0,0,0-2.135-.827l-.006,0-2.691,1.241a.417.417,0,0,0,.349.758l2.687-1.239a.785.785,0,0,1,.631,1.437L17.409,273.8a3.186,3.186,0,0,1-2.713-.061l-2.016-1a4.019,4.019,0,0,0-3.421-.078l-.035.015-1.5-3.4,2.087-.921a4.155,4.155,0,0,1,3.126-.1l4.053,1.488a.725.725,0,0,1-.482,1.368l-3.135-1.06a.417.417,0,1,0-.267.79l3.134,1.06a1.56,1.56,0,0,0,1.975-.972,1.569,1.569,0,0,0-.938-1.969l-4.053-1.489a4.986,4.986,0,0,0-3.751.12l-2.1.928a1.047,1.047,0,0,0-1.3-.382L3.39,269.317a.417.417,0,0,0-.249.38l-.02,7.256a.417.417,0,0,0,.605.374l5.249-2.652a1.049,1.049,0,0,0,.576-1.233l.045-.02a3.186,3.186,0,0,1,2.713.061l2.016,1a4.019,4.019,0,0,0,3.421.077l5.506-2.431A1.621,1.621,0,0,0,24.079,270ZM8.741,273.8a.213.213,0,0,1-.113.119l-4.67,2.359.005-1.793,1.208-.593a.417.417,0,0,0-.368-.749l-.838.411.01-3.58L6.41,268.9a.214.214,0,0,1,.283.11l2.044,4.629A.213.213,0,0,1,8.741,273.8Z" transform="translate(-3.121 -267.158)" fill="#6e6e6e"/>
    </g>
  </g>
  <g id="Group_2618" data-name="Group 2618" transform="translate(13.422 1.992)">
    <g id="Group_2617" data-name="Group 2617">
      <path id="Path_2349" data-name="Path 2349" d="M327.028,51.007h-.765a.52.52,0,0,1-.52-.52v-.445a.52.52,0,0,1,.52-.52h.848a.438.438,0,0,1,.437.437.417.417,0,1,0,.834,0,1.273,1.273,0,0,0-1.271-1.271h-.048V48.18a.417.417,0,1,0-.834,0v.509a1.355,1.355,0,0,0-1.319,1.353v.445a1.355,1.355,0,0,0,1.354,1.354h.765a.52.52,0,0,1,.52.52v.445a.52.52,0,0,1-.52.52h-.848a.438.438,0,0,1-.437-.437.417.417,0,0,0-.834,0,1.273,1.273,0,0,0,1.271,1.271h.048v.508a.417.417,0,1,0,.834,0v-.509a1.355,1.355,0,0,0,1.319-1.353V52.36A1.355,1.355,0,0,0,327.028,51.007Z" transform="translate(-324.909 -47.763)" fill="#6e6e6e"/>
    </g>
  </g>
  <g id="Group_2620" data-name="Group 2620" transform="translate(9.494)">
    <g id="Group_2619" data-name="Group 2619">
      <path id="Path_2350" data-name="Path 2350" d="M236.389,0a5.665,5.665,0,1,0,5.665,5.665A5.671,5.671,0,0,0,236.389,0Zm0,10.5a4.831,4.831,0,1,1,4.831-4.831A4.836,4.836,0,0,1,236.389,10.5Z" transform="translate(-230.724)" fill="#6e6e6e"/>
    </g>
  </g>
</svg>
