<svg xmlns="http://www.w3.org/2000/svg" width="18.993" height="18.996" viewBox="0 0 18.993 18.996">
  <g id="pie-chart" transform="translate(-1 -1)">
    <g id="Group_2628" data-name="Group 2628" transform="translate(1 1)">
      <path id="Path_2362" data-name="Path 2362" d="M16.47,59.041h-7.4v-7.4a.536.536,0,0,0-.538-.538,8.479,8.479,0,1,0,8.479,8.479A.541.541,0,0,0,16.47,59.041ZM8.529,66.982A7.4,7.4,0,0,1,7.991,52.2v7.382a.536.536,0,0,0,.538.538h7.382A7.41,7.41,0,0,1,8.529,66.982Z" transform="translate(-0.05 -49.062)" fill="#6e6e6e"/>
      <path id="Path_2363" data-name="Path 2363" d="M259.168,8.451A8.478,8.478,0,0,0,250.688,0a.536.536,0,0,0-.538.538V8.479a.536.536,0,0,0,.538.538h7.941a.536.536,0,0,0,.538-.538Zm-7.941-.507V1.1a7.407,7.407,0,0,1,6.844,6.844h-6.844Z" transform="translate(-240.175 0)" fill="#6e6e6e"/>
    </g>
  </g>
</svg>
