<svg xmlns="http://www.w3.org/2000/svg" width="43.962" height="43.962" viewBox="0 0 43.962 43.962"><path d="M7.836,45.348V36H6.418v9.348a2.127,2.127,0,1,0,1.418,0Zm-.709,2.706a.709.709,0,1,1,.709-.709A.709.709,0,0,1,7.127,48.054Z" transform="translate(-2.164 -11.183)" fill="#f86c3b"/><path d="M13.127,36a2.122,2.122,0,0,0-.709,4.124v9.348h1.418V40.124A2.122,2.122,0,0,0,13.127,36Zm0,2.836a.709.709,0,1,1,.709-.709A.709.709,0,0,1,13.127,38.836Z" transform="translate(-3.909 -11.183)" fill="#f86c3b"/><path d="M51.836,45.348V36H50.418v9.348a2.127,2.127,0,1,0,1.418,0Zm-.709,2.706a.709.709,0,1,1,.709-.709A.709.709,0,0,1,51.127,48.054Z" transform="translate(-14.965 -11.183)" fill="#f86c3b"/><path d="M57.127,36a2.122,2.122,0,0,0-.709,4.124v9.348h1.418V40.124A2.122,2.122,0,0,0,57.127,36Zm0,2.836a.709.709,0,1,1,.709-.709A.709.709,0,0,1,57.127,38.836Z" transform="translate(-16.711 -11.183)" fill="#f86c3b"/><path d="M31.49,23.69a2.116,2.116,0,0,0-.791.156,2.108,2.108,0,0,0-3.463-1.021,2.062,2.062,0,0,0-2.127-.423V16.3a7.826,7.826,0,0,0,5.58-6.353l3,1.649a6.961,6.961,0,1,0,1.441-.827l-4.369-2.4a7.789,7.789,0,0,0-15.555,0l-4.369,2.4a7.171,7.171,0,1,0,1.44.826l3-1.649A7.822,7.822,0,0,0,20.855,16.3v13.07a2.127,2.127,0,0,1-.217.935l-.595-2.974a4.583,4.583,0,0,0-4.481-3.674,1.8,1.8,0,0,0-1.5,2.794l.73,1.095a3.163,3.163,0,0,1,.5,1.357l.491,3.923a4.816,4.816,0,0,0,.593,1.806l2.342,4.817v1.255H17.308v4.254h15.6V40.708H31.49V39.526l1.135-1.512a4.99,4.99,0,0,0,.993-2.978V25.817A2.13,2.13,0,0,0,31.49,23.69Zm6.382-.709a5.636,5.636,0,0,1-3.4-1.141,4.253,4.253,0,0,1,6.8,0A5.636,5.636,0,0,1,37.871,22.981ZM35.744,16.6a2.127,2.127,0,1,1,2.127,2.127A2.13,2.13,0,0,1,35.744,16.6Zm2.127-4.963a5.666,5.666,0,0,1,4.419,9.221,5.67,5.67,0,0,0-2.078-1.615,3.545,3.545,0,1,0-4.681,0,5.677,5.677,0,0,0-2.078,1.615,5.666,5.666,0,0,1,4.419-9.221ZM8.091,22.981a5.636,5.636,0,0,1-3.4-1.141,4.253,4.253,0,0,1,6.8,0A5.636,5.636,0,0,1,8.091,22.981ZM5.963,16.6a2.127,2.127,0,1,1,2.127,2.127A2.13,2.13,0,0,1,5.963,16.6Zm7.8.709a5.64,5.64,0,0,1-1.254,3.548,5.67,5.67,0,0,0-2.078-1.615,3.545,3.545,0,1,0-4.681,0,5.677,5.677,0,0,0-2.078,1.615,5.67,5.67,0,1,1,10.091-3.548ZM16.6,8.8a6.382,6.382,0,1,1,11.457,3.852,5.647,5.647,0,0,0-2.726-2.636,3.545,3.545,0,1,0-4.7,0A5.647,5.647,0,0,0,17.9,12.652,6.365,6.365,0,0,1,16.6,8.8Zm8.509-1.418a2.127,2.127,0,1,1-2.127-2.127A2.13,2.13,0,0,1,25.108,7.382Zm-6.125,6.384a4.235,4.235,0,0,1,8,0A6.326,6.326,0,0,1,24.853,14.9a2.109,2.109,0,0,0-3.743,0A6.332,6.332,0,0,1,18.983,13.765ZM31.49,43.544H18.727V42.126H31.49Zm.709-8.509a3.565,3.565,0,0,1-.709,2.127l-1.418,1.891v1.654H20.145V39.126l-2.507-5.153a3.5,3.5,0,0,1-.44-1.318l-.491-3.924a4.58,4.58,0,0,0-.732-1.968l-.73-1.1a.379.379,0,0,1,.316-.59,3.162,3.162,0,0,1,3.091,2.533l.912,4.557h1.729l.606-1.212a3.565,3.565,0,0,0,.374-1.585V15.89a.709.709,0,1,1,1.418,0V27.235h1.418V24.4a.709.709,0,1,1,1.418,0v2.836h1.418V24.4a.709.709,0,0,1,1.418,0v2.836h1.418V25.817a.709.709,0,1,1,1.418,0Z" transform="translate(-1 -1)" fill="#f86c3b"/></svg>