<svg xmlns="http://www.w3.org/2000/svg" width="39.388" height="39.389" viewBox="0 0 39.388 39.389"><path d="M38.949,18.418,27.572,14.436V5.908a.657.657,0,0,0-.162-.432L22.814.224A.656.656,0,0,0,22.32,0H.656A.657.657,0,0,0,0,.656V35.45a.657.657,0,0,0,.656.656H13.129v1.313A1.97,1.97,0,0,0,15.1,39.389H36.106a1.97,1.97,0,0,0,1.969-1.969V35.45a.656.656,0,0,0-.656-.656h-.656V32.824a.657.657,0,0,0-.656-.656V26.915a.657.657,0,0,0,.656-.656V24.29h.656a.656.656,0,0,0,.656-.656V22.32h.656a.657.657,0,0,0,.656-.656V19.038A.656.656,0,0,0,38.949,18.418ZM22.977,2.4l2.494,2.848H22.977ZM1.313,34.793V1.313H21.664v4.6a.657.657,0,0,0,.656.656h3.939v7.412l-.44-.154a.657.657,0,0,0-.433,0l-13.129,4.6a.656.656,0,0,0-.44.62v2.626a.657.657,0,0,0,.656.656h.656v1.313a.657.657,0,0,0,.656.656h.656v1.969a.657.657,0,0,0,.656.656v5.252a.657.657,0,0,0-.656.656v1.969ZM22.32,24.29v1.969a.657.657,0,0,0,.656.656v5.252a.657.657,0,0,0-.656.656v1.969H21.007V32.824a.657.657,0,0,0-.656-.656V26.915a.657.657,0,0,0,.656-.656V24.29Zm7.878,0v1.969a.657.657,0,0,0,.656.656v5.252a.657.657,0,0,0-.656.656v1.969H28.885V32.824a.657.657,0,0,0-.656-.656V26.915a.657.657,0,0,0,.656-.656V24.29ZM24.29,26.915h2.626v5.252H24.29Zm-.656,6.565h3.939v1.313H23.633ZM27.572,25.6H23.633V24.29h3.939Zm-11.16,1.313h2.626v5.252H16.412Zm-.656,6.565h3.939v1.313H15.755ZM19.694,25.6H15.755V24.29h3.939ZM36.763,37.419a.656.656,0,0,1-.656.656H15.1a.657.657,0,0,1-.656-.656V36.106h22.32Zm-5.252-2.626V33.48H35.45v1.313Zm3.282-2.626H32.167V26.915h2.626ZM35.45,25.6H31.511V24.29H35.45Zm1.313-2.626H14.442V22.32h22.32Zm1.313-1.969H13.129V19.5L25.6,15.138,38.075,19.5Zm0,0" transform="translate(0)" fill="#f86c3b"/><path d="M288,201.969A1.969,1.969,0,1,0,289.969,200,1.97,1.97,0,0,0,288,201.969Zm2.626,0a.656.656,0,1,1-.656-.656A.657.657,0,0,1,290.626,201.969Zm0,0" transform="translate(-264.367 -183.588)" fill="#f86c3b"/><path d="M45.908,51.817A5.908,5.908,0,1,0,40,45.908,5.908,5.908,0,0,0,45.908,51.817Zm-3.174-2.594A1.953,1.953,0,0,1,44.6,47.878h2.626a1.953,1.953,0,0,1,1.861,1.345A4.574,4.574,0,0,1,42.734,49.223ZM44.6,45.252a1.313,1.313,0,1,1,1.313,1.313A1.313,1.313,0,0,1,44.6,45.252Zm1.313-3.939a4.591,4.591,0,0,1,4.056,6.751A3.245,3.245,0,0,0,48.1,46.7a2.626,2.626,0,1,0-4.379,0,3.246,3.246,0,0,0-1.867,1.368,4.591,4.591,0,0,1,4.056-6.751Zm0,0" transform="translate(-36.718 -36.718)" fill="#f86c3b"/><path d="M240,96h1.313v1.313H240Zm0,0" transform="translate(-220.306 -88.122)" fill="#f86c3b"/><path d="M272,96h2.626v1.313H272Zm0,0" transform="translate(-249.68 -88.122)" fill="#f86c3b"/><path d="M240,128h5.252v1.313H240Zm0,0" transform="translate(-220.306 -117.496)" fill="#f86c3b"/><path d="M32,200h1.969v1.313H32Zm0,0" transform="translate(-29.374 -183.588)" fill="#f86c3b"/><path d="M72,200h4.6v1.313H72Zm0,0" transform="translate(-66.092 -183.588)" fill="#f86c3b"/><path d="M32,232h7.878v1.313H32Zm0,0" transform="translate(-29.374 -212.962)" fill="#f86c3b"/><path d="M32,264h7.878v1.313H32Zm0,0" transform="translate(-29.374 -242.336)" fill="#f86c3b"/><path d="M32,296h1.313v1.313H32Zm0,0" transform="translate(-29.374 -271.71)" fill="#f86c3b"/><path d="M64,296h5.252v1.313H64Zm0,0" transform="translate(-58.748 -271.71)" fill="#f86c3b"/><path d="M32,328h2.626v1.313H32Zm0,0" transform="translate(-29.374 -301.085)" fill="#f86c3b"/><path d="M80,328h3.939v1.313H80Zm0,0" transform="translate(-73.435 -301.085)" fill="#f86c3b"/></svg>