<svg xmlns="http://www.w3.org/2000/svg" width="38.497" height="38.497" viewBox="0 0 38.497 38.497"><g transform="translate(33.364 2.581)"><path d="M421,34.987,419.08,32.42a.665.665,0,0,0-1.027,0l-1.925,2.566a.641.641,0,0,0-.128.385V65.527a2.566,2.566,0,1,0,5.133,0V35.372A.641.641,0,0,0,421,34.987ZM419.85,65.527a1.283,1.283,0,1,1-2.566,0V64.244h2.566Zm0-2.566h-2.566V61.678h2.566Zm0-2.566h-2.566V37.3h2.566Zm0-24.381h-2.566v-.428l1.283-1.711,1.283,1.711Z" transform="translate(-416 -32.178)" fill="#f86c3b"/></g><path d="M31.441,0H3.208a.642.642,0,0,0-.642.642V11.613A3.214,3.214,0,0,0,0,14.757V35.289A3.212,3.212,0,0,0,3.208,38.5h23.1a.645.645,0,0,0,.454-.188l5.133-5.133a.641.641,0,0,0,.128-.188c.009-.02.014-.039.021-.06a.643.643,0,0,0,.033-.167c0-.013.008-.026.008-.039V.642A.642.642,0,0,0,31.441,0ZM19.248,35.289a1.925,1.925,0,0,1-1.925,1.925H3.208a1.925,1.925,0,0,1-1.925-1.925V14.757a1.925,1.925,0,0,1,1.925-1.925H17.323a1.925,1.925,0,0,1,1.925,1.925ZM10.907,7.7v3.85H6.416V7.7ZM6.416,6.416V3.85h4.491V6.416ZM16.682,7.7v3.85H12.191V7.7ZM12.191,6.416V3.85h4.491V6.416Zm5.774,5.2V7.7h4.491v8.983H20.532V14.757A3.214,3.214,0,0,0,17.965,11.613Zm0-5.2V3.85h4.491V6.416Zm8.983,29.89V33.364H29.89Zm3.85-4.226H26.306a.642.642,0,0,0-.642.642v4.491H19.873a3.175,3.175,0,0,0,.658-1.925V17.965h8.341a.642.642,0,0,0,.642-.642V3.208a.642.642,0,0,0-.642-.642H5.774a.642.642,0,0,0-.642.642v8.341H3.85V1.283H30.8ZM28.231,7.7v8.983H23.74V7.7ZM23.74,6.416V3.85h4.491V6.416Z" fill="#f86c3b"/><g transform="translate(2.566 14.757)"><path d="M46.757,184H32.642a.642.642,0,0,0-.642.642v3.85a.642.642,0,0,0,.642.642H46.757a.642.642,0,0,0,.642-.642v-3.85A.642.642,0,0,0,46.757,184Zm-.642,3.85H33.283v-2.566H46.115Z" transform="translate(-32 -184)" fill="#f86c3b"/></g><g transform="translate(13.474 26.306)"><path d="M172.491,328h-3.85a.642.642,0,0,0-.642.642v7.7a.642.642,0,0,0,.642.642h3.85a.642.642,0,0,0,.642-.642v-7.7A.642.642,0,0,0,172.491,328Zm-.642,7.7h-2.566v-6.416h2.566Z" transform="translate(-168 -328)" fill="#f86c3b"/></g><g transform="translate(13.474 21.173)"><path d="M172.491,264h-3.85a.642.642,0,0,0-.642.642v2.566a.642.642,0,0,0,.642.642h3.85a.642.642,0,0,0,.642-.642v-2.566A.642.642,0,0,0,172.491,264Zm-.642,2.566h-2.566v-1.283h2.566Z" transform="translate(-168 -264)" fill="#f86c3b"/></g><g transform="translate(7.699 26.306)"><path d="M100.491,328h-3.85a.642.642,0,0,0-.642.642v2.566a.642.642,0,0,0,.642.642h3.85a.642.642,0,0,0,.642-.642v-2.566A.642.642,0,0,0,100.491,328Zm-.642,2.566H97.283v-1.283H99.85Z" transform="translate(-96 -328)" fill="#f86c3b"/></g><g transform="translate(7.699 21.173)"><path d="M100.491,264h-3.85a.642.642,0,0,0-.642.642v2.566a.642.642,0,0,0,.642.642h3.85a.642.642,0,0,0,.642-.642v-2.566A.642.642,0,0,0,100.491,264Zm-.642,2.566H97.283v-1.283H99.85Z" transform="translate(-96 -264)" fill="#f86c3b"/></g><g transform="translate(1.925 26.306)"><path d="M28.491,328h-3.85a.642.642,0,0,0-.642.642v2.566a.642.642,0,0,0,.642.642h3.85a.642.642,0,0,0,.642-.642v-2.566A.642.642,0,0,0,28.491,328Zm-.642,2.566H25.283v-1.283H27.85Z" transform="translate(-24 -328)" fill="#f86c3b"/></g><g transform="translate(1.925 21.173)"><path d="M28.491,264h-3.85a.642.642,0,0,0-.642.642v2.566a.642.642,0,0,0,.642.642h3.85a.642.642,0,0,0,.642-.642v-2.566A.642.642,0,0,0,28.491,264Zm-.642,2.566H25.283v-1.283H27.85Z" transform="translate(-24 -264)" fill="#f86c3b"/></g><g transform="translate(7.699 31.439)"><path d="M100.491,392h-3.85a.642.642,0,0,0-.642.642v2.566a.642.642,0,0,0,.642.642h3.85a.642.642,0,0,0,.642-.642v-2.566A.642.642,0,0,0,100.491,392Zm-.642,2.566H97.283v-1.283H99.85Z" transform="translate(-96 -392)" fill="#f86c3b"/></g><g transform="translate(1.925 31.439)"><path d="M28.491,392h-3.85a.642.642,0,0,0-.642.642v2.566a.642.642,0,0,0,.642.642h3.85a.642.642,0,0,0,.642-.642v-2.566A.642.642,0,0,0,28.491,392Zm-.642,2.566H25.283v-1.283H27.85Z" transform="translate(-24 -392)" fill="#f86c3b"/></g></svg>