<svg xmlns="http://www.w3.org/2000/svg" width="55.579" height="55.579" viewBox="0 0 55.579 55.579"><path d="M49.194,22.8A11.639,11.639,0,0,0,32.783,6.384a11.64,11.64,0,0,0-22.026,5.269c0,.323.022.642.049.959a23.3,23.3,0,0,0,12.5,42.966A23.128,23.128,0,0,0,42.966,44.773c.317.026.636.049.959.049A11.64,11.64,0,0,0,49.194,22.8ZM40.339,5.379a9.861,9.861,0,1,1-9.861,9.861A9.872,9.872,0,0,1,40.339,5.379ZM28.686,35.857H23.307a.9.9,0,1,1,0-1.793h4.482a2.689,2.689,0,0,0,0-5.379H19.722a.9.9,0,0,1,0-1.793h14.4a11.492,11.492,0,0,0-1.853,6.275,11.647,11.647,0,0,0,5.472,9.861H27.789a.9.9,0,0,1,0-1.793h.9a2.689,2.689,0,0,0,0-5.379ZM22.411,1.793a9.9,9.9,0,0,1,9.03,5.939,11.615,11.615,0,0,0-2.214,11.015,9.739,9.739,0,0,1-6.816,2.767,9.861,9.861,0,0,1,0-19.722ZM2.467,26.893H12.55a.9.9,0,1,1,0,1.793H8.068a2.689,2.689,0,0,0,0,5.379h8.068a.9.9,0,1,1,0,1.793H2.1a21.524,21.524,0,0,1-.3-3.586A21.8,21.8,0,0,1,2.467,26.893ZM4.687,43.029H20.618a.9.9,0,0,1,0,1.793H17.032a2.689,2.689,0,0,0,0,5.379H27.789a.9.9,0,0,1,.9.9v2.015a21.8,21.8,0,0,1-5.379.674A21.522,21.522,0,0,1,4.687,43.029Zm25.791,9.537V51.1a2.693,2.693,0,0,0-2.689-2.689H17.032a.9.9,0,0,1,0-1.793h3.586a2.689,2.689,0,0,0,0-5.379H3.757A21.368,21.368,0,0,1,2.473,37.65H16.136a2.689,2.689,0,0,0,0-5.379H8.068a.9.9,0,0,1,0-1.793H12.55a2.689,2.689,0,0,0,0-5.379H3.013a21.348,21.348,0,0,1,8.12-10.565,11.665,11.665,0,0,0,11.278,8.772,11.5,11.5,0,0,0,7.551-2.794,11.727,11.727,0,0,0,4.2,4.587H19.722a2.689,2.689,0,0,0,0,5.379h8.068a.9.9,0,0,1,0,1.793H23.307a2.689,2.689,0,0,0,0,5.379h5.379a.9.9,0,0,1,0,1.793h-.9a2.689,2.689,0,0,0,0,5.379H40.774A21.318,21.318,0,0,1,30.479,52.566Zm13.446-9.537a9.872,9.872,0,0,1-9.861-9.861,9.739,9.739,0,0,1,2.767-6.816,11.615,11.615,0,0,0,11.015-2.214,9.85,9.85,0,0,1-3.922,18.891Zm0,0" fill="#f86c3b"/><path d="M331.586,76.55a1.8,1.8,0,0,1-1.793-1.793H328a3.581,3.581,0,0,0,2.689,3.458v1.92h1.793V78.343h2.689V74.757a3.589,3.589,0,0,0-3.586-3.586,1.8,1.8,0,0,1-1.793-1.793V67.586h1.793a1.8,1.8,0,0,1,1.793,1.793h1.793a3.581,3.581,0,0,0-2.689-3.458V64h-1.793v1.793H328v3.586a3.589,3.589,0,0,0,3.586,3.586,1.8,1.8,0,0,1,1.793,1.793V76.55Zm0,0" transform="translate(-291.246 -56.829)" fill="#f86c3b"/><path d="M400,128h1.793v1.793H400Zm0,0" transform="translate(-355.178 -113.657)" fill="#f86c3b"/><path d="M304,128h1.793v1.793H304Zm0,0" transform="translate(-269.936 -113.657)" fill="#f86c3b"/><path d="M131.586,43.654a4.482,4.482,0,1,0,8.964,0h-1.793a2.689,2.689,0,1,1-5.379,0v-.9h3.586V40.964h-3.586V39.171h3.586V37.379h-3.586v-.9a2.689,2.689,0,1,1,5.379,0h1.793a4.482,4.482,0,1,0-8.964,0v.9H128v1.793h3.586v1.793H128v1.793h3.586Zm0,0" transform="translate(-113.657 -28.414)" fill="#f86c3b"/><path d="M356.191,244.02l-1.379-1.149-3.793,4.553-3.793-4.553-1.379,1.149,4.275,5.129v.571h-3.586v1.793h3.586v1.793h-3.586V255.1h3.586v1.793h1.793V255.1H355.5v-1.793h-3.586v-1.793H355.5v-1.793h-3.586v-.571Zm0,0" transform="translate(-307.094 -215.656)" fill="#f86c3b"/></svg>