<svg xmlns="http://www.w3.org/2000/svg" width="42.098" height="41.02" viewBox="0 0 42.098 41.02"><path d="M114.153,87.172a2.058,2.058,0,1,0-1.642-.821l-3.377,4.72a2.05,2.05,0,0,0-2.039.449l-2.251-1.277a2.056,2.056,0,1,0-4.019,0L98.573,91.52a2.053,2.053,0,1,0,.61,1.072l2.251-1.277a2.05,2.05,0,0,0,2.8,0l2.251,1.277a2.056,2.056,0,1,0,3.652-.8l3.377-4.72A2.049,2.049,0,0,0,114.153,87.172Zm0-2.878a.822.822,0,1,1-.822.822A.823.823,0,0,1,114.153,84.294Zm-16.98,9.552A.822.822,0,1,1,98,93.024.823.823,0,0,1,97.173,93.846Zm5.66-3.214a.822.822,0,1,1,.822-.822A.823.823,0,0,1,102.833,90.632Zm5.66,3.214a.822.822,0,1,1,.822-.822A.823.823,0,0,1,108.493,93.846Z" transform="translate(-87.297 -76.771)" fill="#f86c3b"/><path d="M34.434,67.813H1.744a.512.512,0,0,1-.511-.511V41.86a.512.512,0,0,1,.511-.511H4.651a.617.617,0,0,0,0-1.233H1.744A1.746,1.746,0,0,0,0,41.86V67.3a1.746,1.746,0,0,0,1.744,1.744H6V70.4a1.4,1.4,0,0,0,1.4,1.4h6.173l-2.906,5.673a.617.617,0,1,0,1.1.562l3.194-6.235h6.818l3.194,6.235a.617.617,0,1,0,1.1-.562l-2.906-5.673h6.173a1.4,1.4,0,0,0,1.4-1.4V69.046h3.7a.617.617,0,1,0,0-1.233ZM29.5,70.4a.169.169,0,0,1-.169.169H7.4A.169.169,0,0,1,7.23,70.4V69.046H29.5Z" transform="translate(0 -37.357)" fill="#f86c3b"/><path d="M79.688,10.551h27.869a.512.512,0,0,1,.511.511v5.863a.617.617,0,0,0,1.233,0V11.062a1.746,1.746,0,0,0-1.744-1.744h-13.2V8.105a1.549,1.549,0,0,0-1.547-1.547H89.06a1.549,1.549,0,0,0-1.547,1.547V9.317H79.688a.617.617,0,1,0,0,1.233Zm9.059-2.445a.314.314,0,0,1,.314-.314h3.751a.314.314,0,0,1,.314.314V9.317H88.746V8.105Z" transform="translate(-72.57 -6.558)" fill="#f86c3b"/><path d="M98.019,267.576a.617.617,0,0,0-.617.617v5.449a.617.617,0,0,0,.617.617h2.5a.617.617,0,0,0,.617-.617v-5.449a.617.617,0,0,0-.617-.617Zm1.885,5.449H98.635v-4.216H99.9Z" transform="translate(-89.393 -246.114)" fill="#f86c3b"/><path d="M166.854,229.248a.617.617,0,0,0-.617.617v8.6a.617.617,0,0,0,.617.617h2.5a.617.617,0,0,0,.617-.617v-8.6a.617.617,0,0,0-.617-.617Zm1.885,8.6H167.47v-7.367h1.268Z" transform="translate(-152.569 -210.938)" fill="#f86c3b"/><path d="M235.69,267.576a.617.617,0,0,0-.617.617v5.449a.617.617,0,0,0,.617.617h2.5a.617.617,0,0,0,.617-.617v-5.449a.617.617,0,0,0-.617-.617Zm1.885,5.449h-1.268v-4.216h1.268Z" transform="translate(-215.745 -246.114)" fill="#f86c3b"/><path d="M304.526,311.832a.617.617,0,0,0-.617.617v1.81a.617.617,0,0,0,.617.617h2.5a.617.617,0,1,0,0-1.233h-1.885v-1.194A.617.617,0,0,0,304.526,311.832Z" transform="translate(-278.921 -286.732)" fill="#f86c3b"/><path d="M313.017,164.17l-3.538-6.128a8.064,8.064,0,1,0-7.974,2.276,8.1,8.1,0,0,0,2.1.278,7.958,7.958,0,0,0,1.815-.21l3.537,6.128a2.344,2.344,0,1,0,4.06-2.344Zm-11.192-5.043a6.827,6.827,0,1,1,5.18-.682A6.782,6.782,0,0,1,301.824,159.127Zm9.718,7.177a1.112,1.112,0,0,1-1.517-.406l-3.4-5.9a8.1,8.1,0,0,0,1.923-1.111l3.4,5.9a1.11,1.11,0,0,1-.406,1.518Z" transform="translate(-271.233 -133.134)" fill="#f86c3b"/><path d="M333.749,178.836a5.836,5.836,0,0,0-.292-4.228.617.617,0,1,0-1.116.526,4.619,4.619,0,1,1-1.392-1.721.617.617,0,1,0,.744-.983,5.856,5.856,0,1,0,2.056,6.406Z" transform="translate(-295.8 -157.701)" fill="#f86c3b"/></svg>