<svg xmlns="http://www.w3.org/2000/svg" width="44.839" height="43.965" viewBox="0 0 44.839 43.965"><g transform="translate(0 0)"><g transform="translate(0 4.687)"><path d="M44.183,91.746h-.8V68.125a3.281,3.281,0,0,0-3.277-3.277H31.917a10.114,10.114,0,0,0-18.763,0H4.733a3.281,3.281,0,0,0-3.277,3.277V91.746h-.8A.655.655,0,0,0,0,92.4a5.4,5.4,0,0,0,5.389,5.389H39.45A5.4,5.4,0,0,0,44.839,92.4.655.655,0,0,0,44.183,91.746ZM2.766,68.125a1.969,1.969,0,0,1,1.966-1.966h7.988c-.013.051-.024.1-.036.153-.008.032-.015.063-.023.095-.012.054-.024.107-.035.161s-.017.082-.025.123-.02.1-.029.151-.017.1-.025.145-.015.09-.022.134q-.021.133-.038.268c0,.033-.008.066-.011.1-.007.064-.015.128-.021.192,0,.038-.007.077-.01.115q-.008.091-.014.182c0,.037,0,.075-.007.112,0,.066-.007.132-.009.2,0,.032,0,.064,0,.1s0,.069,0,.1H5.636a.655.655,0,0,0-.656.656V85.57a.656.656,0,0,0,1.311,0V69.8h6.177c.032.295.079.587.136.877v0a10.141,10.141,0,0,0,.389,1.412l.007.019q.047.131.1.261l.009.023q.143.363.313.716l.047.1c.027.054.055.108.083.162s.051.1.077.145l.075.137q.05.089.1.178l.063.108c.058.1.116.19.177.284l.013.019.041.062.039.059a.656.656,0,0,0,1.172-.181l0-.006c.005-.018.01-.036.013-.055s0-.01,0-.014.005-.032.007-.048,0-.013,0-.02,0-.028,0-.043,0-.02,0-.03,0-.022,0-.033,0-.026-.006-.04,0-.016,0-.023-.007-.032-.012-.047,0-.01,0-.015c-.006-.02-.013-.04-.021-.06h0a.662.662,0,0,0-.063-.118l-.059-.09-.008-.012-.016-.025q-.083-.128-.161-.259c-.023-.039-.045-.078-.068-.118s-.055-.095-.082-.142-.057-.1-.084-.157l-.055-.1c-.031-.061-.062-.123-.092-.185l-.037-.077q-.049-.1-.095-.209l-.024-.054q-.05-.115-.1-.232l-.012-.031q-.05-.127-.1-.255v0a8.879,8.879,0,0,1-.509-2.565h0c-.007-.144-.012-.289-.012-.434,0-.113,0-.227.007-.34,0-.022,0-.044,0-.066q.007-.161.02-.32c0-.025,0-.05.007-.075.009-.1.02-.2.032-.306l.008-.058c.012-.093.026-.185.041-.278.005-.032.01-.064.016-.1q.025-.141.054-.281c.008-.039.017-.077.025-.115.018-.082.037-.163.058-.244.012-.049.025-.1.038-.145s.033-.12.051-.179.039-.131.06-.2.036-.112.055-.168a8.807,8.807,0,0,1,16.686,0c.019.055.037.11.054.165s.041.132.061.2.034.119.05.178.026.1.039.146q.031.121.058.243c.009.039.017.077.025.116q.029.14.054.281c.006.032.011.064.016.1.015.092.029.185.041.277l.008.058c.013.1.023.2.032.306,0,.025,0,.05.007.075q.013.16.02.32c0,.022,0,.044,0,.066,0,.113.007.226.007.34,0,.145,0,.29-.012.434h0a8.873,8.873,0,0,1-.508,2.562l0,.011c-.03.084-.062.167-.094.25l-.014.036q-.046.114-.094.228l-.026.058q-.045.1-.093.205l-.039.081q-.044.092-.09.182c-.018.036-.038.071-.056.107-.027.052-.055.1-.083.155s-.055.1-.083.144-.044.078-.068.116c-.052.087-.106.174-.162.259l-.013.021h0l-.066.1,0,.007-.071.11-.19.292-.108.168-.149.233-.108.171-.14.221L28.968,75l-.132.213-.1.168-.128.21-.1.16-.126.21-.091.152-.126.213-.083.14-.131.225-.068.118-.163.285-.028.049-.185.327-.043.078-.132.237-.06.109-.108.2-.062.115-.1.183-.06.113-.093.175-.057.109-.089.17-.053.1-.087.169-.047.093-.049.1v-7.1a.651.651,0,0,0-.064-.281l0-.009-1.746-3.651h0l-1.528-3.2a.656.656,0,0,0-1.183,0l-1.528,3.2h0L18.67,72.026l0,.009a.651.651,0,0,0-.064.281v7.106l-.032-.063-.051-.1-.058-.114-.054-.105-.061-.118-.055-.106-.066-.126-.055-.1-.074-.139-.053-.1-.094-.174-.038-.07-.136-.25-.041-.074-.1-.185-.056-.1-.092-.164-.064-.113-.091-.161-.066-.116-.1-.168-.066-.115-.1-.177-.065-.111-.118-.2-.056-.095-.18-.3a.655.655,0,1,0-1.122.677l.211.352.008.014.189.321.036.061.154.265.045.079.137.24.048.085.126.224.05.089.119.214.047.085.114.209.044.082.11.2.041.076.108.2.035.066.109.21.027.051.114.223.015.028q.255.5.455.921l.013.028.081.171.021.045.067.143L18,81.2l.057.125.025.056.051.113.024.054.046.1.023.051.042.1.021.049.037.087.019.044.034.08.017.041.03.071.016.038.025.062.014.035.02.049.038.094,0,.01.02.052,0,.008.032.083v4.955a2.24,2.24,0,0,0,2.237,2.237h3.392a2.24,2.24,0,0,0,2.237-2.237V82.6l.049-.126c.081-.206.242-.6.5-1.161l.047-.1q.1-.227.229-.488l.093-.193c.066-.137.136-.278.21-.426.066-.132.137-.271.209-.413l.1-.191c.5-.962,1.143-2.121,1.954-3.445l.011-.018q.117-.191.239-.386l.037-.06.225-.358.076-.118.2-.313.221-.34.069-.106.078-.118.016-.025c.061-.093.119-.188.177-.283l.063-.106c.035-.059.069-.118.1-.178l.075-.137.076-.145c.028-.054.056-.107.083-.161l.046-.1q.172-.355.315-.721l.007-.017q.051-.133.1-.266l0-.011a10.153,10.153,0,0,0,.527-2.3h5.945v3.6a.656.656,0,0,0,1.311,0V69.142a.655.655,0,0,0-.656-.656H32.661c0-.035,0-.069,0-.1s0-.064,0-.1c0-.066-.005-.132-.009-.2q0-.056-.007-.113c0-.061-.009-.121-.014-.182,0-.038-.006-.077-.01-.115-.006-.064-.013-.128-.021-.192,0-.033-.007-.066-.011-.1q-.017-.135-.038-.268c-.007-.045-.015-.09-.022-.135s-.016-.1-.025-.144-.019-.1-.029-.151-.017-.082-.025-.123-.023-.108-.035-.161c-.007-.032-.015-.063-.023-.095-.012-.051-.023-.1-.036-.153h7.756a1.969,1.969,0,0,1,1.966,1.966V91.746H39.859V76.017a.656.656,0,0,0-1.311,0v15.73H6.291V88.192a.656.656,0,0,0-1.311,0v3.555H2.766ZM19.913,84.641V83.079h5.244v1.562Zm5.244,1.311v1.606a.927.927,0,0,1-.926.926H20.839a.927.927,0,0,1-.926-.926V85.952h5.244Zm-5.244-4.184v-8.8h5.244v8.8H19.913ZM20.3,71.654l1.119-2.341h2.23l1.119,2.341Zm6.853,21.4A1.5,1.5,0,0,1,25.8,93.9H19.036a1.5,1.5,0,0,1-1.352-.847Zm12.3,3.422H5.389a4.084,4.084,0,0,1-4.025-3.422H16.3a2.818,2.818,0,0,0,2.736,2.158H25.8a2.818,2.818,0,0,0,2.736-2.158H43.475A4.084,4.084,0,0,1,39.45,96.48Z" transform="translate(0 -58.513)" fill="#f86c3b"/></g><g transform="translate(21.88 0)"><path d="M250.5,4.989a.655.655,0,0,0-.656.656V8.1a.656.656,0,1,0,1.311,0V5.645A.655.655,0,0,0,250.5,4.989Z" transform="translate(-249.84 -4.989)" fill="#f86c3b"/></g><g transform="translate(31.827 5.36)"><path d="M366.78,66.529a.655.655,0,0,0-.894-.243L363.758,67.5a.655.655,0,1,0,.651,1.138l2.127-1.217A.656.656,0,0,0,366.78,66.529Z" transform="translate(-363.428 -66.199)" fill="#f86c3b"/></g><g transform="translate(27.537 1.572)"><path d="M316.985,23.077a.656.656,0,0,0-.919.122l-1.49,1.946a.656.656,0,0,0,1.041.8L317.107,24A.655.655,0,0,0,316.985,23.077Z" transform="translate(-314.441 -22.942)" fill="#f86c3b"/></g><g transform="translate(9.573 5.36)"><path d="M112.423,67.5,110.3,66.285a.655.655,0,0,0-.651,1.138l2.127,1.217a.655.655,0,1,0,.651-1.138Z" transform="translate(-109.314 -66.198)" fill="#f86c3b"/></g><g transform="translate(14.5 1.572)"><path d="M168.241,25.144l-1.49-1.946a.656.656,0,1,0-1.041.8l1.49,1.946a.656.656,0,0,0,1.041-.8Z" transform="translate(-165.575 -22.942)" fill="#f86c3b"/></g></g></svg>