<svg xmlns="http://www.w3.org/2000/svg" xmlns:xlink="http://www.w3.org/1999/xlink" width="450" height="394" viewBox="0 0 450 394"><defs><filter id="a" x="0" y="0" width="450" height="394" filterUnits="userSpaceOnUse"><feOffset dy="30" input="SourceAlpha"/><feGaussianBlur stdDeviation="15" result="b"/><feFlood flood-color="#989898" flood-opacity="0.161"/><feComposite operator="in" in2="b"/><feComposite in="SourceGraphic"/></filter></defs><g transform="translate(-5065.898 -1797)"><g transform="matrix(1, 0, 0, 1, 5065.9, 1797)" filter="url(#a)"><rect width="360" height="304" transform="translate(45 15)" fill="#fff"/></g><g transform="translate(5134.006 1826.176)"><g transform="translate(44.95 0)"><path d="M198.578,85.625l-4.3-7.477-4.3-7.477-4.328,7.459-4.327,7.459,5.961.012-.057,28.825,5.325.011.057-28.825Z" transform="translate(-181.33 -70.672)" fill="#e0e0e0"/></g><g transform="translate(34.792 24.872)"><path d="M177.49,114.643l-2.6-4.52-2.6-4.52-2.616,4.51-2.616,4.51,3.6.007-.035,17.426,3.219.006.035-17.426Z" transform="translate(-167.063 -105.603)" fill="#e0e0e0"/></g><g transform="translate(73.29 11.773)"><g transform="translate(0.075 13.708)"><rect width="218.848" height="170.291" transform="translate(0.185 0.185)" fill="#fff"/><path d="M440.273,276.935c0-1.275-.061-67.5-.153-170.291l.153.153-218.829.032h-.019l.185-.185c-.007,61.382-.014,119.44-.019,170.291l-.166-.167,218.848.167-218.848.167h-.167v-.167c-.006-50.852-.012-108.91-.019-170.291v-.185h.2l218.829.032h.153v.153C440.333,209.439,440.274,275.661,440.273,276.935Z" transform="translate(-221.239 -106.458)" fill="#263238"/></g><g transform="translate(0)"><g transform="translate(60.251 87.198)"><path d="M305.941,292.358c-.1,0-.186-18.512-.186-41.341s.083-41.344.186-41.344.185,18.507.185,41.344S306.043,292.358,305.941,292.358Z" transform="translate(-305.755 -209.673)" fill="#263238"/></g><g transform="translate(155.227 87.198)"><path d="M439.331,292.358c-.1,0-.185-18.512-.185-41.341s.083-41.344.185-41.344.186,18.507.186,41.344S439.434,292.358,439.331,292.358Z" transform="translate(-439.146 -209.673)" fill="#263238"/></g><g transform="translate(92.676 64.178)"><path d="M351.479,283.047c-.1,0-.185-23.665-.185-52.85s.083-52.855.185-52.855.186,23.659.186,52.855S351.582,283.047,351.479,283.047Z" transform="translate(-351.294 -177.342)" fill="#263238"/></g><g transform="translate(26.951 64.178)"><path d="M259.171,283.047c-.1,0-.186-23.665-.186-52.85s.083-52.855.186-52.855.185,23.659.185,52.855S259.273,283.047,259.171,283.047Z" transform="translate(-258.985 -177.342)" fill="#263238"/></g><g transform="translate(192.505 64.178)"><path d="M491.688,283.047c-.1,0-.186-23.665-.186-52.85s.083-52.855.186-52.855.185,23.659.185,52.855S491.79,283.047,491.688,283.047Z" transform="translate(-491.502 -177.342)" fill="#263238"/></g><g transform="translate(121.108 47.831)"><path d="M391.412,276.435c-.1,0-.185-27.324-.185-61.023s.083-61.028.185-61.028.185,27.318.185,61.028S391.515,276.435,391.412,276.435Z" transform="translate(-391.227 -154.384)" fill="#263238"/></g><g transform="translate(59.661 86.422)"><path d="M306.478,209.359a.776.776,0,1,1-.775-.775A.775.775,0,0,1,306.478,209.359Z" transform="translate(-304.926 -208.584)" fill="#263238"/></g><g transform="translate(92.085 63.402)"><circle cx="0.776" cy="0.776" r="0.776" fill="#263238"/></g><g transform="translate(90.14 61.457)"><path d="M350.454,178.961a2.72,2.72,0,1,1,2.721-2.72A2.723,2.723,0,0,1,350.454,178.961Zm0-5.262A2.542,2.542,0,1,0,353,176.242,2.546,2.546,0,0,0,350.454,173.7Z" transform="translate(-347.733 -173.521)" fill="#263238"/></g><g transform="translate(120.518 47.056)"><circle cx="0.776" cy="0.776" r="0.776" fill="#263238"/></g><g transform="translate(154.637 87.198)"><circle cx="0.776" cy="0.776" r="0.776" fill="#263238"/></g><g transform="translate(191.934 63.402)"><circle cx="0.776" cy="0.776" r="0.776" fill="#263238"/></g><g transform="translate(26.36 64.178)"><path d="M259.707,178.117a.776.776,0,1,1-.775-.775A.775.775,0,0,1,259.707,178.117Z" transform="translate(-258.156 -177.342)" fill="#263238"/></g><g transform="translate(12.65 81.761)"><path d="M426.285,221.864a2.736,2.736,0,0,1-.61.2,13.175,13.175,0,0,0-1.761.6,16.954,16.954,0,0,0-5.651,4.29c-2.116,2.291-4.234,5.482-6.894,9.069a43.954,43.954,0,0,1-4.684,5.436,25.943,25.943,0,0,1-3.042,2.515,21.161,21.161,0,0,1-3.663,2,20.658,20.658,0,0,1-8.776,1.477,23.586,23.586,0,0,1-4.721-.592,12.322,12.322,0,0,1-4.568-2.011,14.8,14.8,0,0,1-3.566-3.72c-.985-1.426-1.869-2.934-2.724-4.469-1.7-3.083-3.473-6.187-5.487-9.3-1.976-3.158-3.808-6.484-5.853-9.757a46.732,46.732,0,0,0-7.166-9.245,20.823,20.823,0,0,0-4.813-3.448,15.984,15.984,0,0,0-5.719-1.675,20.122,20.122,0,0,0-11.86,2.536,30.056,30.056,0,0,0-9.028,8.419,93.377,93.377,0,0,0-6.452,10.376,105.745,105.745,0,0,1-6.251,10.151,49.9,49.9,0,0,1-7.568,8.627c-.719.607-1.426,1.219-2.2,1.747a25.154,25.154,0,0,1-2.325,1.519,20.222,20.222,0,0,1-5.042,2.075,16.717,16.717,0,0,1-2.637.491,9.055,9.055,0,0,1-1.324.078c-.441,0-.88.033-1.316.016a20.024,20.024,0,0,1-5.05-.936,34.208,34.208,0,0,1-8.536-4.46c-2.534-1.744-4.852-3.552-7.118-5.183a38.042,38.042,0,0,0-6.76-4.1,22.347,22.347,0,0,0-6.729-1.912,16.57,16.57,0,0,0-6.047.391,9.936,9.936,0,0,0-1.307.422,8.27,8.27,0,0,0-1.222.481,15.676,15.676,0,0,0-2.137,1.185,22.711,22.711,0,0,0-3.214,2.572l-1.118,1.225a10.173,10.173,0,0,0-.9,1.042l-1.132,1.491a2.8,2.8,0,0,1-.419.489,2.7,2.7,0,0,1,.325-.552l1.048-1.564a9.732,9.732,0,0,1,.864-1.087l1.093-1.276a22.2,22.2,0,0,1,3.211-2.7,16,16,0,0,1,2.171-1.26,8.654,8.654,0,0,1,1.251-.52,10.425,10.425,0,0,1,1.344-.458,17.013,17.013,0,0,1,6.25-.5,22.857,22.857,0,0,1,6.951,1.884,38.4,38.4,0,0,1,6.93,4.1c2.3,1.623,4.625,3.408,7.144,5.114a33.527,33.527,0,0,0,8.334,4.291,19.161,19.161,0,0,0,4.807.864c.413.014.829-.018,1.246-.023a8.392,8.392,0,0,0,1.252-.079,15.776,15.776,0,0,0,2.491-.478,22.663,22.663,0,0,0,9.137-5.166,49.092,49.092,0,0,0,7.376-8.471,105.4,105.4,0,0,0,6.168-10.069,93.724,93.724,0,0,1,6.516-10.506,31.078,31.078,0,0,1,9.368-8.726,21.188,21.188,0,0,1,12.52-2.669,17.07,17.07,0,0,1,6.1,1.794,21.9,21.9,0,0,1,5.064,3.636,47.558,47.558,0,0,1,7.321,9.476c2.056,3.311,3.878,6.646,5.821,9.777,2,3.116,3.8,6.3,5.471,9.367,1.707,3.028,3.371,6.073,5.974,7.917A11.426,11.426,0,0,0,386.7,246a22.82,22.82,0,0,0,4.541.6,19.91,19.91,0,0,0,8.444-1.346,20.411,20.411,0,0,0,3.539-1.893,25.329,25.329,0,0,0,2.977-2.411,43.944,43.944,0,0,0,4.676-5.3,113.028,113.028,0,0,1,7.073-8.988,16.489,16.489,0,0,1,5.883-4.2,10.389,10.389,0,0,1,1.82-.507A2.77,2.77,0,0,1,426.285,221.864Z" transform="translate(-238.9 -202.037)" fill="#e8505b"/></g><g transform="translate(26.361 33.008)"><rect width="38.158" height="2.123" fill="#263238"/></g><g transform="translate(26.361 37.977)"><rect width="18.856" height="2.123" fill="#263238"/></g><path d="M4.506,0H214.6a4.506,4.506,0,0,1,4.506,4.506v9.387a0,0,0,0,1,0,0H0a0,0,0,0,1,0,0V4.506A4.506,4.506,0,0,1,4.506,0Z" fill="#263238"/><g transform="translate(8.367 5.72)"><path d="M235.873,96.734a1.494,1.494,0,1,1-1.494-1.494A1.494,1.494,0,0,1,235.873,96.734Z" transform="translate(-232.885 -95.24)" fill="#fff"/></g><g transform="translate(14.891 5.72)"><path d="M245.037,96.734a1.495,1.495,0,1,1-1.494-1.494A1.494,1.494,0,0,1,245.037,96.734Z" transform="translate(-242.048 -95.24)" fill="#fff"/></g><g transform="translate(21.416 5.72)"><path d="M254.2,96.734a1.494,1.494,0,1,1-1.495-1.494A1.494,1.494,0,0,1,254.2,96.734Z" transform="translate(-251.212 -95.24)" fill="#fff"/></g></g></g><g transform="translate(0 141.054)"><rect width="89.863" height="25.195" rx="3.23" fill="#e6e6e6"/><g transform="translate(9.194 7.898)"><path d="M125.63,267.452a5.476,5.476,0,1,1-.847-7.7A5.476,5.476,0,0,1,125.63,267.452Z" transform="translate(-115.883 -258.551)" fill="#fff"/></g><g transform="translate(11.589 11.512)"><path d="M125.405,263.63a25.287,25.287,0,0,1-2.963,3.148l-.723.7-.13.125-.124-.127A17.545,17.545,0,0,1,119.25,265a17.542,17.542,0,0,1,2.471,2.216h-.253l.716-.706A25.372,25.372,0,0,1,125.405,263.63Z" transform="translate(-119.247 -263.627)" fill="#263238"/></g><g transform="translate(30.068 10.566)"><path d="M196.224,262.483c0,.1-11.424.186-25.511.186s-25.513-.083-25.513-.186,11.421-.185,25.513-.185S196.224,262.381,196.224,262.483Z" transform="translate(-145.199 -262.298)" fill="#263238"/></g><g transform="translate(30.666 15.549)"><path d="M175.538,269.481c0,.1-6.6.186-14.749.186s-14.75-.083-14.75-.186,6.6-.185,14.75-.185S175.538,269.379,175.538,269.481Z" transform="translate(-146.039 -269.296)" fill="#263238"/></g></g><g transform="translate(17.851 76.011)"><rect width="88.593" height="36.792" rx="2.616" fill="#e0e0e0"/><g transform="translate(10.146 7.498)"><path d="M162.734,176.859a4.13,4.13,0,1,1-4.13-4.13A4.13,4.13,0,0,1,162.734,176.859Z" transform="translate(-154.474 -172.729)" fill="#e8505b"/><g transform="translate(12.39 1.277)"><rect width="28.777" height="1.598" fill="#e8505b"/></g><g transform="translate(12.39 4.908)"><rect width="55.981" height="1.598" fill="#fff"/></g></g><g transform="translate(10.146 20.196)"><path d="M162.734,194.692a4.13,4.13,0,1,1-4.13-4.13A4.13,4.13,0,0,1,162.734,194.692Z" transform="translate(-154.474 -190.562)" fill="#e8505b"/><g transform="translate(12.39 1.277)"><rect width="14.695" height="1.598" fill="#e8505b"/></g><g transform="translate(12.39 4.908)"><rect width="55.981" height="1.598" fill="#fff"/></g></g></g><g transform="translate(39.969 189.682)"><g transform="translate(0 0)"><rect width="114.303" height="48.585" rx="3.958" fill="#e0e0e0"/></g><g transform="translate(8.723 13.624)"><path d="M186.591,327.079l-.064-9.855a12.573,12.573,0,0,0-8.13,3.17,11.653,11.653,0,0,0-3.917,10.206,13.806,13.806,0,0,0,.23,1.432c0,.012,0,.023.006.035h0l11.874-2.672Z" transform="translate(-174.402 -317.224)" fill="#e8505b"/><g transform="translate(13.448 0.038)"><path d="M204.269,324.06a11.692,11.692,0,0,0-9.584-6.709c-.125-.012-.25-.023-.376-.033-.08-.006-.159-.014-.239-.019-.235-.013-.473-.019-.716-.021h-.064l.064,9.855.015,2.316,11.878,2.591.014,0h0a11.685,11.685,0,0,0,.263-2.555A12.778,12.778,0,0,0,204.269,324.06Z" transform="translate(-193.29 -317.277)" fill="#e8505b"/><g opacity="0.2"><path d="M204.269,324.06a11.692,11.692,0,0,0-9.584-6.709c-.125-.012-.25-.023-.376-.033-.08-.006-.159-.014-.239-.019-.235-.013-.473-.019-.716-.021h-.064l.064,9.855.015,2.316,11.878,2.591.014,0h0a11.685,11.685,0,0,0,.263-2.555A12.778,12.778,0,0,0,204.269,324.06Z" transform="translate(-193.29 -317.277)"/></g></g><g transform="translate(0.95 13.401)"><path d="M187.612,336.045l-11.875,2.671a12.172,12.172,0,0,0,23.768-.08l-11.878-2.592" transform="translate(-175.737 -336.045)" fill="#e8505b"/><g opacity="0.1"><path d="M187.612,336.045l-11.875,2.671a12.172,12.172,0,0,0,23.768-.08l-11.878-2.592" transform="translate(-175.737 -336.045)"/></g></g></g><g transform="translate(42.362 16.571)"><rect width="60.332" height="2.733" fill="#fff"/></g><g transform="translate(42.362 23.777)"><rect width="60.332" height="2.733" fill="#fff"/></g><g transform="translate(42.362 31.744)"><rect width="32.607" height="2.733" fill="#fff"/></g></g><g transform="translate(175.811 166.075)"><rect width="119.186" height="114.753" rx="8.41" fill="#e6e6e6"/><g transform="translate(8.329 12.122)"><g transform="translate(0 66.49)"><rect width="3.912" height="1.127" fill="#263238"/></g><g transform="translate(8.849 72.516)"><rect width="5.002" height="1.127" fill="#263238"/></g><g transform="translate(26.263 72.516)"><rect width="5.002" height="1.127" fill="#263238"/></g><g transform="translate(43.677 72.516)"><rect width="5.002" height="1.127" fill="#263238"/></g><g transform="translate(61.091 72.516)"><rect width="5.002" height="1.127" fill="#263238"/></g><g transform="translate(78.505 72.516)"><rect width="5.002" height="1.127" fill="#263238"/></g><g transform="translate(95.919 72.516)"><rect width="5.002" height="1.127" fill="#263238"/></g><g transform="translate(0 51.436)"><rect width="3.912" height="1.127" fill="#263238"/></g><g transform="translate(0 23.101)"><rect width="3.912" height="1.127" fill="#263238"/></g><g transform="translate(0 8.862)"><rect width="3.912" height="1.127" fill="#263238"/></g><g transform="translate(0.198 37.269)"><rect width="3.912" height="1.127" fill="#263238"/></g><g transform="translate(5.769)"><path d="M464.1,334.346s-.142.013-.419.019l-1.231.018-4.733.034-17.406.059-57.429.054-13.609,0h-.183v-.183c.025-19.2.047-36.1.063-48.217.024-6.041.042-10.887.055-14.239.014-1.658.024-2.945.032-3.833.007-.427.012-.755.016-.993s.017-.337.017-.337.011.114.017.337.009.566.016.993c.007.888.018,2.175.031,3.833.014,3.351.032,8.2.056,14.239.016,12.114.038,29.013.063,48.217l-.183-.183,13.609,0,57.429.054,17.406.059,4.733.035,1.231.018C463.954,334.334,464.1,334.346,464.1,334.346Z" transform="translate(-369.084 -266.729)" fill="#263238"/></g><g transform="translate(9.736 37.647)"><path d="M466.8,319.788c0,.1-20.629.186-46.071.186s-46.076-.083-46.076-.186,20.625-.185,46.076-.185S466.8,319.686,466.8,319.788Z" transform="translate(-374.655 -319.603)" fill="#263238"/></g><g transform="translate(9.736 23.479)"><path d="M466.8,299.891c0,.1-20.629.185-46.071.185s-46.076-.083-46.076-.185,20.625-.186,46.076-.186S466.8,299.788,466.8,299.891Z" transform="translate(-374.655 -299.705)" fill="#263238"/></g><g transform="translate(9.736 9.24)"><path d="M466.8,279.892c0,.1-20.629.186-46.071.186s-46.076-.083-46.076-.186,20.625-.185,46.076-.185S466.8,279.79,466.8,279.892Z" transform="translate(-374.655 -279.707)" fill="#263238"/></g><g transform="translate(9.736 51.814)"><path d="M466.8,339.686c0,.1-20.629.185-46.071.185s-46.076-.083-46.076-.185,20.625-.186,46.076-.186S466.8,339.583,466.8,339.686Z" transform="translate(-374.655 -339.5)" fill="#263238"/></g><g transform="translate(10.685 1.045)"><path d="M375.989,331.72V319.151l7.834-12.163,5.317,4.079,10.912-16.95,6.436,4.532,8.953-15.636,7.275,5.926L433.628,268.2l11.752,23.184,9.513-11.6,11.192-3.2V331.72Z" transform="translate(-375.989 -268.196)" fill="#e8505b"/></g><g transform="translate(10.685 4.859)"><path d="M467.186,273.657a.975.975,0,0,1-.2.014l-.583.014-2.271.026-8.588.048.082-.04-9.2,12.029-.044.057h-.073l-23.041.032.153-.086-9.688,16.127c-3.3,5.485-6.494,10.794-9.511,15.808l-.139.231-.158-.219-12.481-17.162.249-.008-11.386,17.739c-1.365,2.108-2.436,3.762-3.176,4.9l-.842,1.28c-.192.288-.3.429-.3.429s.083-.158.262-.454l.805-1.3,3.106-4.948,11.277-17.809.119-.187.131.179,12.525,17.13-.3.013,9.5-15.814,9.7-16.12.053-.087h.1l23.041.032-.116.057,9.271-11.976.032-.041h.05l8.588.048,2.271.026.583.014A1.127,1.127,0,0,1,467.186,273.657Z" transform="translate(-375.989 -273.554)" fill="#263238"/></g><g transform="translate(28.272 34.932)"><path d="M402.457,316.641a.885.885,0,1,1-.884-.851A.869.869,0,0,1,402.457,316.641Z" transform="translate(-400.689 -315.79)" fill="#263238"/></g><g transform="translate(54.849 19.826)"><path d="M439.784,295.425a.885.885,0,1,1-.884-.851A.868.868,0,0,1,439.784,295.425Z" transform="translate(-438.016 -294.574)" fill="#263238"/></g><g transform="translate(75.51 16.114)"><path d="M468.8,290.213a.885.885,0,1,1-.884-.852A.868.868,0,0,1,468.8,290.213Z" transform="translate(-467.034 -289.361)" fill="#263238"/></g></g><g transform="translate(17.179 94.196)"><ellipse cx="5.717" cy="5.504" rx="5.717" ry="5.504" fill="#fff"/></g><g transform="translate(37.094 96.014)"><rect width="67.154" height="2.06" fill="#fff"/></g><g transform="translate(37.094 101.159)"><rect width="27.883" height="2.06" fill="#fff"/></g></g><g transform="translate(244.92 61.761)"><rect width="79.134" height="65.634" rx="4.937" fill="#e6e6e6"/><g transform="translate(4.684 6.842)"><g transform="translate(9.126 19.437)"><rect width="4.266" height="32.205" fill="#e8505b"/></g><g transform="translate(28.515 16.824)"><rect width="4.266" height="34.818" fill="#e8505b"/></g><g transform="translate(48.597 12.402)"><rect width="4.266" height="39.24" fill="#e8505b"/></g><g transform="translate(39.164 35.961)"><rect width="4.266" height="15.681" fill="#e8505b"/><g opacity="0.2"><rect width="4.266" height="15.681"/></g></g><g transform="translate(14.098 15.987)"><rect width="4.266" height="35.655" fill="#e8505b"/><g opacity="0.1"><rect width="4.266" height="35.655"/></g></g><g transform="translate(33.834 8.517)"><rect width="4.266" height="43.125" fill="#e8505b"/><g opacity="0.1"><rect width="4.266" height="43.125"/></g></g><g transform="translate(59.6 8.517)"><rect width="4.266" height="43.125" fill="#e8505b"/><g opacity="0.2"><rect width="4.266" height="43.125"/></g></g><g transform="translate(54.032)"><rect width="4.266" height="51.642" fill="#e8505b"/><g opacity="0.1"><rect width="4.266" height="51.642"/></g></g><g transform="translate(19.316 29.012)"><rect width="4.266" height="22.63" fill="#e8505b"/><g opacity="0.2"><rect width="4.266" height="22.63"/></g></g><g transform="translate(1.976 53.411)"><path d="M540.139,209.327c0,.1-15.221.185-33.994.185s-34-.083-34-.185,15.218-.185,34-.185S540.139,209.225,540.139,209.327Z" transform="translate(-472.146 -209.142)" fill="#263238"/></g><g transform="translate(0 45.913)"><rect width="2.603" height="0.858" fill="#263238"/></g><g transform="translate(0 34.453)"><rect width="2.603" height="0.858" fill="#263238"/></g><g transform="translate(0 12.884)"><rect width="2.603" height="0.858" fill="#263238"/></g><g transform="translate(0 2.044)"><rect width="2.603" height="0.858" fill="#263238"/></g><g transform="translate(0.132 23.668)"><rect width="2.603" height="0.858" fill="#263238"/></g></g></g><g transform="translate(154.229 33.005)"><path d="M3.23,0H77.938a3.23,3.23,0,0,1,3.23,3.23v16.3a3.23,3.23,0,0,1-3.23,3.23H3.231A3.231,3.231,0,0,1,0,19.527V3.23A3.23,3.23,0,0,1,3.23,0Z" fill="#e8505b"/><g transform="translate(8.286 7.116)"><path d="M355.278,135.086a4.946,4.946,0,1,1-.765-6.953A4.946,4.946,0,0,1,355.278,135.086Z" transform="translate(-346.455 -127.027)" fill="#fff"/><path d="M351.4,136.949a4.965,4.965,0,1,1,3.882-1.859h0a4.98,4.98,0,0,1-3.882,1.859Zm.019-9.893a4.928,4.928,0,1,0,3.835,8.012h0a4.929,4.929,0,0,0-3.835-8.012Z" transform="translate(-346.447 -127.02)" fill="#263238"/></g><g transform="translate(10.467 10.398)"><path d="M355.074,131.633a20.665,20.665,0,0,1-2.664,2.857l-.654.63-.13.125-.124-.126a14.337,14.337,0,0,1-1.989-2.245,14.358,14.358,0,0,1,2.244,1.989h-.253l.646-.637A20.77,20.77,0,0,1,355.074,131.633Z" transform="translate(-349.511 -131.63)" fill="#e8505b"/></g><g transform="translate(27.158 9.526)"><path d="M419.041,130.591c0,.1-10.318.185-23.043.185s-23.045-.083-23.045-.185,10.316-.186,23.045-.186S419.041,130.488,419.041,130.591Z" transform="translate(-372.953 -130.405)" fill="#fff"/></g><g transform="translate(27.698 14.026)"><path d="M400.356,136.912c0,.1-5.965.185-13.322.185s-13.323-.083-13.323-.185,5.964-.186,13.323-.186S400.356,136.809,400.356,136.912Z" transform="translate(-373.711 -136.726)" fill="#fff"/></g></g></g></g></svg>