<svg xmlns="http://www.w3.org/2000/svg" width="390.236" height="167.531" viewBox="0 0 390.236 167.531"><g transform="translate(-140.159 -620.521)"><path d="M18.66.6C30.18.6,35.64-5.16,35.64-11.88c0-15.42-24.9-9.6-24.9-18.54,0-3.18,2.64-5.7,9.12-5.7a23.34,23.34,0,0,1,11.58,3.3l2.46-6.06c-3.66-2.4-8.94-3.72-13.98-3.72C8.4-42.6,3-36.84,3-30.06c0,15.6,24.96,9.66,24.96,18.72,0,3.12-2.76,5.46-9.3,5.46A23.272,23.272,0,0,1,4.8-10.5L2.1-4.44C5.58-1.44,12.12.6,18.66.6ZM52.8,0h7.8V-35.4H74.52V-42H38.88v6.6H52.8Zm58.44,0h8.16L100.44-42H92.76L73.86,0H81.9l4.14-9.72h21ZM88.68-15.84,96.54-34.2l7.92,18.36ZM156.9-35.46V-42H126.24V0h7.8V-16.08h20.28v-6.6H134.04V-35.46Zm39.72,0V-42H165.96V0h7.8V-16.08h20.28v-6.6H173.76V-35.46Z" transform="translate(233.281 753.182)"/><path d="M25.2.6c6.9,0,12.78-2.46,16.68-7.02l-5.04-4.8A14.6,14.6,0,0,1,25.62-6.24c-8.7,0-15-6.12-15-14.76s6.3-14.76,15-14.76a14.75,14.75,0,0,1,11.22,4.92l5.04-4.74c-3.9-4.56-9.78-7.02-16.62-7.02-12.9,0-22.5,9.06-22.5,21.6S12.36.6,25.2.6ZM70.02.6C83.04.6,92.64-8.52,92.64-21s-9.6-21.6-22.62-21.6S47.4-33.42,47.4-21,57,.6,70.02.6Zm0-6.84A14.313,14.313,0,0,1,55.26-21,14.313,14.313,0,0,1,70.02-35.76,14.313,14.313,0,0,1,84.78-21,14.313,14.313,0,0,1,70.02-6.24ZM132-42v28.44L108.84-42h-6.42V0h7.74V-28.44L133.32,0h6.42V-42ZM165.54.6c11.52,0,16.98-5.76,16.98-12.48,0-15.42-24.9-9.6-24.9-18.54,0-3.18,2.64-5.7,9.12-5.7a23.34,23.34,0,0,1,11.58,3.3l2.46-6.06c-3.66-2.4-8.94-3.72-13.98-3.72-11.52,0-16.92,5.76-16.92,12.54,0,15.6,24.96,9.66,24.96,18.72,0,3.12-2.76,5.46-9.3,5.46a23.272,23.272,0,0,1-13.86-4.62l-2.7,6.06C152.46-1.44,159,.6,165.54.6Zm44.28,0c11.46,0,18.36-6.66,18.36-18.9V-42H220.5v23.4c0,8.64-3.84,12.36-10.62,12.36S199.2-9.96,199.2-18.6V-42h-7.8v23.7C191.4-6.06,198.3.6,209.82.6ZM240.6,0h29.76V-6.6H248.4V-42h-7.8Z" transform="translate(233.281 691.61)"/><path d="M186.073,746.408l-45.414-40.842V643.779l45.414,40.842Z" transform="translate(0 -0.929)" fill="#ff0038" stroke="#fff" stroke-width="1"/><path d="M209.978,621.644l-45.414,40.842v61.787l45.414-40.842Z" transform="translate(-1.004)" fill="#f1af40" stroke="#fff" stroke-width="1"/><path d="M186.073,789.676l-45.414-40.842V687.047l45.414,40.842Z" transform="translate(0 -2.746)" fill="#003242" stroke="#fff" stroke-width="1"/><path d="M209.978,664.912l-45.414,40.842v61.787L209.978,726.7Z" transform="translate(-1.004 -1.816)" fill="#004f6f" stroke="#fff" stroke-width="1"/><rect width="67.374" height="3.974" transform="translate(463.021 755.395)" fill="#ff0038"/></g></svg>