<svg id="analysis" xmlns="http://www.w3.org/2000/svg" width="59.216" height="59.197" viewBox="0 0 59.216 59.197">
  <g id="Group_2288" data-name="Group 2288" transform="translate(3.969 3.949)">
    <g id="Group_2287" data-name="Group 2287">
      <path id="Path_1978" data-name="Path 1978" d="M52.9,32.106A20.718,20.718,0,1,0,73.618,52.824,20.718,20.718,0,0,0,52.9,32.106Zm0,1.973a18.725,18.725,0,0,1,15.308,7.962l-2.466,2.466a3.893,3.893,0,0,0-1.989-.562,3.946,3.946,0,0,0-3.946,3.946,3.894,3.894,0,0,0,.559,1.992l-6.46,6.46a3.826,3.826,0,0,0-3.984,0l-4.487-4.487a3.894,3.894,0,0,0,.559-1.992,3.938,3.938,0,0,0-7.752-.987h-3.66A18.771,18.771,0,0,1,52.9,34.079ZM65.725,47.891a1.973,1.973,0,1,1-1.973-1.973A1.973,1.973,0,0,1,65.725,47.891ZM53.886,59.73a1.973,1.973,0,1,1-1.973-1.973A1.973,1.973,0,0,1,53.886,59.73Zm-9.866-9.866a1.973,1.973,0,1,1-1.973-1.973A1.973,1.973,0,0,1,44.021,49.864Zm17.987,19.35A18.741,18.741,0,0,1,34.261,50.851h3.981a3.946,3.946,0,0,0,3.806,2.96,3.894,3.894,0,0,0,1.992-.559l4.487,4.487a3.894,3.894,0,0,0-.559,1.992,3.946,3.946,0,1,0,7.893,0,3.894,3.894,0,0,0-.559-1.992l6.46-6.46a3.894,3.894,0,0,0,1.992.559A3.946,3.946,0,0,0,67.7,47.891a3.894,3.894,0,0,0-.559-1.992l2.151-2.15A18.728,18.728,0,0,1,62.008,69.214Z" transform="translate(-32.182 -32.106)" fill="#f15a46"/>
    </g>
  </g>
  <g id="Group_2290" data-name="Group 2290" transform="translate(0 0)">
    <g id="Group_2289" data-name="Group 2289" transform="translate(0 0)">
      <path id="Path_1979" data-name="Path 1979" d="M49.351,9.949a3.946,3.946,0,0,0,3.806-2.96h6.059V5.016H53.157A3.938,3.938,0,0,0,45.4,6a3.894,3.894,0,0,0,.559,1.992L44.231,9.728a24.664,24.664,0,1,0-6.158,35.72l2.977,2.977,1.4,1.4,7.942,7.942A5.172,5.172,0,0,0,57.7,50.448l-7.942-7.942-1.4-1.4-2.977-2.977a24.582,24.582,0,0,0,0-26.771L47.36,9.389A3.9,3.9,0,0,0,49.351,9.949Zm0-5.919A1.973,1.973,0,1,1,47.378,6,1.973,1.973,0,0,1,49.351,4.03Zm6.955,47.813a3.2,3.2,0,1,1-4.473,4.576l-.051-.051L43.84,48.425,48.364,43.9Zm-9.337-9.337L42.445,47.03,39.714,44.3c.139-.107.269-.224.406-.333s.3-.241.443-.364c.216-.182.429-.365.638-.553.108-.1.21-.2.316-.3q.607-.568,1.175-1.175c.1-.106.2-.208.3-.316.188-.209.372-.422.553-.638q.186-.219.364-.443c.109-.136.226-.266.332-.405Zm-3.826-4.583c-.311.434-.631.859-.97,1.269-.1.119-.2.235-.306.352q-.453.527-.935,1.022-.21.217-.427.427-.493.482-1.022.935c-.117.1-.233.206-.352.306-.409.338-.835.659-1.269.97a22.727,22.727,0,1,1,5.281-5.281Z" transform="translate(0 -0.08)" fill="#f15a46"/>
    </g>
  </g>
</svg>
