<svg xmlns="http://www.w3.org/2000/svg" width="251" height="250" viewBox="0 0 251 250">
  <g id="Group_2670" data-name="Group 2670" transform="translate(-0.304 -0.228)">
    <g id="Group_2646" data-name="Group 2646" transform="translate(0.304 0.141)">
      <g id="Path_2366" data-name="Path 2366" transform="translate(0 0.087)" fill="#fff" opacity="0.529">
        <path d="M 125.5 249.5 C 117.0184707641602 249.5 108.5423736572266 248.6489715576172 100.3072204589844 246.9705352783203 C 92.28165435791016 245.3347778320312 84.38743591308594 242.8940582275391 76.8438720703125 239.7160949707031 C 69.43715667724609 236.5958099365234 62.29337310791016 232.7337188720703 55.61090469360352 228.2371215820312 C 48.99184417724609 223.7831878662109 42.76756286621094 218.6681518554688 37.11093902587891 213.0340881347656 C 31.45437431335449 207.4000549316406 26.31893730163574 201.2006225585938 21.84721946716309 194.6080322265625 C 17.33275032043457 187.9523468017578 13.45531272888184 180.8371887207031 10.32262516021729 173.4602203369141 C 7.132093906402588 165.9469757080078 4.681687355041504 158.0845336914062 3.039499998092651 150.0912475585938 C 1.354406237602234 141.8892822265625 0.5 133.4473724365234 0.5 125 C 0.5 116.5526275634766 1.354406237602234 108.1107177734375 3.039499998092651 99.90875244140625 C 4.681687355041504 91.91546630859375 7.132093906402588 84.05303192138672 10.32262516021729 76.53977966308594 C 13.45531272888184 69.16281127929688 17.33275032043457 62.04765701293945 21.84721946716309 55.3919677734375 C 26.31893730163574 48.79937362670898 31.45437431335449 42.59993743896484 37.11093902587891 36.96590805053711 C 42.76756286621094 31.33184432983398 48.99184417724609 26.21681213378906 55.61090469360352 21.76287460327148 C 62.29337310791016 17.26628112792969 69.43715667724609 13.40418720245361 76.8438720703125 10.28390598297119 C 84.38743591308594 7.105937480926514 92.28165435791016 4.665218830108643 100.3072204589844 3.029468774795532 C 108.5423736572266 1.351031303405762 117.0184707641602 0.5 125.5 0.5 C 133.9815673828125 0.5 142.4576263427734 1.351031303405762 150.6927795410156 3.029468774795532 C 158.7183685302734 4.665218830108643 166.6125946044922 7.105937480926514 174.1561584472656 10.28390598297119 C 181.5628509521484 13.40418720245361 188.7066497802734 17.26628112792969 195.3891296386719 21.76287460327148 C 202.0081939697266 26.21681213378906 208.2324676513672 31.33184432983398 213.8890686035156 36.96590805053711 C 219.5456237792969 42.59993743896484 224.6810913085938 48.79937362670898 229.1527862548828 55.3919677734375 C 233.6672515869141 62.04765701293945 237.5446929931641 69.16281127929688 240.6773681640625 76.53977966308594 C 243.8679046630859 84.05303192138672 246.3183135986328 91.91546630859375 247.9605255126953 99.90875244140625 C 249.6455993652344 108.1107177734375 250.5 116.5526275634766 250.5 125 C 250.5 133.4473724365234 249.6455993652344 141.8892822265625 247.9605255126953 150.0912475585938 C 246.3183135986328 158.0845336914062 243.8679046630859 165.9469757080078 240.6773681640625 173.4602203369141 C 237.5446929931641 180.8371887207031 233.6672515869141 187.9523468017578 229.1527862548828 194.6080322265625 C 224.6810913085938 201.2006225585938 219.5456237792969 207.4000549316406 213.8890686035156 213.0340881347656 C 208.2324676513672 218.6681518554688 202.0081939697266 223.7831878662109 195.3891296386719 228.2371215820312 C 188.7066497802734 232.7337188720703 181.5628509521484 236.5958099365234 174.1561584472656 239.7160949707031 C 166.6125946044922 242.8940582275391 158.7183685302734 245.3347778320312 150.6927795410156 246.9705352783203 C 142.4576263427734 248.6489715576172 133.9815673828125 249.5 125.5 249.5 Z" stroke="none"/>
        <path d="M 125.5 1 C 117.0519104003906 1 108.6094360351562 1.84765625 100.4070587158203 3.5194091796875 C 92.41371154785156 5.1485595703125 84.55122375488281 7.579498291015625 77.0379638671875 10.74468994140625 C 69.66093444824219 13.85246276855469 62.54574584960938 17.6990966796875 55.89002990722656 22.17768859863281 C 49.29734802246094 26.61387634277344 43.09786987304688 31.70852661132812 37.46377563476562 37.32015991210938 C 31.82978820800781 42.93171691894531 26.71484375 49.10639953613281 22.26100158691406 55.67265319824219 C 17.76469421386719 62.30155944824219 13.90287780761719 69.38803100585938 10.7828369140625 76.73521423339844 C 7.605255126953125 84.21797180175781 5.164779663085938 92.04853820800781 3.529251098632812 100.0093688964844 C 1.850967407226562 108.1783142089844 1 116.5863800048828 1 125 C 1 133.4136352539062 1.850967407226562 141.8216857910156 3.529251098632812 149.9906311035156 C 5.164779663085938 157.9514770507812 7.605255126953125 165.7820281982422 10.7828369140625 173.2647705078125 C 13.90287780761719 180.6119689941406 17.76469421386719 187.6984405517578 22.26100158691406 194.3273468017578 C 26.71484375 200.8935852050781 31.82978820800781 207.0682830810547 37.46377563476562 212.6798400878906 C 43.09786987304688 218.2914733886719 49.29734802246094 223.3861236572266 55.89002990722656 227.8223114013672 C 62.54574584960938 232.3009033203125 69.66093444824219 236.1475372314453 77.0379638671875 239.2553100585938 C 84.55122375488281 242.4205017089844 92.41371154785156 244.8514404296875 100.4070587158203 246.4805908203125 C 108.6094360351562 248.15234375 117.0519104003906 249 125.5 249 C 133.9480895996094 249 142.3905639648438 248.15234375 150.5928955078125 246.4805908203125 C 158.5862426757812 244.8514404296875 166.4487915039062 242.4205017089844 173.9620361328125 239.2553100585938 C 181.3390350341797 236.1475372314453 188.4542236328125 232.3009033203125 195.1099700927734 227.8223114013672 C 201.7026519775391 223.3861236572266 207.9021301269531 218.2914733886719 213.5361938476562 212.6798400878906 C 219.1702270507812 207.0682830810547 224.28515625 200.8935852050781 228.7389678955078 194.3273468017578 C 233.2352752685547 187.6984405517578 237.0970916748047 180.6119689941406 240.2171630859375 173.2647705078125 C 243.3947448730469 165.7820281982422 245.8352203369141 157.9514770507812 247.4707489013672 149.9906311035156 C 249.1490325927734 141.8216857910156 250 133.4136352539062 250 125 C 250 116.5863800048828 249.1490325927734 108.1783142089844 247.4707489013672 100.0093688964844 C 245.8352203369141 92.04853820800781 243.3947448730469 84.21797180175781 240.2171630859375 76.73521423339844 C 237.0970916748047 69.38803100585938 233.2352752685547 62.30155944824219 228.7389678955078 55.67265319824219 C 224.28515625 49.10639953613281 219.1702270507812 42.93171691894531 213.5361938476562 37.32015991210938 C 207.9021301269531 31.70852661132812 201.7026519775391 26.61387634277344 195.1099700927734 22.17768859863281 C 188.4542236328125 17.6990966796875 181.3390350341797 13.85246276855469 173.9620361328125 10.74468994140625 C 166.4487915039062 7.579498291015625 158.5862426757812 5.1485595703125 150.5928955078125 3.5194091796875 C 142.3905639648438 1.84765625 133.9480895996094 1 125.5 1 M 125.5 0 C 194.8117218017578 0 251 55.96440124511719 251 125 C 251 194.0355987548828 194.8117218017578 250 125.5 250 C 56.18824768066406 250 0 194.0355987548828 0 125 C 0 55.96440124511719 56.18824768066406 0 125.5 0 Z" stroke="none" fill="#707070"/>
      </g>
      <g id="Path_2365" data-name="Path 2365" transform="translate(28 27.087)" fill="#fff" opacity="0.529">
        <path d="M 97.5 194.5 C 90.91835021972656 194.5 84.34097290039062 193.8369445800781 77.95059967041016 192.529296875 C 71.72287750244141 191.2549285888672 65.59707641601562 189.3533782958984 59.74337387084961 186.8774719238281 C 53.995849609375 184.4464569091797 48.45230102539062 181.4375305175781 43.2667236328125 177.9342193603516 C 38.13029861450195 174.4641265869141 33.30022430419922 170.4789276123047 28.9106502532959 166.08935546875 C 24.52107429504395 161.6997985839844 20.53587532043457 156.8697052001953 17.06577491760254 151.7332763671875 C 13.56247520446777 146.5477294921875 10.55354976654053 141.0041809082031 8.122525215148926 135.2566223144531 C 5.64662504196167 129.4029235839844 3.745074987411499 123.2771530151367 2.470700025558472 117.0494232177734 C 1.163050055503845 110.6590270996094 0.5 104.0816497802734 0.5 97.5 C 0.5 90.91835021972656 1.163050055503845 84.34097290039062 2.470700025558472 77.95059967041016 C 3.745074987411499 71.72287750244141 5.64662504196167 65.59707641601562 8.122525215148926 59.74337387084961 C 10.55354976654053 53.995849609375 13.56247520446777 48.45230102539062 17.06577491760254 43.2667236328125 C 20.53587532043457 38.13029861450195 24.52107429504395 33.30022430419922 28.9106502532959 28.9106502532959 C 33.30022430419922 24.52107429504395 38.13029861450195 20.53587532043457 43.2667236328125 17.06577491760254 C 48.45230102539062 13.56247520446777 53.995849609375 10.55354976654053 59.74337387084961 8.122525215148926 C 65.59707641601562 5.64662504196167 71.72287750244141 3.745074987411499 77.95059967041016 2.470700025558472 C 84.34097290039062 1.163050055503845 90.91835021972656 0.5 97.5 0.5 C 104.0816497802734 0.5 110.6590270996094 1.163050055503845 117.0494232177734 2.470700025558472 C 123.2771530151367 3.745074987411499 129.4029235839844 5.64662504196167 135.2566223144531 8.122525215148926 C 141.0041809082031 10.55354976654053 146.5477294921875 13.56247520446777 151.7332763671875 17.06577491760254 C 156.8697052001953 20.53587532043457 161.6997985839844 24.52107429504395 166.08935546875 28.9106502532959 C 170.4789276123047 33.30022430419922 174.4641265869141 38.13029861450195 177.9342193603516 43.2667236328125 C 181.4375305175781 48.45230102539062 184.4464569091797 53.995849609375 186.8774719238281 59.74337387084961 C 189.3533782958984 65.59707641601562 191.2549285888672 71.72287750244141 192.529296875 77.95059967041016 C 193.8369445800781 84.34097290039062 194.5 90.91835021972656 194.5 97.5 C 194.5 104.0816497802734 193.8369445800781 110.6590270996094 192.529296875 117.0494232177734 C 191.2549285888672 123.2771530151367 189.3533782958984 129.4029235839844 186.8774719238281 135.2566223144531 C 184.4464569091797 141.0041809082031 181.4375305175781 146.5477294921875 177.9342193603516 151.7332763671875 C 174.4641265869141 156.8697052001953 170.4789276123047 161.6997985839844 166.08935546875 166.08935546875 C 161.6997985839844 170.4789276123047 156.8697052001953 174.4641265869141 151.7332763671875 177.9342193603516 C 146.5477294921875 181.4375305175781 141.0041809082031 184.4464569091797 135.2566223144531 186.8774719238281 C 129.4029235839844 189.3533782958984 123.2771530151367 191.2549285888672 117.0494232177734 192.529296875 C 110.6590270996094 193.8369445800781 104.0816497802734 194.5 97.5 194.5 Z" stroke="none"/>
        <path d="M 97.5 1 C 90.95195007324219 1 84.40830230712891 1.659622192382812 78.05082702636719 2.960556030273438 C 71.85542297363281 4.228302001953125 65.76144409179688 6.1199951171875 59.93815612792969 8.583023071289062 C 54.22035217285156 11.00148010253906 48.70542907714844 13.994873046875 43.546630859375 17.4801025390625 C 38.43656921386719 20.932373046875 33.63125610351562 24.89712524414062 29.26420593261719 29.26420593261719 C 24.89712524414062 33.63125610351562 20.932373046875 38.43656921386719 17.4801025390625 43.546630859375 C 13.994873046875 48.70542907714844 11.00148010253906 54.22035217285156 8.583023071289062 59.93815612792969 C 6.1199951171875 65.76144409179688 4.228302001953125 71.85542297363281 2.960556030273438 78.05082702636719 C 1.659622192382812 84.40830230712891 1 90.95195007324219 1 97.5 C 1 104.0480499267578 1.659622192382812 110.5916976928711 2.960556030273438 116.9491729736328 C 4.228302001953125 123.1445465087891 6.1199951171875 129.2385559082031 8.583023071289062 135.0618591308594 C 11.00148010253906 140.7796478271484 13.994873046875 146.2945556640625 17.4801025390625 151.453369140625 C 20.932373046875 156.5634155273438 24.89712524414062 161.3687286376953 29.26420593261719 165.7357940673828 C 33.63127136230469 170.1028747558594 38.43656921386719 174.067626953125 43.546630859375 177.5198974609375 C 48.70542907714844 181.005126953125 54.22035217285156 183.9985198974609 59.93815612792969 186.4169464111328 C 65.76144409179688 188.8800048828125 71.85542297363281 190.7716674804688 78.05082702636719 192.0394439697266 C 84.40830230712891 193.3403778076172 90.95195007324219 194 97.5 194 C 104.0480499267578 194 110.5916976928711 193.3403778076172 116.9491729736328 192.0394439697266 C 123.1445465087891 190.7716674804688 129.2385559082031 188.8800048828125 135.0618591308594 186.4169464111328 C 140.7796478271484 183.9985198974609 146.2945556640625 181.005126953125 151.453369140625 177.5198974609375 C 156.5634155273438 174.067626953125 161.3687286376953 170.1028747558594 165.7357940673828 165.7357940673828 C 170.1028747558594 161.3687286376953 174.067626953125 156.5634155273438 177.5198974609375 151.453369140625 C 181.005126953125 146.2945556640625 183.9985198974609 140.7796478271484 186.4169464111328 135.0618591308594 C 188.8800048828125 129.2385559082031 190.7716674804688 123.1445465087891 192.0394439697266 116.9491729736328 C 193.3403778076172 110.5916976928711 194 104.0480499267578 194 97.5 C 194 90.95195007324219 193.3403778076172 84.40830230712891 192.0394439697266 78.05082702636719 C 190.7716674804688 71.85542297363281 188.8800048828125 65.76144409179688 186.4169464111328 59.93815612792969 C 183.9985198974609 54.22035217285156 181.005126953125 48.70542907714844 177.5198974609375 43.546630859375 C 174.067626953125 38.43656921386719 170.1028747558594 33.63127136230469 165.7357940673828 29.26420593261719 C 161.3687286376953 24.89712524414062 156.5634155273438 20.932373046875 151.453369140625 17.4801025390625 C 146.2945556640625 13.994873046875 140.7796478271484 11.00148010253906 135.0618591308594 8.583023071289062 C 129.2385559082031 6.1199951171875 123.1445465087891 4.228302001953125 116.9491729736328 2.960556030273438 C 110.5916976928711 1.659622192382812 104.0480499267578 1 97.5 1 M 97.5 0 C 151.3477478027344 0 195 43.6522216796875 195 97.5 C 195 151.3477478027344 151.3477478027344 195 97.5 195 C 43.6522216796875 195 0 151.3477478027344 0 97.5 C 0 43.6522216796875 43.6522216796875 0 97.5 0 Z" stroke="none" fill="#707070"/>
      </g>
    </g>
    <path id="Path_2364" data-name="Path 2364" d="M8,0a7.762,7.762,0,0,1,8,7.5A7.762,7.762,0,0,1,8,15,7.762,7.762,0,0,1,0,7.5,7.762,7.762,0,0,1,8,0Z" transform="translate(215.304 42.228)" fill="#ff0138"/>
  </g>
</svg>
