<svg xmlns="http://www.w3.org/2000/svg" width="227.316" height="96.405" viewBox="0 0 227.316 96.405">
  <g id="Group_2268" data-name="Group 2268" transform="translate(15138.999 -6960.644)">
    <path id="Path_1943" data-name="Path 1943" d="M11.507.37A19.759,19.759,0,0,1,5.716-.481,12.085,12.085,0,0,1,1.295-2.738L2.96-6.475a13.116,13.116,0,0,0,3.9,2.054,14.194,14.194,0,0,0,4.644.8,8.024,8.024,0,0,0,4.311-.925,2.8,2.8,0,0,0,1.425-2.442,2.364,2.364,0,0,0-.8-1.832A5.585,5.585,0,0,0,14.43-9.953q-1.221-.407-3.33-.925a38.817,38.817,0,0,1-4.792-1.406,7.885,7.885,0,0,1-3.145-2.2A5.93,5.93,0,0,1,1.85-18.537a6.911,6.911,0,0,1,1.166-3.9A7.886,7.886,0,0,1,6.53-25.234a14.24,14.24,0,0,1,5.753-1.036,18.583,18.583,0,0,1,4.662.592,12.886,12.886,0,0,1,3.959,1.7l-1.517,3.737a14.966,14.966,0,0,0-3.552-1.517,13.287,13.287,0,0,0-3.589-.518,7.5,7.5,0,0,0-4.236.962,2.967,2.967,0,0,0-1.387,2.553,2.308,2.308,0,0,0,.8,1.813,5.747,5.747,0,0,0,2.016,1.11q1.221.407,3.33.925A35.041,35.041,0,0,1,17.5-13.524a8.111,8.111,0,0,1,3.163,2.2,5.8,5.8,0,0,1,1.313,4,6.824,6.824,0,0,1-1.165,3.885A7.928,7.928,0,0,1,17.279-.666,14.375,14.375,0,0,1,11.507.37ZM32.56-21.83H23.976V-25.9H45.954v4.07H37.37V0H32.56ZM66.008-5.994H53.058L50.5,0H45.547L57.2-25.9h4.736L73.63,0H68.6ZM64.417-9.768,59.533-21.09,54.686-9.768Zm18.241-12.1v7.881H95.164v4.07H82.658V0h-4.81V-25.9H96.755v4.033Zm24.494,0v7.881h12.506v4.07H107.152V0h-4.81V-25.9h18.907v4.033Z" transform="translate(-15084.977 7039.536)" fill="#003242"/>
    <path id="Path_1942" data-name="Path 1942" d="M15.54.37A14.586,14.586,0,0,1,8.455-1.35,12.683,12.683,0,0,1,3.5-6.105,13.189,13.189,0,0,1,1.7-12.95,13.086,13.086,0,0,1,3.515-19.8a12.816,12.816,0,0,1,4.977-4.754,14.586,14.586,0,0,1,7.085-1.72,14.779,14.779,0,0,1,5.809,1.11,11.848,11.848,0,0,1,4.44,3.219l-3.108,2.923A9.064,9.064,0,0,0,15.8-22.052a9.7,9.7,0,0,0-4.773,1.166,8.4,8.4,0,0,0-3.293,3.237,9.3,9.3,0,0,0-1.184,4.7,9.3,9.3,0,0,0,1.184,4.7,8.4,8.4,0,0,0,3.293,3.238A9.7,9.7,0,0,0,15.8-3.848a9.015,9.015,0,0,0,6.919-3.071l3.108,2.96A11.817,11.817,0,0,1,21.368-.74,14.915,14.915,0,0,1,15.54.37Zm27.639,0a14.769,14.769,0,0,1-7.141-1.72,12.741,12.741,0,0,1-4.995-4.773A13.113,13.113,0,0,1,29.23-12.95a13.114,13.114,0,0,1,1.813-6.827,12.741,12.741,0,0,1,4.995-4.773,14.769,14.769,0,0,1,7.141-1.72,14.769,14.769,0,0,1,7.141,1.72,12.782,12.782,0,0,1,5,4.754,13.086,13.086,0,0,1,1.813,6.845,13.086,13.086,0,0,1-1.813,6.845,12.782,12.782,0,0,1-5,4.755A14.769,14.769,0,0,1,43.179.37Zm0-4.218a9.343,9.343,0,0,0,4.662-1.165A8.43,8.43,0,0,0,51.1-8.269a9.33,9.33,0,0,0,1.184-4.681A9.33,9.33,0,0,0,51.1-17.631a8.43,8.43,0,0,0-3.256-3.256,9.343,9.343,0,0,0-4.662-1.166,9.343,9.343,0,0,0-4.662,1.166,8.43,8.43,0,0,0-3.256,3.256,9.33,9.33,0,0,0-1.184,4.681,9.33,9.33,0,0,0,1.184,4.681,8.43,8.43,0,0,0,3.256,3.256A9.343,9.343,0,0,0,43.179-3.848ZM86.173-25.9V0H82.214L67.932-17.538V0H63.159V-25.9h3.959L81.4-8.362V-25.9ZM102.083.37a19.759,19.759,0,0,1-5.79-.851,12.085,12.085,0,0,1-4.422-2.257l1.665-3.737a13.116,13.116,0,0,0,3.9,2.054,14.194,14.194,0,0,0,4.643.8,8.024,8.024,0,0,0,4.311-.925,2.8,2.8,0,0,0,1.424-2.442,2.365,2.365,0,0,0-.8-1.832,5.585,5.585,0,0,0-2.017-1.128q-1.221-.407-3.33-.925a38.817,38.817,0,0,1-4.791-1.406,7.885,7.885,0,0,1-3.145-2.2,5.93,5.93,0,0,1-1.313-4.051,6.911,6.911,0,0,1,1.166-3.9,7.886,7.886,0,0,1,3.515-2.793,14.24,14.24,0,0,1,5.753-1.036,18.583,18.583,0,0,1,4.662.592,12.886,12.886,0,0,1,3.959,1.7l-1.517,3.737a14.966,14.966,0,0,0-3.552-1.517,13.287,13.287,0,0,0-3.589-.518,7.5,7.5,0,0,0-4.237.962A2.967,2.967,0,0,0,97.2-18.759a2.308,2.308,0,0,0,.8,1.813,5.747,5.747,0,0,0,2.016,1.11q1.221.407,3.33.925a35.041,35.041,0,0,1,4.736,1.387,8.111,8.111,0,0,1,3.163,2.2,5.8,5.8,0,0,1,1.313,4,6.824,6.824,0,0,1-1.165,3.885,7.928,7.928,0,0,1-3.534,2.775A14.375,14.375,0,0,1,102.083.37Zm27.306,0q-5.365,0-8.362-3.016t-3-8.639V-25.9h4.81v14.43q0,7.622,6.586,7.622,6.549,0,6.549-7.622V-25.9h4.736v14.615q0,5.624-2.979,8.639T129.389.37ZM148.37-25.9h4.81V-4.07h13.542V0H148.37Z" transform="translate(-15084.977 7003.623)" fill="#003242"/>
    <path id="Path_20" data-name="Path 20" d="M167.147,703.639l-26.488-23.821V643.779L167.147,667.6Z" transform="translate(-15279.658 6329.233)" fill="#ff0038"/>
    <path id="Path_21" data-name="Path 21" d="M191.053,621.644l-26.488,23.821V681.5l26.488-23.821Z" transform="translate(-15290.206 6339)" fill="#f1af40"/>
    <path id="Path_22" data-name="Path 22" d="M167.147,746.907l-26.488-23.821V687.047l26.488,23.821Z" transform="translate(-15279.658 6310.142)" fill="#003242"/>
    <path id="Path_23" data-name="Path 23" d="M191.053,664.912l-26.488,23.821v36.038l26.488-23.821Z" transform="translate(-15290.206 6319.909)" fill="#004f6f"/>
    <rect id="Rectangle_1" data-name="Rectangle 1" width="39.296" height="2.318" transform="translate(-14950.979 7038.655)" fill="#ff0038"/>
  </g>
</svg>
